<svg fill="none" height="51" viewBox="0 0 54 51" width="54" xmlns="http://www.w3.org/2000/svg"><g fill="#1a3f8f"><path d="m3.37898 44.3223v-2.7004l-1.05928 2.0067h-.44758l-1.051823-1.9992v2.7004h-.8056486v-4.1103h.8578656l1.215936 2.3423 1.23085-2.3423h.85786v4.1103h-.79818z"/><path d="m6.78791 44.3525c-.29839 0-.5744-.0597-.82057-.1716s-.45504-.276-.63407-.47c-.17903-.2014-.31331-.4252-.41029-.6714-.09697-.2461-.14173-.5072-.14173-.7683 0-.276.05222-.5371.15665-.7833.10444-.2461.24617-.4699.42521-.6639.17903-.1939.39536-.3506.64153-.4625s.51472-.1716.80565-.1716c.29839 0 .56694.0597.81311.1791.24617.1193.45504.2834.62661.4774.17158.2014.30585.4252.40283.6714.09697.2461.14173.4998.14173.7609 0 .2685-.05222.5296-.14919.7758-.09698.2461-.23871.4699-.41775.6639-.17903.1939-.39536.3506-.64153.4625-.23871.1193-.50726.1716-.79819.1716zm-1.19355-2.0813c0 .179.02984.3506.08205.5147.05222.1641.13428.3133.23126.4401.10443.1269.23125.2313.38044.3059s.32077.1119.50726.1119c.19395 0 .36553-.0373.51472-.1194.14919-.082.27601-.1865.37299-.3207.09697-.1343.17903-.2835.23125-.4476.05221-.1641.07459-.3282.07459-.4924 0-.179-.02984-.3506-.08205-.5147-.05222-.1641-.13428-.3133-.23871-.4401-.09698-.1194-.2238-.2238-.36553-.2984-.14919-.0746-.31331-.1119-.4998-.1119-.19395 0-.37299.0373-.52218.1194-.14919.082-.27601.1865-.37298.3133-.09698.1268-.17904.276-.23126.4401-.05221.1641-.08205.3282-.08205.4998z"/><path d="m9.83915 40.2144 1.11145 3.1629 1.1041-3.1629h.8429l-1.5591 4.1103h-.7683l-1.56654-4.1103z"/><path d="m13.3379 44.3247v-4.1103h.7982v4.1103z"/><path d="m15.7994 41.6839v2.6408h-.7982v-4.1103h.6416l2.126 2.7078v-2.7004h.7982v4.1029h-.664z"/><path d="m21.1333 44.3532c-.2686 0-.5222-.0522-.7535-.1641-.2387-.1044-.4475-.2536-.6266-.4476-.179-.1939-.3207-.4103-.4177-.6714-.097-.2536-.1492-.5296-.1492-.828 0-.2834.0522-.5445.1492-.7982.097-.2536.2387-.4699.4252-.6564.179-.1865.3953-.3357.6415-.4476s.5073-.1641.7907-.1641c.3879 0 .7162.082.9922.2462.276.1641.4849.3804.6266.6489l-.5968.4402c-.1044-.2014-.2536-.3581-.4401-.47-.1865-.1044-.3879-.1641-.6117-.1641-.1716 0-.3357.0373-.4774.1119-.1418.0746-.2686.1716-.373.2984s-.1865.276-.2387.4401-.0821.3431-.0821.5296c0 .194.0299.3805.0895.5446.0597.1641.1418.3133.2537.4327.1119.1268.2387.2238.3879.2909.1492.0746.3058.1044.4849.1044.2088 0 .4102-.0522.5967-.1641.194-.1119.373-.2685.5371-.4774v.7907c-.3431.3879-.7459.5744-1.2084.5744zm1.1488-1.5591h-.8281v-.5818h1.492v2.1111h-.6639z"/><path d="m25.0198 44.3247v-4.1103h2.7675v.7012h-1.9693v1.0592h1.6336v.649h-1.6336v1.7009z"/><path d="m30.1072 44.3525c-.2983 0-.5744-.0597-.8205-.1716-.2462-.1119-.4551-.276-.6341-.47-.179-.2014-.3133-.4252-.4103-.6714-.097-.2461-.1417-.5072-.1417-.7683 0-.276.0522-.5371.1566-.7833.1045-.2461.2462-.4699.4252-.6639.1791-.1939.3954-.3506.6416-.4625s.5147-.1716.8056-.1716c.2984 0 .567.0597.8131.1791.2462.1193.4551.2834.6266.4774.1716.2014.3059.4252.4029.6714.097.2461.1417.4998.1417.7609 0 .2685-.0522.5296-.1492.7758-.097.2461-.2387.4699-.4177.6639-.1791.1939-.3954.3506-.6416.4625-.2387.1193-.5072.1716-.7982.1716zm-1.1935-2.0813c0 .179.0298.3506.0821.5147.0522.1641.1342.3133.2312.4401.1044.1269.2313.2313.3804.3059.1492.0746.3208.1119.5073.1119.194 0 .3655-.0373.5147-.1194.1492-.082.276-.1865.373-.3207.097-.1343.179-.2835.2313-.4476.0522-.1641.0746-.3282.0746-.4924 0-.179-.0299-.3506-.0821-.5147s-.1343-.3133-.2387-.4401-.2313-.2313-.3805-.3059c-.1491-.0745-.3133-.1118-.4998-.1118-.1939 0-.3729.0373-.5221.1193-.1492.0821-.276.1865-.373.3133s-.1791.276-.2313.4401c-.0447.1716-.0671.3357-.0671.5073z"/><path d="m32.7332 44.3247v-4.1103h1.8201c.1865 0 .3655.0373.5222.1193.1641.0746.2984.179.4177.3133.1194.1343.2089.276.2761.4401.0596.1642.0969.3283.0969.4998 0 .1716-.0298.3432-.0895.4998-.0597.1567-.1492.2984-.2611.4178-.1119.1193-.2461.2163-.3953.276l.9399 1.5442h-.8803l-.8504-1.3801h-.7982v1.3801zm.7981-2.0738h.9996c.097 0 .1865-.0299.2686-.0896.0746-.0596.1417-.1417.1865-.2387.0447-.097.0671-.2163.0671-.3357 0-.1342-.0298-.2461-.082-.3431-.0523-.097-.1194-.179-.2089-.2313-.0821-.0596-.1716-.0895-.2686-.0895h-.9697v1.3279z"/><path d="m37.91 40.2293h.746l.4699 1.3576.4775-1.3576h.7385l-.7087 1.8724.5222 1.3054 1.1637-3.1927h.8728l-1.6486 4.1103h-.6863l-.7236-1.7232-.7161 1.7232h-.6863l-1.6412-4.1103h.8579l1.1712 3.1927.5072-1.3054z"/><path d="m43.5946 40.2144h.8131l1.5144 4.1103h-.8206l-.3431-1.022h-1.5144l-.3431 1.022h-.8206zm.9698 2.5288-.5669-1.6934-.567 1.6934z"/><path d="m46.3691 44.3247v-4.1103h1.8202c.1865 0 .3655.0373.5222.1193.1641.0746.2984.179.4177.3133.1194.1343.2089.276.276.4401.0597.1642.097.3283.097.4998 0 .1716-.0298.3432-.0895.4998-.0597.1567-.1492.2984-.2611.4178-.1119.1193-.2462.2163-.3954.276l.94 1.5442h-.8803l-.8504-1.3726h-.7982v1.38h-.7982zm.7982-2.0738h.9996c.097 0 .1865-.0299.2686-.0896.0746-.0596.1417-.1417.1865-.2387.0447-.097.0671-.2163.0671-.3357 0-.1342-.0298-.2461-.082-.3431-.0523-.097-.1194-.179-.2089-.2313-.0821-.0596-.1716-.0895-.2686-.0895h-.9697v1.3279z"/><path d="m50.2258 44.3247v-4.1103h1.4994c.4476 0 .8206.0895 1.1264.276.2984.1865.5297.4326.6789.7385.1492.3133.2238.6564.2238 1.0369 0 .4177-.0821.7758-.2462 1.0891s-.4028.5445-.7012.7161c-.3059.1716-.6639.2537-1.0742.2537zm2.7228-2.0589c0-.2686-.0447-.4998-.1417-.7012-.097-.2015-.2387-.3581-.4178-.4775-.179-.1119-.4028-.1715-.6639-.1715h-.7012v2.7078h.6938c.2611 0 .4849-.0596.6639-.179.179-.1193.3208-.2835.4177-.4849.097-.2014.1492-.4326.1492-.6937z"/><path d="m14.5237 47.4454h-1.3203v3.409h-.7907v-3.409h-1.3204v-.7013h3.4314z"/><path d="m16.7913 50.8822c-.2984 0-.5744-.0596-.8205-.1715-.2462-.1119-.4551-.276-.6341-.47-.179-.2014-.3133-.4252-.4103-.6714-.097-.2461-.1417-.5072-.1417-.7683 0-.276.0522-.5371.1566-.7833.1045-.2462.2462-.4699.4252-.6639.1791-.1939.3954-.3506.6416-.4625.2461-.1119.5147-.1716.8056-.1716.2984 0 .5669.0597.8131.1791.2462.1193.4551.2834.6266.4774.1716.2014.3059.4252.4029.6714.0969.2461.1417.4998.1417.7608 0 .2686-.0522.5297-.1492.7759-.097.2461-.2387.4699-.4177.6639-.1791.1939-.3954.3506-.6416.4625-.2387.1119-.5072.1715-.7982.1715zm-1.1935-2.0887c0 .1791.0298.3506.082.5147.0523.1642.1343.3134.2313.4402.1044.1268.2312.2312.3804.3058s.3208.1119.5073.1119c.1939 0 .3655-.0373.5147-.1193.1492-.0821.276-.1865.373-.3208s.179-.2835.2312-.4476c.0523-.1641.0746-.3282.0746-.4923 0-.1791-.0298-.3506-.082-.5148-.0522-.1641-.1343-.3133-.2387-.4401-.1045-.1268-.2313-.2312-.3805-.3058s-.3133-.1119-.4998-.1119c-.1939 0-.373.0373-.5222.1193-.1491.0821-.276.1865-.3729.3133-.097.1269-.1791.2761-.2313.4402-.0447.1715-.0671.3431-.0671.5072z"/><path d="m21.133 50.883c-.2685 0-.5222-.0522-.7534-.1641-.2387-.1044-.4476-.2536-.6266-.4476-.1791-.1939-.3208-.4103-.4178-.6714-.0969-.2536-.1492-.5296-.1492-.828 0-.2835.0523-.5446.1492-.7982.097-.2536.2387-.4699.4252-.6564.1791-.1865.3954-.3357.6416-.4476.2461-.1119.5072-.1641.7907-.1641.3879 0 .7161.082.9921.2461.276.1642.4849.3805.6267.649l-.5968.4402c-.1045-.2015-.2537-.3581-.4401-.47-.1865-.1044-.388-.1641-.6117-.1641-.1716 0-.3357.0373-.4775.1119-.1417.0746-.2685.1715-.3729.2984-.1045.1268-.1865.276-.2388.4401-.0522.1641-.082.3431-.082.5296 0 .194.0298.3805.0895.5446s.1417.3133.2536.4326c.1119.1269.2387.2238.3879.291.1492.0746.3059.1044.4849.1044.2089 0 .4103-.0522.5968-.1641.1939-.1119.373-.2686.5371-.4774v.7907c-.3506.3879-.7534.5744-1.2085.5744zm1.1414-1.5591h-.8281v-.5818h1.492v2.1111h-.6639z"/><path d="m26.4813 50.1532v.7012h-2.857v-4.1103h2.8048v.7013h-2.0066v.9921h1.7306v.649h-1.7306v1.0742h2.0588z"/><path d="m30.189 47.4454h-1.3203v3.409h-.7908v-3.409h-1.3203v-.7013h3.4314z"/><path d="m34.1576 46.7441v4.1103h-.7982v-1.753h-1.8649v1.753h-.7982v-4.1103h.7982v1.6636h1.8649v-1.6636z"/><path d="m37.88 50.1532v.7012h-2.8571v-4.1103h2.8049v.7013h-2.0067v.9921h1.7307v.649h-1.7307v1.0742h2.0589z"/><path d="m38.5066 50.8544v-4.1103h1.8202c.1865 0 .3655.0373.5221.1194.1642.0746.2984.179.4178.3133.1193.1343.2089.276.276.4401.0597.1641.097.3283.097.4998 0 .1716-.0299.3432-.0895.4998-.0597.1567-.1492.2984-.2611.4178-.1119.1193-.2462.2163-.3954.276l.9399 1.5441h-.8802l-.8504-1.38h-.7982v1.38zm.7982-2.0812h.9996c.097 0 .1865-.0299.2685-.0895.0746-.0597.1418-.1418.1865-.2387.0448-.097.0672-.2164.0672-.3357 0-.1343-.0299-.2462-.0821-.3432s-.1194-.179-.2089-.2312c-.082-.0597-.1715-.0895-.2685-.0895h-.9698v1.3278z"/><path d="m53.1653.0585938h-53.1653v35.4410062h53.1653z"/></g><path d="m25.445 7.77909 1.1264-.81311 1.119.81311-.4252-1.32037 1.1413-.82056h-1.4099l-.4252-1.34275-.4326 1.34275h-1.4025l1.1414.82056z" fill="#feeb15"/><path d="m19.6415 9.33793 1.1264-.81311 1.119.81311-.4252-1.32037 1.1339-.82057h-1.4024l-.4253-1.34274-.4326 1.34274h-1.4024l1.1338.82057z" fill="#feeb15"/><path d="m16.5155 10.1155-.4252 1.3427h-1.4099l1.1414.8206-.4252 1.3204 1.1189-.8206 1.1264.8206-.4326-1.3204 1.1413-.8206h-1.4024z" fill="#feeb15"/><path d="m14.9569 18.5817 1.1264.8131-.4326-1.3204 1.1413-.8205h-1.4024l-.4327-1.3428-.4252 1.3428h-1.4099l1.1414.8205-.4252 1.3204z" fill="#feeb15"/><path d="m16.9482 23.0725-.4327-1.3428-.4252 1.3428h-1.4099l1.1414.8131-.4252 1.3278 1.1189-.8205 1.1264.8205-.4326-1.3278 1.1413-.8131z" fill="#feeb15"/><path d="m21.2007 27.3226-.4252-1.3353-.4326 1.3353h-1.4025l1.1414.8206-.4327 1.3203 1.1264-.8131 1.119.8131-.4252-1.3203 1.1413-.8206z" fill="#feeb15"/><path d="m27.0041 28.8669-.4327-1.3427-.4326 1.3427h-1.4025l1.1414.8206-.4252 1.3204 1.1189-.8132 1.119.8132-.4252-1.3204 1.1413-.8206z" fill="#feeb15"/><path d="m32.8006 27.3226-.4327-1.3353-.4252 1.3353h-1.4024l1.1339.8206-.4252 1.3203 1.1189-.8131 1.1264.8131-.4326-1.3203 1.1413-.8206z" fill="#feeb15"/><path d="m37.06 23.0725-.4327-1.3428-.4326 1.3428h-1.4025l1.1414.8131-.4327 1.3278 1.1264-.8205 1.119.8205-.4252-1.3278 1.1413-.8131z" fill="#feeb15"/><path d="m39.9989 17.2383h-1.4024l-.4327-1.3428-.4252 1.3428h-1.4024l1.1339.8205-.4252 1.3204 1.1189-.8206 1.1264.8206-.4252-1.3204z" fill="#feeb15"/><path d="m35.5009 13.5838 1.1264-.8206 1.119.8206-.4252-1.3278 1.1413-.8132h-1.4024l-.4327-1.3427-.4326 1.3427h-1.4025l1.1414.8132z" fill="#feeb15"/><path d="m32.3828 5.85425-.4252 1.3502-1.4024-.00746 1.1339.82057-.4253 1.32783 1.1265-.82057 1.1189.82057-.4252-1.32783 1.1339-.82057h-1.4024z" fill="#feeb15"/></svg>