<svg fill="none" height="41" viewBox="0 0 134 41" width="134" xmlns="http://www.w3.org/2000/svg"><path d="m.149414 20.0702c0-10.9677 8.878616-19.846323 19.846286-19.846323 10.9677 0 19.8464 8.878623 19.8464 19.846323s-8.8787 19.8463-19.8464 19.8463c-10.96767 0-19.846286-8.8786-19.846286-19.8463z" fill="#fff"/><path d="m20.0702 35.8877c8.7294 0 15.8173-7.088 15.8173-15.8174s-7.0879-15.81737-15.8173-15.81737-15.81742 7.08797-15.81742 15.81737c-.07461 8.7294 7.01332 15.8174 15.81742 15.8174z" fill="#fff"/><g fill="#002f6c"><path d="m63.7172 7.08813v10.89307c0 6.3419-4.3274 8.5802-9.5501 8.5802-5.5958 0-9.5502-2.6113-9.5502-8.5056v-10.96767h4.7751v11.04237c0 2.7605 2.0145 4.402 4.7751 4.402 2.5367 0 4.8496-1.343 4.8496-4.7751v-10.66927z"/><path d="m80.4298 12.0877c-2.7605-1.2684-4.4766-1.716-6.0434-1.716-1.716 0-2.8352.5969-2.8352 1.5668 0 2.9098 9.774 2.0891 9.774 8.804 0 3.6559-3.0591 5.8196-7.3864 5.8196-3.3575 0-4.9989-.8953-6.9388-1.8653v-4.1035c2.7606 1.7906 4.402 2.4621 6.5657 2.4621 1.7906 0 2.8352-.6715 2.8352-1.7906 0-3.1337-9.7739-2.0145-9.7739-8.8787 0-3.2828 2.8351-5.52111 7.3118-5.52111 2.1637 0 4.1035.44766 6.491 1.49221z"/><path d="m47.0044 30.9636h-1.7907v1.2684h1.7907v.5968h-1.7907v2.1637h-.6715v-4.6258h2.4622z"/><path d="m48.8696 30.3667c.8954 0 1.4922.5223 1.4922 1.2684 0 .5222-.2984.8953-.7461 1.1191.4477.2985.6715.6715 1.0446 1.2684.2238.2984.2984.4477.5969.8953h-.8207l-.5969-.9699c-.5969-.9699-.8954-1.0446-1.1938-1.0446h-.2984v2.0145h-.5969v-4.5512zm-.5222 2.0145h.4476c.6715 0 .8954-.3731.8954-.7461 0-.4477-.2985-.6715-.8954-.6715h-.4476z"/><path d="m53.5703 30.292c1.4922 0 2.4621 1.0445 2.4621 2.3875 0 1.2684-.8953 2.3875-2.4621 2.3875-1.4922 0-2.4621-1.1191-2.4621-2.3875s.9699-2.3875 2.4621-2.3875zm0 4.1036c1.0445 0 1.7906-.7461 1.7906-1.7161 0-.9699-.7461-1.716-1.7906-1.716s-1.7907.7461-1.7907 1.716c0 .97.7462 1.7161 1.7907 1.7161z"/><path d="m60.9563 34.9925h-.6715v-3.5813l-1.4176 1.7907h-.1492l-1.4176-1.7907v3.5813h-.6715v-4.6258h.6715l1.4922 1.8653 1.5668-1.8653h.5969z"/><path d="m67 30.9636h-1.5669v4.0289h-.6715v-4.0289h-1.5668v-.5969h3.8052z"/><path d="m71.4767 34.9925h-.6715v-2.0144h-2.6114v2.0144h-.5969v-4.6258h.5969v2.0145h2.6114v-2.0145h.6715z"/><path d="m75.0581 30.9636h-1.9398v1.4176h1.8652v.5969h-1.8652v1.4176h2.0144v.5968h-2.6859v-4.6258h2.6113z"/><path d="m81.5489 34.9925h-.6715l-.5969-1.343h-1.9399l-.5968 1.343h-.6715l1.9398-4.6258h.4477zm-2.9844-1.9398h1.4176l-.7461-1.6415z"/><path d="m86.2491 34.9925h-.6715v-3.5813l-1.4176 1.7907h-.0746l-1.4176-1.7907h-.0746v3.5813h-.5969v-4.6258h.5969l1.4922 1.8653 1.5668-1.8653h.5969z"/><path d="m89.8306 30.9636h-1.9399v1.4176h1.8653v.5969h-1.8653v1.4176h2.0145v.5968h-2.686v-4.6258h2.6114z"/><path d="m91.7704 30.3667c.8953 0 1.4922.5223 1.4922 1.2684 0 .5222-.2984.8953-.7461 1.1191.4477.2985.6715.6715 1.0446 1.2684.2238.2984.2984.4477.5968.8953h-.8207l-.5968-.9699c-.5969-.9699-.8954-1.0446-1.1938-1.0446h-.2984v2.0145h-.6715v-4.5512zm-.5222 2.0145h.4476c.6715 0 .8953-.3731.8953-.7461 0-.4477-.2984-.6715-.8953-.6715h-.4476z"/><path d="m95.128 30.3667h-.6715v4.5512h.6715z"/><path d="m99.903 31.4111c-.5969-.2984-1.0446-.4476-1.5668-.4476-1.0446 0-1.7907.7461-1.7907 1.716 0 1.0446.7461 1.7161 1.8653 1.7161.5222 0 1.0445-.1493 1.5668-.5223v.7461c-.4477.2238-.9699.373-1.6414.373-1.7161 0-2.4622-1.3429-2.4622-2.3129 0-1.4176 1.0446-2.3875 2.5368-2.3875.4476 0 .9699.1492 1.5668.373v.7461z"/><path d="m104.603 34.9925h-.671l-.597-1.343h-1.94l-.597 1.343h-.671l1.94-4.6258h.447zm-2.984-1.9398h1.418l-.747-1.6415z"/><path d="m109.304 34.9925h-.597l-3.059-3.5813v3.5813h-.597v-4.6258h.522l3.059 3.5813v-3.5813h.672z"/><path d="m113.706 30.3667c.97 0 1.492.5969 1.492 1.343s-.447 1.2684-1.566 1.2684h-.672v2.0144h-.671v-4.5512h1.417zm-.746 2.0145h.746c.522 0 .821-.2985.821-.7461 0-.3731-.149-.6715-.746-.6715h-.746v1.4176z"/><path d="m118.332 30.9636h-1.94v1.4176h1.865v.5969h-1.865v1.4176h2.014v.5968h-2.686v-4.6258h2.612z"/><path d="m121.391 30.292c1.492 0 2.462 1.0445 2.462 2.3875 0 1.2684-.896 2.3875-2.462 2.3875-1.493 0-2.463-1.1191-2.463-2.3875s.97-2.3875 2.463-2.3875zm0 4.1036c1.044 0 1.79-.7461 1.79-1.7161 0-.9699-.746-1.716-1.79-1.716-1.045 0-1.791.7461-1.791 1.716 0 .97.746 1.7161 1.791 1.7161z"/><path d="m125.868 30.3667c.97 0 1.492.5969 1.492 1.343s-.448 1.2684-1.567 1.2684h-.671v2.0144h-.672v-4.5512h1.418zm-.746 2.0145h.746c.522 0 .821-.2985.821-.7461 0-.3731-.15-.6715-.747-.6715h-.746v1.4176z"/><path d="m128.553 34.3957h2.089v.5968h-2.76v-4.6258h.671z"/><path d="m133.776 30.9636h-2.014v1.4176h1.94v.5969h-1.94v1.4176h2.014v.5968h-2.611v-4.6258h2.611z"/><path d="m0 20.0702c0 11.0423 9.02784 20.0701 20.0702 20.0701 11.0423 0 20.0701-8.9532 20.0701-20.0701-.0746-11.04236-9.0278-20.0702-20.0701-20.0702-11.04236 0-20.0702 9.02784-20.0702 20.0702zm.298441 0c0-10.89314 8.878619-19.697149 19.697059-19.697149 10.8931 0 19.6971 8.878619 19.6971 19.697149 0 10.893-8.8786 19.6971-19.6971 19.6971-10.81844 0-19.697059-8.8787-19.697059-19.6971z"/><path d="m4.02881 20.0703c0 8.804 7.16259 16.0412 16.04119 16.0412 8.804 0 16.0412-7.1626 16.0412-16.0412 0-8.8041-7.1626-16.04125-16.0412-16.04125s-16.04119 7.16255-16.04119 16.04125zm.29844 0c0-8.6548 7.01335-15.6682 15.66815-15.6682s15.6682 7.0134 15.6682 15.6682c0 8.6547-7.0134 15.6681-15.6682 15.6681-8.5802 0-15.66815-7.0134-15.66815-15.6681z"/><path d="m29.1726 25.666h-18.2795v2.8352h18.2795z"/><path d="m29.2472 9.02832h-18.3541v5.29728h18.3541z"/><path d="m29.2472 9.02832h-18.3541v5.29728h18.3541z"/><path d="m37.9018 16.7875v.7461l-.4477-.5969-.7461.2239.4477-.5969-.4477-.5969.7461.2238.4477-.5968v.7461l.7461.2238z"/><path d="m2.01427 16.3399v-.7461l.44766.5968.7461-.2238-.44766.5969.44766.5969-.7461-.2239-.44766.5969v-.7461l-.6715-.2238z"/><path d="m3.50631 10.6694 1.11915.5223c.59689.3731.59689.8953.37305 1.4176-.29844.5969-.7461.8207-1.34298.5223l-1.11915-.5223.22383-.5223 1.11915.5969c.29844.1492.52227 0 .67149-.2984.14922-.2239.07461-.5969-.22383-.7461l-1.11915-.4477z"/><path d="m6.93866 9.47541-.29844.37305-1.86526.22384 1.19377.8207-.29845.4477-1.79064-1.2684.22383-.44767 1.79065-.14922-1.11916-.82072.37305-.44766z"/><path d="m5.89745 7.37117-.34423.39275 1.6271 1.42609.34423-.39275z"/><path d="m8.05798 5.74449-.52227.59688 1.19376 1.26837-.37305.37305-1.26837-1.26837-.52227.52227-.29845-.29844 1.56682-1.49221z"/><path d="m10.8186 5.96887-1.26834.96993-1.34298-1.79064 1.34298-.96994.22383.37305-.89532.59689.29844.37305.82071-.59688.22388.29844-.82076.59688.29844.44766.89532-.59688z"/><path d="m10.8931 3.35786c.6715-.37306 1.2684-.14923 1.5668.37305.2985.52227.1493 1.11915-.5968 1.56681l-.8208.44766-1.0445-1.93986zm.5223 1.79064.2984-.14922c.4477-.29844.4477-.67149.2985-.96993s-.5223-.52227-.97-.29844l-.2984.14922z"/><path d="m14.9965 2.31324c-.3731 0-.5223 0-.7462 0-.1492.07461-.2984.14922-.2238.29844.0746.29844 1.1192-.14922 1.343.59688.1492.37305-.1492.7461-.5969.89532-.373.14922-.5969.07461-.8207.07461l-.1492-.44766c.373.07461.5969.07461.8207 0s.2984-.14922.2984-.29844c-.0746-.37305-1.1191.14922-1.3429-.59688-.1493-.37305.1492-.67149.5968-.82071.2239-.07461.4477-.07461.7461-.07461z"/><path d="m17.4586 1.56665-.7461.14923.3731 1.79064-.5969.07461-.2985-1.71603-.8207.14922-.0746-.37305 2.0891-.44767z"/><path d="m19.9206 3.20789h-.5222l-.2239-.44766-.9699.07461-.1492.44766-.5969.07461.6715-2.23831.5969-.07461zm-1.343-1.56682-.2238.89532.6715-.07461z"/><path d="m21.7859 1.49185h-.7461l-.0746 1.79065-.5223-.07461.0746-1.79065h-.8207v-.37305l2.1637.07461z"/><path d="m23.5768 3.58113-1.5668-.22383.3731-2.1637 1.5668.22383-.0746.37306-1.0446-.14922-.0746.44766.9699.14922-.0746.44766-.9699-.14922-.0746.52227 1.0445.14922z"/><path d="m25.8153 2.53659c-.2984-.22383-.4477-.29845-.5969-.37306-.2238-.07461-.2984 0-.373.07461-.0746.29845.9699.52228.8207 1.26838-.1492.37305-.5223.52227-.97.37305-.373-.07461-.5222-.22383-.6714-.44766l.1492-.44766c.2238.29844.4476.37305.6715.44766.2238.07461.2984 0 .373-.07461.0746-.37305-1.0445-.52227-.8207-1.26838.0746-.37305.4477-.52227.9699-.37305.2239.07461.4477.14922.6715.37305z"/><path d="m28.2771 5.37186-.5222-.22383v-.44767l-.8954-.44766-.2984.29844-.5223-.22383 1.7161-1.56681.5968.22383zm-.4476-2.08909-.6715.59688.5969.29844z"/><path d="m30.8885 5.22231c-.1492-.29844-.3731-.44766-.5969-.59688-.4477-.37305-.8207-.14922-.9699.07461-.2239.29844-.0746.67149.2984.96994.0746.07461.1492.07461.3731.14922l.1492-.22383-.2984-.14922.2238-.29845.7461.44767-.5223.7461c-.2238.07461-.6715-.07461-.8953-.22383-.6715-.44766-.8207-1.11916-.4477-1.64143.2239-.59688.97-.7461 1.6415-.29844.2984.14922.5222.44766.5968.59688z"/><path d="m31.6347 7.83416-1.1938-1.04454 1.4176-1.64143 1.1938 1.04455-.2239.29844-.8207-.67149-.2984.29844.7461.67149-.2238.29844-.8207-.67149-.2985.44766.8207.67149z"/><path d="m33.3509 9.69916-.2984-.29844.2238-1.86526-1.0445.96993-.2985-.44766 1.6415-1.41759.2984.37305-.2238 1.71603.9699-.82071.3731.37305z"/><path d="m34.8428 11.6391c-.2985-.1492-.4477-.2985-.6715-.5969-.4477-.7461-.2239-1.34298.2238-1.64142.5223-.29844 1.1938-.22383 1.6414.52227.1492.22385.2238.52225.2985.74615l-.3731.2984c0-.2984-.0746-.5223-.2238-.7461-.2239-.37306-.6715-.52228-.97-.29845-.2984.22385-.373.67145-.1492 1.04455.1492.2238.3731.373.5969.5223z"/><path d="m36.0364 12.2361.7461-1.2683.2239.5969-.3731.6714.8207.1493.2985.5968-1.4176-.2984-.97.4477-.2238-.5223z"/><path d="m3.27302 20.4771-2.16218.0825.01992.5219 2.16218-.0825z"/><path d="m1.41734 23.9503v-.4476l1.19376-1.4176-1.41759.2238-.07461-.5969 2.16369-.2984.07461.5222-1.11915 1.343 1.26837-.2238.07461.5223z"/><path d="m3.87937 25.9645-.22383-.7461-1.71604.5222-.14922-.5222 1.71604-.5223-.22383-.7461.37305-.1492.59688 2.0891z"/><path d="m3.0587 28.4272-.67149-1.4922 2.01447-.8207.59689 1.4176-.37306.1492-.37305-.8953-.44766.1492.37305.8953-.29844.1492-.44766-.8953-.44766.2238.37305.97z"/><path d="m5.67024 28.725c.22383.3731.07461.7461-.14922.9699-.22383.1493-.44766.0747-.67149-.0746 0 .2239-.14922.4477-.59688 1.0446l-.29844-.5223c.29844-.4477.59688-.7461.44766-.9699l-.07461-.1492-.7461.4476-.29845-.4476 1.86526-1.1192zm-.96993.0746.14922.2239c.07461.1492.22383.2238.37305.1492s.14922-.2239 0-.3731l-.14922-.2238z"/><path d="m5.8945 32.7542-.29844-.373.37305-1.8653-1.11916.8953-.29844-.4476 1.71604-1.343.29844.3731-.29844 1.7906 1.04454-.8207.29844.373z"/><path d="m8.05779 34.7686-.44767-.3731.14923-.4476-.74611-.6715-.44766.2238-.44766-.373 2.1637-.97.44766.4477zm.14922-2.0891-.74611.3731.52228.4476z"/><path d="m10.7435 34.5447-.6715-.5222-1.0445 1.4922-.44767-.3731 1.04455-1.4176-.59688-.4476.22383-.3731 1.71607 1.2684z"/><path d="m11.2164 34.3689-1.1085 1.8582.4485.2675 1.1085-1.8582z"/><path d="m12.1612 37.3052c-.7461-.2984-.8954-1.0445-.6715-1.5668.2238-.4477.8207-.8207 1.5668-.5223.7461.3731.8953 1.0446.6715 1.5669-.1493.5222-.8207.8953-1.5668.5222zm.7461-1.5668c-.3731-.1492-.7461-.0746-.8954.2985-.1492.373 0 .7461.3731.8953.373.1492.7461.0746.8953-.2985.1492-.373 0-.7461-.373-.8953z"/><path d="m16.0407 38.6488-.4476-.1493-.7461-1.6414-.3731 1.343-.5222-.1492.5222-2.1637.5223.1492.7461 1.6414.3731-1.343.5222.1493z"/><path d="m19.0258 39.0218-.5969-.0746-.1492-.4477-.97-.1492-.2238.4477-.5969-.0746 1.1192-2.0891.5968.0746zm-1.1192-1.7906-.4477.8207.6715.0746z"/><path d="m21.1145 39.0215h-1.7161v-2.2383h.5969v1.7906h1.1192z"/><path d="m23.1292 36.5592c.8207-.1492 1.2684.2984 1.4176.8953s-.2238 1.1192-1.0445 1.2684l-.8954.1492-.373-2.1637zm-.1492 1.7906.373-.0746c.5223-.0746.5969-.5222.5969-.8207-.0746-.373-.2984-.6715-.8207-.5223l-.373.0747z"/><path d="m26.7849 37.8274-1.5668.4476-.6715-2.0144 1.5668-.5223.0747.373-.97.2985.1492.4476.97-.2984.0746.373-.8953.2985.1492.5223.9699-.2985z"/><path d="m28.2773 37.1556-.1492.1492-1.9399-1.5668.5223-.2984 1.0445.8953v-1.343l.5223-.2238z"/><path d="m30.963 35.6641-1.4176.8207-1.1191-1.8653 1.343-.8207.2238.3731-.8953.5223.2238.373.8207-.5223.2238.3731-.8207.5223.2985.4476.8953-.5969z"/><path d="m32.6792 34.2458-1.2683 1.0446-1.343-1.7161.373-.2984 1.1192 1.343.8953-.6715z"/><path d="m33.8729 33.1268c-.5222.5969-1.2684.5223-1.6414.1492-.3731-.373-.5223-1.0445.0746-1.716.5969-.5969 1.2684-.5223 1.6414-.1493.3731.3731.5223 1.1192-.0746 1.7161zm-1.2684-1.2684c-.2984.2985-.2984.6715 0 .9699.2985.2985.6715.2239.97-.0746.2984-.2984.2984-.6715 0-.9699-.2985-.2238-.6715-.2238-.97.0746z"/><path d="m33.873 29.6208c.2984-.3731.6714-.3731.9699-.2239.2238.1493.4477.5223.1492.97l-.2238.373.7461.5223-.2985.4477-1.7906-1.2684zm.5222.8207.1492-.2239c.1493-.2238.1493-.2984 0-.4476-.1492-.0746-.2984-.0746-.4476.1492l-.0746.1492z"/><path d="m35.2904 27.083.2239-.373 1.9398.9699-.2238.4477-1.1938-.5969.2985.8207v.0746l-.8953.2238 1.1937.5969-.2238.5223-1.9399-.97.2239-.4476 1.0445-.2238z"/><path d="m38.2747 25.5167-.5223 1.4922-2.0891-.6715.5223-1.4922.3731.0746-.3731 1.0446.4477.1492.2984-.9699.3731.1492-.2985.8953.5223.2238.2984-1.0445z"/><path d="m38.8716 22.7563-.1492.4476-1.5668.8953 1.343.2985-.0746.5223-2.1637-.4477.1492-.4477 1.4922-.8953-1.2684-.2984.0746-.5223z"/><path d="m37.2303 19.9955v.7461l1.716.1492v.5223l-1.7906-.0746v.7461h-.4477l.1492-2.1637z"/><path clip-rule="evenodd" d="m17.1603 21.8607c0-.0746 0-.0746 0 0-.0747-.0746-.0747-.0746-.0747-.0746h-.0746v.0746c-.0746 0-.0746.0747-.1492.0747.0746 0 .0746 0 .1492-.0747.0746.0747.0746.0747.1493 0 0 .0747 0 .0747 0 0 0 0 .0746 0 0 0z" fill-rule="evenodd"/><path clip-rule="evenodd" d="m18.1301 16.7878c.0746 0 .0746 0 0 0 .0746 0 .0746.0746 0 0 .0746.0746.0746.0746.0746.0746v.0746s0 .0746.0746.0746c0 0 0 0 0-.0746s0-.0746-.0746-.0746c0 0 0 0-.0746 0 .0746-.1492 0-.1492 0-.0746z" fill-rule="evenodd"/><path clip-rule="evenodd" d="m18.3542 17.3852c-.0746 0-.0746 0 0 0-.0746.0746-.0747.0746-.0747.0746l-.0746.0746-.0746.0746h-.0746v-.0746s0 0-.0746.0746c0 0 0 0-.0746.0746 0 0 0 0-.0746.0746 0 0-.0746 0-.0746.0746 0 0 0 0-.0746.0746 0 0 0 0-.0746.0746 0 0 0 0-.0747 0h.0747.0746.0746.0746.0746.0746s0 0 0-.0746c0 0 0 0 0-.0746.3731-.4476.3731-.4476.3731-.4476.0746-.0747.0746-.0747.0746-.0747-.0746 0-.0746 0-.0746.0747z" fill-rule="evenodd"/><path clip-rule="evenodd" d="m17.6825 17.459c0 .0746 0 .0746 0 0-.0746.0746-.1492.0746-.1492.1492l-.0747.0746s0 0-.0746 0h.0746c.0747-.0746.0747-.0746.1493-.1492 0 .0746.0746 0 .0746-.0746z" fill-rule="evenodd"/><path clip-rule="evenodd" d="m17.3096 17.6082c-.0746 0-.0746 0 0 0-.0746.0746-.0746.0746-.0746.0746s-.0746 0-.0746.0746v.0746h.0746c.0746-.1492.0746-.1492.0746-.2238s0-.0746 0 0z" fill-rule="evenodd"/><path clip-rule="evenodd" d="m17.011 17.6089c-.0746 0-.0746 0-.0746.0746 0 0 0 0-.0746 0h.0746c.0746 0 .0746 0 .0746-.0746z" fill-rule="evenodd"/><path clip-rule="evenodd" d="m27.9045 17.9067s0 .0752 0 0c-.0751.0752-.0751.0752 0 0 0 .0752-.0751.0752 0 0 0 .0752 0 .0752 0 0h.0752s0 0-.0752 0z" fill-rule="evenodd"/><path clip-rule="evenodd" d="m19.9953 18.503-.0746-.0746s0 0-.0746-.0746c0 0-.0747 0-.0747-.0746 0 0 0 0-.0746 0 0 0-.0746 0-.0746-.0746h-.0746-.0746-.0746-.0746c-.0746 0-.0746 0-.1492 0 .0746 0 .1492 0 .1492.0746.0746 0 .0746.0746.1492.0746v.0746.0746s.0746 0 .0746-.0746c0 0 .0746 0 .0746-.0746h.0746.0746v.0746.0746l-.0746.0746h.0746.0747.0746s.0746-.0746.1492-.0746v.0746.0747c.0746 0 .0746-.0747.1492-.0747h.0746.0746v.0747.0746c.0746 0 .0746-.0746.1492-.0746 0 0 .0747 0 .0747-.0747-.5223-.0746-.5223-.0746-.5969-.0746z" fill-rule="evenodd"/><path clip-rule="evenodd" d="m24.9938 18.2793c-.0744 0-.0744 0 0 0-.0744.0743-.0744.0743-.0744.0743h.0744c0-.0743 0-.0743 0-.0743z" fill-rule="evenodd"/><path clip-rule="evenodd" d="m19.9958 18.8764c-.0746 0-.0746 0-.0746 0h-.0746s-.0746 0-.0746.0746h.0746.0746c.0746 0 .1492-.0746.0746-.0746.0746 0 .1492-.0746.1492-.0746s-.0746 0-.1492.0746z" fill-rule="evenodd"/><path clip-rule="evenodd" d="m15.5935 19.325c-.0746 0-.0746 0 0 0-.0746-.0746-.0746-.0746 0 0-.0746 0-.0746-.0746 0 0-.0746 0-.0746 0-.0746 0-.0746 0-.0746.0746-.1492.0746 0 0 0 0-.0746 0l-.0746.0746v.0746h.0746.0746s.0746 0 .0746-.0746c0 0 .0746 0 .0746-.0746.0746 0 .0746-.0746.0746-.0746z" fill-rule="evenodd"/><path clip-rule="evenodd" d="m15.8918 19.3242c-.0747.0746-.0747.0746-.1493.0746 0 0 0 0-.0746.0746h-.0746c-.0746 0-.1492.0746-.1492.1493h.0746.0746.0746c.0746 0 .0746-.0746.1492-.0746.0747 0 .0747-.0747.1493-.0747-.0746-.0746 0-.0746-.0746-.1492 0 0 .0746 0 0 0z" fill-rule="evenodd"/><path clip-rule="evenodd" d="m15.9664 19.6221c-.0746 0-.0746 0 0 0-.0746 0-.0746 0-.0746 0-.0746 0-.0746.0746-.1492.0746 0 0-.0746 0-.0746.0746.0746 0 .1492-.0746.2984-.1492z" fill-rule="evenodd"/><path clip-rule="evenodd" d="m24.7704 19.6972c-.0746 0-.0746 0 0 0-.1492 0-.1492 0-.2238 0s-.1492 0-.2985 0h-.0746c-.0746 0-.0746 0-.1492 0h-.0746v.0746h.0746.1492.0746.0747.0746.0746c.2238 0 .2984 0 .2984-.0746.0746 0 .0746 0 0 0z" fill-rule="evenodd"/><path clip-rule="evenodd" d="m17.1603 19.6973c-.0746 0-.0746 0 0 0-.0746.0746-.1492.0746-.1492.1492h-.0746s-.0746 0-.0746.0746c0 0-.0746 0-.0746.0746l-.0747.0746h.0747.0746.0746.0746s0 0 .0746-.0746c0-.2238 0-.2238.0746-.2984 0 0 0 .0746 0 0z" fill-rule="evenodd"/><path clip-rule="evenodd" d="m21.8607 19.846c-.0746.0746-.0746.0746-.1492.0746 0 0-.0746 0-.0746.0746 0 0 0 0-.0746 0h.0746.0746s0 0 .0746-.0746h.0746c-.0746 0-.0746 0 0-.0746 0 .0746-.0746.0746 0 0 .0746-.0746.0746-.0746 0 0z" fill-rule="evenodd"/><path clip-rule="evenodd" d="m16.1902 19.8467h-.0746c-.0746.0746-.1492.1492-.2239.2238 0 0 0 0-.0746 0h.0746.0747s.0746 0 .0746-.0746c0 0 0 0 .0746-.0746.0746 0 .0746 0 .0746-.0746z" fill-rule="evenodd"/><path clip-rule="evenodd" d="m17.7569 19.9209s-.0746 0-.0746.0746c0 0 0 0-.0746 0v.0746l.0746-.0746s0 0 .0746-.0746c0 .0746 0 .0746 0 0z" fill-rule="evenodd"/><path clip-rule="evenodd" d="m21.9353 19.9955c-.0747 0-.0747 0-.0747 0-.0746 0-.0746 0-.1492.0746v.0746.0746h.0746s0 0 .0746-.0746c0 0 0 0 .0747-.0746l.1492-.1492c-.0746.0746-.0746.0746-.1492.0746z" fill-rule="evenodd"/><path clip-rule="evenodd" d="m22.2338 20.0701-.0746.0746s0 0-.0746 0c0 0 0 0-.0746 0v.0746h.0746.0746l.0746-.0746.0747-.0746c-.0747.0746-.0747.0746-.0747 0s0 0 0 0c.0747-.0746.0747-.0746 0 0 0-.0746 0-.0746 0 0z" fill-rule="evenodd"/><path clip-rule="evenodd" d="m12.0871 21.264s.0746-.0746 0 0c.0746-.0746.0746-.0746 0 0h.0746s.0747 0 .0747-.0746c0 0 0 0 .0746-.0746 0 0 .0746 0 .0746-.0747l.0746-.0746s0 0 .0746-.0746c0 0 0-.0746.0746-.0746l.0746-.0746.0746-.0746s0 0 0-.0746c0 0 0 0 .0746-.0746s.0746-.0746.1493-.1492l-.0747.0746s0 0-.0746 0c0 0 0 0-.0746.0746l-.0746.0746h-.0746l-.0746.0746-.0746.0746-.0746.0746c-.0746.0746-.0746.0746-.1492.1492-.2239.2985-.1493.2985-.1493.2985z" fill-rule="evenodd"/><path clip-rule="evenodd" d="m26.9341 20.3688-.0746.0746s0 0-.0746 0l-.0746.0746-.0746.0746-.0746.0746c0 .0746-.0746.0746-.1492.0746 0 0 0 0-.0746 0 0 0 0 0-.0747 0 0 0 0 0-.0746 0s-.0746.0746-.1492.0746c.1492 0 .3731 0 .5223.0746h.0746l.0746-.0746h.0746l.1492-.1492h.0747s.0746 0 .0746-.0746h.0746c.0746-.0746.1492-.1492.1492-.1492s0 0 .0746-.0746c0 0 0-.0747.0746-.0747l.0746-.0746.0746-.0746s0 0 .0746-.0746c0 0-.0746 0-.0746.0746 0 0 0 0-.0746.0746v.0746s-.0746 0-.0746.0747c0 0 0 0-.0746.0746l-.0746.0746s0 0-.0746 0l-.0746.0746-.0746.0746s0 0-.0746 0c0 0-.0001 0-.0747 0v-.0746c.0746-.0746.0746-.0746.1493-.0746 0 0 .0746 0 .0746-.0746 0 0 .0746 0 .0746-.0746 0 0 0 0 .0746-.0747h.0746l.0746-.0746s0 0 0-.0746c-.5223.2985-.5223.2985-.5223.2239.0746 0 .0746 0 0 0 .0746-.0747.0746 0 0 0 .0746-.0747.0747-.0747.0747-.0747s-.0001.0747-.0747.0747z" fill-rule="evenodd"/><path clip-rule="evenodd" d="m26.1136 20.3686-.0746.0746-.0746.0746s0 0-.0746.0746c0 0 0 0-.0747 0l-.0746.0746c-.0746.0746-.1492.0746-.1492.1492s-.0746.0746-.1492.0746l-.0746.0746s-.0746 0-.0746.0746c0 0 0 0-.0746.0747h.0746.0746.0746.1492.1492s.0746 0 .0746-.0747c.0747-.0746.0747-.0746.0747-.0746.0746 0 .0746-.0746.0746-.0746s0 0 .0746-.0746l.0746-.0746s.0746 0 .0746-.0746l.0746-.0746s0-.0746.0746-.0746h.0746s0 0 0-.0746c0 0 0 0-.0746.0746l-.0746.0746-.0746.0746-.0746.0746s0 0-.0746 0c0 0 0 0-.0746.0746 0 0 0 0-.0746.0746l-.0747.0746h-.0746-.0746c-.0746 0-.1492 0-.1492.0746 0 0 0 0-.0746 0 0 0 0 0 .0746-.0746 0 0 0 0 .0746-.0746h.0746l.0746-.0746s0 0 .0746-.0746c.0747-.0746.0747-.0746.1493-.1492l.0746-.0746.0746-.0746.0746-.0746s0 0 .0746-.0747c-.2238.1493-.2238.1493-.1492.0747 0 .0746 0 .0746 0 0 .0746 0 .0746 0 0 0z" fill-rule="evenodd"/><path clip-rule="evenodd" d="m12.6838 20.3687c-.0747 0-.0747 0 0 0-.0747.0746-.0747.0746-.0747.0746s0 0-.0746 0c0 0 0 0-.0746 0 0 0 0 0-.0746 0h-.0746l-.0746.0746s0 0-.0746 0l-.0746.0746s0 0-.0746.0746h-.0747l-.0746.0746v.0746h.0746.0747.0746.0746s.0746 0 .0746-.0746h.0746.0746s0-.0746.0746-.0746c0 0 0 0 .0746-.0746l.0746-.0746c0-.0746.0747-.0746.0747-.0746-.0747 0 0 0 0-.0746.0746 0 .0746 0 0 0z" fill-rule="evenodd"/><path clip-rule="evenodd" d="m20.3683 20.4434c-.0746 0-.0746.0746-.1493.0746 0 0-.0746 0-.0746.0746 0 0 0 0-.0746.0746v.0746h.0746.0746l.0747-.0746.0746-.0746c-.0746 0 0-.0746 0-.1492.0746 0 0 .0746 0 0 .0746 0 .0746 0 0 0z" fill-rule="evenodd"/><path clip-rule="evenodd" d="m27.7551 20.4434s0 .0746 0 0c0 .0746 0 .0746 0 0-.0746.0746-.0746.0746 0 0-.0746.0746-.0746.0746-.0746.0746s-.0746 0-.0746.0746l-.0747.0746v.0746.0746s0 0 .0747-.0746c0 0 0 0 .0746-.0746l.0746-.0746c-.0746-.0746-.0746-.0746 0-.1492 0 .0746-.0746.0746 0 0 0 0 0 .0746 0 0z" fill-rule="evenodd"/><path clip-rule="evenodd" d="m12.0867 20.5181c-.0746 0-.0746 0-.0746 0s0 0-.0746.0746c0 0 0 0-.0747.0746-.0746 0-.0746.0746-.1492.0746 0 0-.0746 0-.0746.0746 0 0 0 0-.0746.0746 0 0 0 0-.0746.0746l-.0746.0746-.0746.0746h.0746c.0746 0 .0746 0 .0746-.0746 0 0 .0746 0 .0746-.0746 0 0 0 0 0-.0746l.0746-.0746.0746-.0746.0746-.0746.0746-.0746c.0747 0 .1493 0 .2239-.0746z" fill-rule="evenodd"/><path clip-rule="evenodd" d="m28.0535 20.5923c-.0746 0-.0746 0 0 0-.0746.0746-.0746 0 0 0-.0746.0746-.0746.0746-.0746.0746l-.0746.0746s0 .0746-.0747.0746l-.0746.0746-.0746.0746c-.0746.0746-.1492.0746-.2238.1493l-.0746.0746s0 0-.0746.0746h.0746.0746.0746.0746l.0746-.0746h.0746s0 0 0-.0746c.2985-.4477.2985-.4477.2985-.5223z" fill-rule="evenodd"/><path clip-rule="evenodd" d="m27.7547 21.339c.0746 0 .0746-.0746.1492-.0746l.0746-.0747.0746-.0746s0 0 0-.0746l-.0746.0746s0 0-.0746 0c0 0-.0746 0-.0746.0746 0 0 0 0-.0746 0l-.0746.0747s-.0746 0-.0746.0746c0 0-.0746 0-.0746.0746-.0746 0-.0746.0746-.1493.0746l-.0746.0746s0 0-.0746.0746c.3731-.2238.4477-.2984.5223-.2984z" fill-rule="evenodd"/><path clip-rule="evenodd" d="m20.6671 20.5923c-.0746 0-.0746.0746-.1492.0746 0 0 0 0-.0746 0 0 0 0 0-.0746 0 0 0-.0746 0-.0746.0746 0 0 0 0-.0746 0h.0746.0746.0746.0746.0746s0 0 .0746-.0746c0 0 0 0 .0747-.0746-.1493.0746-.1493.0746-.0747 0 0 .0746 0 .0746 0 0 0 0 0 .0746 0 0z" fill-rule="evenodd"/><path clip-rule="evenodd" d="m20.8163 20.742s-.0746 0-.0746.0746c0 0 0 0-.0746 0 0 0 0 0-.0746 0 0 0 0 0-.0746.0746l-.0746.0746h-.0746c.0746 0 .0746.0746.1492.0746h.0746l.0746-.0746.0746-.0746c.0746-.0746.0746-.0746.0746-.1492.0746-.0746.0746-.0746 0 0 0 0 .0746 0 0 0z" fill-rule="evenodd"/><path clip-rule="evenodd" d="m27.3819 20.7417c0 .0746-.0746.0746 0 0-.0746.0746-.0746.0746-.0746.0746s-.0746 0-.0746.0746c0 0 0 0-.0746 0l-.0747.0746s.0001 0-.0746.0746l-.0746.0747s-.0746 0-.0746.0746h.0746.0746.0746.0747s0 0 .0746-.0746l.0746-.0747s0 0 0-.0746c.0746-.1492.0746-.1492.0746-.2238z" fill-rule="evenodd"/><path clip-rule="evenodd" d="m27.9787 21.4136c0 .0746 0 .0746 0 0 .0746 0 .1492-.0746.2238-.0746l.0746-.0746s0 0 .0746-.0747l.0746-.0746.0746-.0746s0 0-.0746 0l-.0746.0746-.0746.0746s0 0-.0746 0c0 0 0 0-.0746 0 0 0-.0746 0-.0746.0747-.0746.0746-.1492.0746-.1492.1492.0746-.0746.0746-.0746.0746 0-.0746 0-.0746 0 0 0-.0746-.0746-.0746 0-.0746 0z" fill-rule="evenodd"/><path clip-rule="evenodd" d="m21.0398 20.8904c-.0746 0-.0746.0746-.0746.0746s0 0-.0746 0c0 0-.0746 0-.0746.0747 0 0 0 0-.0746.0746l-.0747.0746s.0747.0746.0747 0c0 0 0-.0746.0746-.0746 0 0 0 0 .0746-.0746l.0746-.0747s0 0 .0746-.0746c0-.0746 0-.0746 0 0z" fill-rule="evenodd"/><path clip-rule="evenodd" d="m21.1892 21.0405s-.0746 0-.0746.0746c0 0-.0746 0-.0746.0746 0 0 0 .0747-.0746.0747 0 0 0 0-.0746 0 0 0 0 0-.0746 0 0 0 .0746 0 .0746.0746h.0746.0746.0746s0 0 .0746-.0746c0-.1493 0-.1493 0-.2239 0 0 0 .0746 0 0 .0746 0 .0746 0 0 0z" fill-rule="evenodd"/><path clip-rule="evenodd" d="m21.637 21.1147c-.0746.0747-.0746.0747-.0746.0747s-.0746 0-.0746.0746c0 0-.0746 0-.0746.0746 0 0 0 0-.0746.0746 0 0 0 0-.0746 0 0 0 0 0-.0746 0 0 0 0 0-.0747 0v.0746h.1493.0746.0746v.0746s0 0-.0746.0746c0 0 0 0-.0746 0 0 0 0 0-.0746 0h.0746.1492.0746v.0746c0 .0746-.0746.0746-.0746.0746s0 0-.0746 0h.0746.0746.0746s0 0 .0746-.0746l.0746-.0746.0746-.0746s0 0 0-.0746c0 0 0 0-.0746 0h-.0746s0 0-.0746 0c0 0 0-.0746.0746-.0746 0 0 0-.0746.0746-.0746 0 0 0 0 0-.0746 0 0 0 0 0-.0746 0 0 0 0 0-.0747l-.0746.0747-.0746.0746s0 0-.0746.0746c0 0 0 0-.0746 0h-.0746s0 0 0-.0746c0 0 0 0 0-.0746.2238 0 .2238 0 .2984-.0747z" fill-rule="evenodd"/><path clip-rule="evenodd" d="m19.2492 19.3988c.0746 0 .0746 0 0 0 0 .0746 0 .0746-.0746.0746 0 0 0 0 .0746.0747h.1492c.0746 0 .1492-.0747.2238-.0747v.0747s0 0-.0746 0v.0746h.0746.0746.0747s0 .0746-.0747.0746c0 0-.0746 0-.0746.0746v.0746.0746.0746h-.0746s0 0-.0746 0c0 0-.0746 0-.0746.0746 0 0 0 0-.0746 0 0 0 0 0-.0746 0 0 0 0 0-.0746 0 0 0-.0746 0-.0746.0746 0 0 0 0-.0747 0 0 0 0 0-.0746 0 0 0 .0746 0 .0746-.0746l.0747-.0746.0746-.0746s0 0 .0746-.0746h.0746s0 0 0-.0746v-.0746c-.0746 0-.0746.0746-.1492.0746 0 0 0 0-.0746 0 0 0-.0747 0-.0747.0746-.0746.0746-.1492.0746-.2238.1492v-.0746l.0746-.0746.1492-.1492s0 0 0-.0746c0 0 0 0 0-.0746 0-.0747 0-.0747 0-.0747-.0746 0-.0746.0747-.1492.0747s-.0746.0746-.1492.0746c0 0 0 0-.0746 0v-.0746-.0747h-.0746-.0746-.0746.0746.0746c.0746 0 .0746-.0746.1492-.0746s.1492-.0746.1492-.0746c-.0746.0746-.0746.0746-.0746.1492h.0746.0746c.2239 0 .2239 0 .2985-.0746z" fill-rule="evenodd"/><path clip-rule="evenodd" d="m19.8463 19.9961s0 .0746 0 0c-.0746.0746-.0746.0746-.0746.1492 0 0 0 0-.0746.0746 0 0 0 0-.0746.0746 0 0 0 0-.0746 0 0 0 0 0-.0746.0746 0 0 0 0-.0746 0 0 0 0 0-.0746.0747 0 0 0 0-.0746 0h-.0746s-.0747 0-.0747.0746c-.0746 0-.0746 0-.0746.0746l.0746-.0746.0747-.0746s0 0 0-.0747c0 0 .0746 0 .0746-.0746.5222-.2238.5222-.2984.5968-.2984z" fill-rule="evenodd"/><path clip-rule="evenodd" d="m14.6981 20.0703c-.0746.0746-.0746.0746-.1492.0746 0 0 0 0-.0746.0746 0 0 0 0-.0746 0 0 0 0 0 .0746-.0746h.0746l.0746-.0746h.0746c-.0746 0-.0746 0 0 0z" fill-rule="evenodd"/><path clip-rule="evenodd" d="m13.803 20.144c-.0746.0747-.0746.0747-.1492.1493s-.0746.0746-.1492.1492c0 0 0 0-.0747.0746 0 0 0 0-.0746.0746l-.0746.0746-.0746.0746s-.0746 0-.0746.0746c0 0 0 0-.0746.0746 0 0 0 0-.0746 0 0 0 0 0-.0746 0 0 0 0 0-.0746.0747 0 0-.0746 0-.0746.0746v.0746h.0746l.0746-.0746.0746-.0746h.0746l.0746-.0747.0746-.0746s0 0 .0746-.0746l.0746-.0746s.0746 0 .0746-.0746c0 0 0 0 .0747-.0746h.0746l.0746-.0746c0 .0746-.0746.0746-.1492.1492l-.0747.0746-.0746.0746s-.0746 0-.0746.0746c-.0746.0746-.0746.0746-.1492.1493 0 0-.0746 0-.0746.0746 0 0 0 0-.0746.0746 0 0 0 0-.0746 0l-.0746.0746-.0746.0746s0 0-.0747 0c0 0 0 0-.0746 0h-.0746s0 0-.0746 0c-.1492 0-.373 0-.5223 0h.0747.0746s0-.0746.0746-.0746c.0746-.0746.1492-.1492.2238-.1492l.0746-.0746h.0746s0 0 .0746-.0747c0 0 0 0 .0746-.0746h.0747s0 0 .0746-.0746h.0746.0746.0746c.6715-.5969.6715-.5969.7461-.5969z" fill-rule="evenodd"/><path clip-rule="evenodd" d="m25.2929 20.6672c0-.0746.0746-.0746 0 0 .0746-.0746.0746-.0746.0746-.0746h.0746l.0747-.0746s0-.0746.0746-.0746l-.0746.0746s0 .0746-.0747.0746c0 0 0 0-.0746.0746 0 0 0 0-.0746 0 0 0-.0746 0-.0746.0746h-.0746-.0746c.2984-.1492.2984-.0746.2238-.0746z" fill-rule="evenodd"/><path clip-rule="evenodd" d="m11.3408 20.7417c-.0746 0-.0746 0-.0746 0s0 0-.0746 0c0 0 0 0-.0747.0746-.0746 0-.0746.0746-.1492.0746 0 0 0 0-.0746 0 0 0 0 0-.0746 0 0 0 0 0-.0746.0746v.1493h.0746s0 0 .0746-.0747c0 0 0 0 0-.0746 0 0 0 0 0-.0746.4477-.0746.4477-.0746.4477-.1492.0746 0 .0746 0 0 0z" fill-rule="evenodd"/><path clip-rule="evenodd" d="m29.1726 21.7114c-.0746 0-.1492 0-.2238 0s-.0746 0-.1493 0c-.0746 0-.0746 0-.1492 0h-.0746-.0746-.0746c-.0746 0-.0746 0-.1492 0h-.0746c-.0747 0-.1493 0-.2239 0s-.1492 0-.2238 0-.1492 0-.2984 0c-.0747 0-.1493 0-.2239 0h-.0746s0 0-.0746 0-.1492 0-.1492 0c-.0746 0-.1492 0-.1492 0-.0746 0-.1493 0-.2239 0s-.1492 0-.2238 0c-.2238 0-.373 0-.5969 0-.0746 0-.1492 0-.2984 0-.0746 0-.0746 0-.1492 0h-.0746s0 0-.0747 0h-.0746-.0746s0 0-.0746 0h-.0746-.0746c-.0746 0-.1492 0-.1492 0s0 0 0-.0746c0 0 0 0 .0746-.0746h.0746.0746s0 0 .0746-.0746l.0746-.0746.0746-.0746c-.0746 0-.1492.0746-.2238.0746 0 0 0 0-.0746 0s-.0746.0746-.0746.0746 0 0-.0746.0746l-.0746.0746c-.0747 0-.0747.0746-.1493.0746l-.1492.0746s0 0 0-.0746l.0746-.0746.0746-.0746.0746-.0746c.0747 0 .0747-.0746.1493-.0746s.0746-.0746.0746-.0746 0 0 0-.0746c0 0 0 0 .0746-.0746l.0746-.0746s-.0746 0-.0746.0746l-.0746.0746v.0746l-.0746.0746s0 0-.0746.0746c0 0 0 0-.0747 0l-.0746.0746s0 0-.0746 0l-.0746.0746s0 0-.0746 0h-.0746s0 0-.0746 0c0 0 0 0 .0746-.0746h.0746s0 0 .0746-.0746l.0746-.0746.0746-.0746s0 0 .0746-.0746c0 0 0 0 0-.0746 0 0-.0746 0-.0746.0746h-.0746l-.0746.0746s0 0-.0746 0c0 0 0 0-.0746 0-.0746.0746-.1492.0746-.2238.1492l-.0746.0746s0 0-.0747 0c0 0 .0747 0 .0747-.0746 0 0 0-.0746.0746-.0746l.0746-.0746s0 0 .0746-.0746c0 0 0 0-.0746 0s-.0746.0746-.1492.0746l-.0747.0746h-.0746v-.0746s0 0 .0746-.0746c0 0 0 0 0-.0746h.0747c0-.0746.0746-.0746.1492-.1493 0 0 0 0 0-.0746h-.0746s-.0746 0-.0746.0746c0 0 0 0-.0747 0h-.0746s0-.0746.0746-.0746c0 0 0 0 .0747-.0746 0 0 0 0 0-.0746 0 0 0 0-.0747 0 0 0-.0746 0-.0746.0746 0 0 0 0-.0746 0 0 0 0 0-.0746 0s-.0746 0-.0746-.0746l.0746-.0746.0746-.0746s0 0-.0746 0c0 0 0 0-.0746 0v.0746.0746.0746.0746.0746.0747.0746.0746.0746.0746.0746.0746.0746.0746.0746.0747s0 0-.0746.0746c0 0 0 0-.0746 0 0 0 0 0-.0746 0 0 0 0-.0746.0746-.0746 0 0 0 0 .0746-.0747v-.0746s0 0-.0746 0h-.0746v-.0746-.0746s0 0 0-.0746c0 0 0 0 0-.0746 0 0-.0746 0-.0746.0746h-.0746-.0747s0-.0746.0747-.0746l.0746-.0746h-.0746-.0747s0 0-.0746 0c0 0 0 0 0-.0746s0-.0746-.0746-.1492c0 0 0-.0747-.0746-.0747 0-.0746-.0746-.0746-.0746-.1492 0 0 0 0 0-.0746 0 0 0 0 0-.0746v-.0746s0 0 0-.0746l.0746-.0746h-.0746s0-.0746 0-.1492c0 0 0 0 .0746-.0747h.0746l.0746-.0746v-.0746s0 0 0-.0746c-.0746.0746-.0746.0746-.1492.1492l-.0746.0746-.0746.0747c0-.0747-.0746-.0747-.0746-.1493 0 0 .0746 0 .0746-.0746.0746 0 .0746-.0746.1492-.0746l.0746-.0746s0 0 .0746-.0746v.0746.0746c0 .0746-.0746.0746-.0746.1492v.0746.0747.0746-.0746-.0747s0-.0746.0746-.0746c0 0 0 0 0-.0746 0 0 0 0 0-.0746v-.0746s0 0 0-.0746c0 0 0 0 0-.0746 0 0 0 0 0-.0746 0 0 0 0 0-.0746v-.0747-.0746-.0746s0-.0746-.0746-.0746c0 0 0-.0746-.0746-.0746l-.0746-.0746-.0746-.0746c0 .0746.0746.0746.0746.1492s.0746.0746.0746.1492c0 0 0 .0746.0746.0746v.0746.0747.0746.0746c.0746 0 .0746-.0746.1492-.0746v.0746.0746.0746s0 .0746-.0746.0746l-.0746.0746-.0746.0746-.0746.0746s0 .0747-.0746.0747l-.0746-.0747s0 0 .0746-.0746l.0746-.0746s0 0-.0746 0-.0746.0746-.1492.0746l-.0746-.0746h.0746l.0746-.0746h.0746l.0746-.0746s0-.0746.0746-.0746c0 0 0 0 0-.0746 0 0 0 0 0-.0746-.0746.0746-.0746.0746-.0746.1492 0 0-.0746 0-.0746.0746-.0746 0-.0746.0746-.1492.0746 0 0-.0746 0-.0746.0746 0 0 0 0-.0746 0 0 0 0 0-.0747 0 0 0 0 0-.0746 0 0 0 0 0-.0746 0h.0746s0 0 0-.0746c0 0 0 0 0-.0746 0 0 0 0-.0746 0-.0746.0746-.0746.0746-.1492.1492l-.0746.0746c-.0746.0746-.0746.0746-.1492.1493 0 0 0 0-.0746 0 0 0 0 0-.0747 0h-.0746c0-.0747.0746-.0747.0746-.0747h.0747l.0746-.0746c-.0746 0-.0746.0746-.1493.0746 0 0-.0746 0-.1492.0747-.0746 0-.0746.0746-.1492.0746h-.0746s0 0-.0746 0c0 0 0 0-.0746 0 0-.0746 0-.0746.0746-.0746 0 0 .0746 0 .0746-.0747-.0746 0-.0746 0-.1492.0747 0 0-.0746 0-.0746.0746 0 0 0 0-.0746 0-.0747 0-.0747.0746-.1493.0746 0 0 0 0 0-.0746 0 0 0 0 .0746-.0746 0 0 0 0 .0747-.0747-.0747 0-.0747.0747-.1493.0747 0 0 0 0-.0746 0h-.0746s0 0-.0746 0c0 0 0 0-.0746 0 0 0 0 0 0-.0747 0 0 0 0 0-.0746 0 0 0 0-.0746 0h-.0746c-.0746 0-.0746 0-.1492 0v-.0746h.0746.0746c-.0746 0-.1492.0746-.2239.0746h-.0746-.0746s0 0-.0746 0c0 0 0 0-.0746 0 0 0 0 0-.0746 0 0 0-.0746 0-.0746-.0746 0 0 0 0-.0746 0l-.0746-.0746s0 0-.0746 0v-.0746l.0746-.0746s0 0 0-.0746c0 0 0 0 0-.0746 0 0 0 0-.0746 0 0 0 0 0-.0747 0 0 0 0 0-.0746 0 0 0 0 0-.0746 0h-.0746v-.0746s-.0746 0-.0746.0746c0 0-.0746 0-.0746.0746h-.0746s0 0-.0746 0c0 0 0 0-.0746 0 0 0 0 0-.0747 0 0 0 0 0-.0746 0l.0746-.0746s0 0 0-.0746c0 0 0 0 .0747-.0747 0 0-.0747 0-.0747.0747 0 0-.0746 0-.0746.0746l-.0746.0746h-.0746s0 0-.0746 0v-.0746c.0746-.0746.0746-.0746.0746-.1493-.0746 0-.0746.0747-.1492.0747s-.0746.0746-.1492.0746-.0746.0746-.1492.0746h-.0747v-.0746s0 0 .0747-.0746v-.0747s0-.0746.0746-.0746c0 0 0 0 .0746-.0746h-.0746s-.0746 0-.0746.0746c0 0 0 0-.0747 0 0 0 0 0-.0746.0746 0 0 0 0-.0746 0h-.0746-.0746l.0746-.0746s0 0-.0746 0h-.0746c-.0746 0-.0746.0746-.1492.0746h-.0746s0 0 0-.0746l.0746-.0746h.0746s0 0 .0746-.0746c-.0746 0-.1492.0746-.2238.0746 0 0 0 0 0-.0746v-.0746-.0746.1492.0746s0 .0746-.0746.0746c0 0 0 .0746-.0747.0746 0 0 0 0-.0746.0747 0 0 0 0-.0746 0 0 0-.0746.0746-.1492.0746 0 0-.0746.0746-.1492.0746 0 0 0 0-.0746 0h-.0746s0 0-.0746 0c-.0747 0-.1493 0-.2985 0h-.0746-.0746-.0746-.0746s0 0-.0746 0c0 0 0 0-.0747 0-.0746 0-.0746 0-.1492 0h-.0746s-.0746 0-.0746-.0746c0 0 0 0-.0746 0 0 0 0 0-.0746 0v-.0746-.0747s0 0 0-.0746c0 0 0 0 0-.0746v-.0746h.0746.0746.0746c.0746 0 .0746.0746.1492.0746h.0746.1493.0746.0746.0746.0746.0746s.0746 0 .0746-.0746c0 0 .0746 0 .0746-.0746s0-.1492.0747-.1492v-.0746s0 0 .0746-.0746h.0746.0746.0746.0746.0746.0746.0746.0746c.0747 0 .0747 0 .1493.0746h.0746.0746c.0746 0 .1492 0 .2238.0746h.0746.0746.0746.0747.1492.1492.2238.1492.0747.1492.0746.1492.0746.0746.0746.0747c.0746 0 .0746.0746.1492.0746h.0746.0746.0746.0746v.0746s0 0-.0746.0746h.0746.0746.0746.0746v.0746h.0747.0746.0746.0746.0746s.0746 0 .0746.0746c0 0 0 .0746-.0746.0746h.0746s.0746 0 .0746-.0746h.0746.0746v.0746.0747h.0746.0747.0746v.0746.0746h.1492.1492.0746.0746.0746s0 0 .0746.0746v.0746s0 .0746.0747.0746c0 0 0 0 .0746.0746 0 0 0 0 0-.0746v-.0746-.0746c0-.0746 0-.0746-.0746-.0746 0 0 0-.0746-.0747-.0746 0 0 0 0 0-.0746h.0747.0746.0746.0746.0746v.0746.0746.0746h.0746s.0746 0 .0746-.0746c0 0 .0746 0 .0746-.0746h.0746.0747s0 0-.0747.0746l-.0746.0746h.0746.0747.0746.0746s.0746 0 .0746-.0746h.0746.0746.0746v.0746.0746s0 0-.0746.0746l-.0746.0746s0 0-.0746.0746c0 .0746-.0746.0746-.0746.0746l.0746-.0746.0746-.0746c.0746 0 .0746-.0746.0746-.0746l.0746-.0746h.0746s0 0 .0746-.0746l.0746-.0746c.0747 0 .0747-.0746.1493-.0746s.0746 0 .1492-.0746h.0746v.0746s0 0-.0746.0746c0 0 0 .0746-.0746.0746l-.0746.0746-.0746.0746s0 0-.0747.0746c.0747-.0746.1493-.0746.2239-.0746h.0746l.0746-.0746s.0746 0 .0746-.0746c0 0 .0746 0 .0746-.0746 0 0 .0746 0 .0746-.0746h.0746.0746.0747s.0746 0 .0746-.0746h.0746.0746v.0746l-.0746.0746s-.0746 0-.0746.0746c.0746 0 .0746-.0746.1492-.0746h.0746.0746.0746s.0746 0 .0746-.0746c0 0 .0746 0 .0746-.0746h.0746.0747.0746.0746.0746s0 .0746-.0746.0746c0 0 0 0-.0746.0746h.0746s.0746 0 .0746-.0746h.0746.0746l.0746-.0746h.0746.0746v.0746h.0747l.0746-.0746h.0746.0746c.0746-.0747.1492 0 .2238 0h.0746v.0746s0 0-.0746 0c0 0 0 0-.0746.0746h.0746.0746s.0746 0 .0746-.0746h.0746.0747s.0746 0 .0746-.0746h.0746.0746.0746.0746.0746.0746.1492.1493.0746.2984.1492.1493.1492.0746v.0746s0 0-.0746 0l-.0746.0746h.0746s.0746 0 .0746-.0746c.0746 0 .0746-.0746.1492-.0746 0 0 .0746-.0747.1492-.0747h.0746l.0747-.0746v-.2984h-.0747s0 0-.0746 0h-.0746c-.0746 0-.1492 0-.1492 0-.1492 0-.2984 0-.4477 0-.0746 0-.2238 0-.2984 0h-.0746-.0746-.0746c-.0746 0-.0746 0-.1493 0-.0746 0-.1492 0-.2238 0 0 0-.0746 0-.1492 0h-.0746c-.0746 0-.1492 0-.2238 0 0 0 0 0-.0747 0h-.0746-.0746c-.0746 0-.0746 0-.1492 0s-.1492 0-.1492 0 0 0-.0746 0h-.0746-.0746-.0747c-.1492 0-.2984 0-.4476 0h-.0746c-.0746 0-.1493 0-.2239 0s-.0746 0-.1492 0-.0746 0-.1492 0h-.0746c-.0746 0-.1492 0-.1492 0h-.0746-.0747-.0746c-.1492 0-.2984 0-.5222 0 0 0 0 0-.0746 0 0 0 0 0-.0747 0h-.0746-.0746s0 0-.0746 0c0 0 0 0-.0746 0s-.2238 0-.2984 0h-.0746-.0747-.0746s0 0-.0746 0h-.0746-.0746s0 0-.0746 0h-.0746s0 0-.0746 0c0 0 0 0-.0746 0 0 0 0 0-.0747 0 0 0 0 0-.0746 0 0 0 0 0-.0746 0h-.0746s0 0-.0746 0h-.0746-.0746s0 0-.0746 0-.0746 0-.1492-.0746c0 0 0 0-.0747 0h-.0746s0 0-.0746 0h-.0746-.0746-.0746-.0746-.0746s0 0-.0746 0h-.0746s0 0-.0747 0c-.0746 0-.1492 0-.2238-.0746 0 0 0 0-.0746 0 0 0 0 0-.0746 0h-.0746s0 0-.0746 0c0 0 0 0-.0746 0h-.0746-.0747-.0746c-.0746 0-.0746 0-.1492 0h-.0746c-.0746 0-.0746 0-.1492 0 0 0 0 0-.0746 0s-.0746 0-.0746 0c-.0747 0-.0747 0-.1493 0s-.0746 0-.1492 0h-.0746s0 0-.0746 0-.1492 0-.1492 0h-.0746s0 0-.0746 0c0 0 0 0-.0747 0 0 0 0 0-.0746 0s-.0746 0-.1492 0-.1492 0-.2984 0c0 0 0 0-.0746 0 0 0 0 0-.0746 0 0 0 0 0-.0747 0 0 0 0 0-.0746 0-.0746.0746-.1492.0746-.2238.1492 0 0 0 0-.0746 0 0 0 0 0-.0746 0s-.0746.0746-.1492.0746-.1493.0746-.2239.0746-.1492 0-.2238.0746c-.0746 0-.1492 0-.2238 0v.0746.0746.0747.0746s0 0-.0746 0c0 0 0 0-.0747 0 0 0 0 0-.0746 0h-.0746-.0746s0 0-.0746 0-.1492 0-.2238 0h-.0746c-.1493 0-.2239 0-.2985 0 0 0 0 0-.0746 0s-.1492 0-.2238 0h-.0746-.0746s-.0746 0-.1493 0h-.0746-.0746s0 0-.0746 0h-.0746c-.0746 0-.2238 0-.2984 0h-.0746-.0747c-.0746 0-.0746 0-.1492 0h-.0746c-.0746 0-.0746 0-.1492 0s-.1492 0-.2238 0c-.0747 0-.1493 0-.1493 0-.0746 0-.1492 0-.1492 0h-.0746c-.0746 0-.0746 0-.1492 0s-.1492 0-.1492 0c-.0746 0-.0746 0-.0746 0s0 0-.0747 0c-.1492 0-.2238 0-.2984 0s-.1492 0-.2238 0h-.0746-.0746c-.0747 0-.1493 0-.2985 0h-.0746v.2984s.0746 0 .0746-.0746h.0746.0746.0746.0747c0 .0746 0 .0746-.0747.0746l-.0746.0746s-.0746 0-.0746.0746h.0746.0746s.0747 0 .0747-.0746h.0746s.0746 0 .0746-.0746h.0746v.0746s0 .0746-.0746.0746h.0746s.0746 0 .0746-.0746l.0746-.0746h.0746.0746s.0746 0 .0746-.0746h.0746.0747v.0746s-.0747 0-.0747.0746c0 0 0 0-.0746 0-.0746.0746-.0746.0746-.1492.1492h.0746.0746.0746c.0747 0 .0747-.0746.1493-.0746h.0746.0746.0746.0746l-.0746.0746c-.0746 0-.0746.0747-.1492.0747h.0746.0746s.0746 0 .0746-.0747c0 0 .0746 0 .0746-.0746h.0746.0746c0 .0746-.0746.0746-.0746.0746s0 0-.0746 0v.0747.0746c.0746 0 .0746-.0746.1492-.0746h.0747.0746.0746.0746.0746.0746.0746s0 0-.0746.0746c0 0 0 0-.0746.0746v.0746c.0746 0 .0746 0 .1492-.0746h.0746c.0746 0 .0746-.0746.1492-.0746h.0747.0746.0746.0746.0746.1492.8207.3731v.0746h.0746.0746.0746.0746.0746.0746v.0746.0746h.0746.0747.0746.0746s0 .0746-.0746.0746h.0746.0746.0746.0746.0746.0746v.0746c.0746 0 .0746-.0746.1493-.0746 0 0 .0746 0 .0746-.0746h.0746.0746v.0746s0 0-.0746.0746c0 0 0 0-.0746.0746h.0746.0746c.0746 0 .0746 0 .1492-.0746h.0746v.0746c0 .0746-.0746.0746-.0746.0746v.0746c.0746 0 .0746-.0746.1492-.0746 0 0 .0746 0 .0746-.0746.0746 0 .0746-.0746.1493-.0746 0 0 0 0-.0747 0 0 0-.0746 0-.0746.0746 0 0 0 .0746-.0746.0746.0746 0 .0746 0 .1492-.0746.0747 0 .0747-.0746.1493-.0746h.0746.0746s0 .0746-.0746.0746c0 0-.0746 0-.0746.0746 0 0 0 0-.0746.0746h.0746.0746.0746.0746c.0746 0 .0746-.0746.1492-.0746h.0746s.0746 0 .0746-.0746l.0746-.0746s.0747 0 0 .0746c0 0 0 0-.0746.0746 0 0 0 .0746-.0746.0746h.0746.0746.0747.0746.0746.0746.0746v.0747s.0746 0 .0746-.0747h.0746.0746.0746.0746.0747.0746.0746.1492.1492.1492.1493.0746.0746c.0746 0 .0746 0 .1492.0747h.0746c.0746 0 .0746 0 .1492.0746h.0746.0747s0 0 .0746.0746c0 0 0 0 .0746.0746h.0746.0746s.0746 0 .0746.0746h.0746.0746.0746.0746c.0747 0 .0747.0746.1493.0746s.0746.0746.1492.0746c0 0 .0746 0 .0746.0746 0 0 .0746 0 .0746.0746h.0746s.0746 0 .0746.0746c0 0 .0746 0 .0746.0747 0 0 .0746 0 .0746.0746h.0747s0 0 .0746.0746l.0746.0746s.0746 0 .0746.0746v.0746.0746.0746s0 .0746.0746.0746v.0746.0747.0746.0746.0746.0746.0746.0746c0 .0746 0 .0746.0746.1492v.0747.0746.0746.0746.1492s0 .0746-.0746.0746c0 0-.0746 0-.0746.0746h-.0746s0 0-.0746 0h-.0746-.0747.0747c.0746 0 .0746-.0746.1492-.0746 0 0 .0746 0 .0746-.0746 0 0 0 0 .0746-.0746 0 0 0 0 .0746-.0746v-.0746h-.0746-.0746s-.0746 0-.0746.0746c0 0-.0746 0-.0746.0746h-.0746v-.0746h.0746s.0746 0 .0746-.0746c0 0 .0746 0 .0746-.0746 0 0 .0746 0 .0746-.0746 0 0 0 0 0-.0747-.0746 0-.0746 0-.0746 0s0 0-.0746 0c0 0 0 0-.0746 0h-.0746-.0747-.0746s0 0-.0746-.0746c0 0 0 0 .0746-.0746.0746 0 .0746-.0746.1493-.0746h.0746v-.0746h-.0746c-.0747 0-.1493.0746-.2239.0746h-.0746-.0746s0 0 0-.0746c0 0 0 0 0-.0746h.0746s.0746 0 .0746-.0746l.1492-.1492s0 0 .0747-.0747h-.0747-.0746-.0746s0 0-.0746 0-.1492 0-.1492 0h.0746s0 0 .0746-.0746c0-.0746 0-.0746.0746-.1492 0 0-.0746 0-.0746.0746 0 0 0 0 0-.0746 0 0 0 0 0-.0746l.0746-.0746v-.0746.0746.0746s0 0-.0746.0746c0 0-.0746 0-.0746.0746l-.0746.0746s-.0746 0-.0746.0746c0 0-.0746 0-.0746.0747 0 0-.0746 0-.0746.0746s.0746 0 .1492 0h.0746.0746.0746s0 0-.0746.0746c0 0 0 .0746-.0746.0746 0 0 0 0-.0746 0h-.0746-.0746s0 0-.0746-.0746c-.0747-.0746-.0747-.0746-.0747-.0746l-.0746-.0746s0 0-.0746 0c0 0-.0746 0-.0746-.0747 0 0-.0746 0-.0746-.0746h-.0746s-.0746 0-.0746-.0746c0 0 0 0 0-.0746l.0746-.0746s0 0 .0746-.0746c-.0746.0746-.1492.0746-.2238.0746 0 0 0 0-.0746 0h-.0746-.0747c0 .0746-.0746 0-.0746 0h.0746l.0747-.0746c-.0747 0-.0747 0-.1493.0746h-.0746-.0746-.0746-.0746s0 0 0-.0746h.0746s0 0 .0746-.0746c0 0 .0746 0 .0746-.0746 0 0 .0746 0 .0746-.0746h-.0746-.0746-.0746-.0746s.0746 0 .0746-.0746c-.0746 0-.1492 0-.1492.0746h-.0746s0 0-.0746 0c0 0 0 0-.0746 0-.0747 0-.0747 0-.1493 0 0 0 0 0 0-.0746 0 0 0 0 .0746-.0747 0 0 .0747 0 .0747-.0746h-.0747s0 0-.0746 0c0 0 0 0-.0746 0 0 0 0 0-.0746 0 0 0 0 0-.0746 0h-.0746s0 0 0-.0746.0746-.0746.1492-.0746c0 0 .0746 0 .0746-.0746 0 0 0 0-.0746 0 0 0 0 0-.0746 0s-.0746 0-.1492.0746h-.0746-.0746-.0747l.0747-.0746s.0746 0 .0746-.0746l.0746-.0746s-.0746 0-.0746.0746c0 0-.0746 0-.0746.0746 0 0-.0747 0-.0747.0746 0 0 0 0-.0746 0 0 0 0 0-.0746 0 0 0 0 0-.0746 0 0 0 0 0-.0746 0v.0746s0 .0746.0746.0746c0 .0746.0746.0746.0746.1493v.0746.0746s0 0 .0746.0746l.0746.0746h.0747s.0746 0 .0746.0746c0 0 0 0 .0746.0746l.0746.0746h.0746s0 0 .0746.0746h.0746.0746.0746l.0747.0746v.0747.0746s0 0 .0746.0746c0 .0746.0746.1492.0746.1492v.0746.0746.0746.0746.0747.0746s0 .0746-.0746.0746c0 0 0 .0746-.0746.0746l-.0747.0746-.0746.0746-.0746.0746c.0746 0 .0746 0 .1492-.0746h.0747l.0746-.0746s0 0 .0746-.0746v.0746.0746.0746s0 0-.0746 0c0 0 0 0-.0746 0 0 0-.0747 0-.0747.0746h.0747.0746.0746.0746s0 0 .0746-.0746c0 0 0 0 .0746-.0746v.0746.0746s0 0-.0746.0746c0 0 0 0-.0746.0746l-.0746.0747s0 0-.0746 0h.0746.0746.0746.0746.0746l.0746-.0747v.0747l-.0746.0746s0 0-.0746 0c0 0-.0746 0-.0746.0746 0 0-.0746 0-.0746.0746h.0746.0746s.0746-.0746.0746 0h-.0746s0 0-.0746 0h-.0746-.0746v-.0746s0 0 0-.0746c0 0 0 0 0-.0746 0 0 0 0-.0746-.0747l-.0746-.0746-.0747-.0746s0 0-.0746 0l-.0746-.0746s0 0-.0746 0c0 0-.0746 0-.0746-.0746 0 0 0 0-.0746 0 0 0 0 0-.0746-.0746 0 0 0 0-.0746-.0746h-.0746s0 0 0-.0746h.0746s.0746 0 .0746-.0746c0 0 0 0 .0746-.0746l.0746-.0747c-.0746 0-.1492.0747-.1492.0747h-.0746s0 0-.0746 0l-.0747.0746h-.0746s0 0 .0746-.0746c.0747-.0747.1493-.0747.1493-.1493 0 0 0 0 .0746-.0746 0 0 0-.0746.0746-.0746 0 0 0 0-.0746 0 0 0 0 0-.0746 0 0 0 0 0-.0746 0 0 0-.0747 0-.0747.0746 0 0 0 0-.0746 0 0 0 0 0-.0746.0746 0 0 0 0-.0746 0h.0746s.0746 0 .0746.0746c0 0 .0746 0 .0746.0747h.0747v.0746h-.0747.0747c0 .0746.1492 0 .1492.0746h.0746.0746c.0746 0 .0746 0 .0746.0746 0 0 .0746 0 .0746.0746h.0746.0746s.0747 0 .0747.0746v.0746.0746.0746.0746s.0746-.0746.0746 0v.0747.0746.0746s0 0-.0746 0c0 0 0 0-.0747 0v-.0746s0 0 0-.0746l-.0746.0746s0 0-.0746.0746c0 0 0 0-.0746 0 0 0 0 0-.0746 0 0 0-.0746 0-.1492 0 0 0 0 0 .0746-.0746h.0746.0746s0 0-.0746 0c0 0 0 0-.0746 0 0 0-.0746.0746-.1492.0746 0 0 0 0-.0746 0h-.0747c-.0746 0-.0746 0-.1492 0h-.0746.0746.0746.0746.0747-.0747-.0746-.0746-.0746s0 0-.0746 0-.0746 0-.1492 0h-.0746s0 0 0-.0746c0 0 .0746 0 .0746-.0746 0 0 .0746 0 .0746-.0747.0746 0 .0746-.0746.0746-.0746h.0746s-.0746 0-.1492 0h-.0746s0 0-.0746 0h-.0746-.0746-.0747-.0746s0 0 0-.0746h.0746l.0747-.0746c-.0747 0-.1493 0-.1493.0746-.0746 0-.0746.0746-.1492.0746 0 0 0 0-.0746 0h-.0746l.0746-.0746h.0746.0746.0746-.0746-.0746c-.0746 0-.1492.0746-.1492.0746h-.0746-.0746s0 0-.0746 0h.0746.0746s.0746 0 .0746-.0746c-.0746 0-.0746 0-.1492.0746h-.0746s0 0-.0746 0c-.0747 0-.0747 0-.1493 0v-.0746l.0746-.0746h.0747l.0746-.0746h-.0746c-.0747 0-.0747 0-.1493.0746h-.0746-.0746-.0746s0 0 0-.0746l.0746-.0746h.0746s0 0 .0746-.0746l.0746-.0746c-.0746.0746-.1492.0746-.2238.1492-.0746 0-.0746.0746-.1492.0746 0 0 0 0-.0746 0h-.0746s0 0-.0746 0c0 0 0 0 0-.0746l.0746-.0746s.0746 0 .0746-.0746h.0746.0746c-.0746 0-.0746 0-.1492 0h-.0746s0 0-.0746 0c0 0 0 0-.0746 0 0 0-.0747 0-.0747-.0746 0 0 0 0-.0746 0 0 0 0 0-.0746 0h-.0746s0 0-.0746 0c0 0 0 0-.0746 0 0 0-.0746 0-.0746.0746 0 0-.0746 0-.0746.0746 0 0 0 0-.0746 0l-.0747.0746h-.0746-.0746-.0746c0-.0746.0746-.0746.0746-.0746s0 0 .0746-.0746c0 0 0 0 .0746-.0746 0 0 .0001 0 .0747-.0746 0 0 0 0 .0746-.0747-.0746 0-.0746.0747-.0746.0747l-.0747.0746s0 0-.0746 0c0 0 0 0-.0746.0746 0 0 0 0-.0746 0 0 0 0 0-.0746 0 0 0-.0746 0-.0746.0746 0 0 0 0-.0746 0h-.0746s0 0-.0746.0746h-.0746s0 0 0-.0746l.0746-.0746c.0746-.0746.0746-.0746.1492-.1492l.0746-.0747s0 0 .0746-.0746c0 0 .0746 0 .0746-.0746l.0746-.0746s0 0 .0746-.0746l.0746-.0746c-.0746 0-.0746.0746-.1492.0746 0 0 0 0-.0746.0746 0 0 0 0-.0746.0746 0 0 0 0-.0746.0746l-.0746.0746s-.0746 0-.0746.0747l-.0746.0746c-.0746.0746-.1493.0746-.2239.1492 0 0 0 0-.0746.0746 0 0 0 0-.0746.0746 0 0 0 0-.0746.0746h-.0746s0 0-.0746 0v-.0746l.0746-.0746.2238-.2238.0746-.0746.0746-.0747.0747-.0746.0746-.0746.0746-.0746s.0746 0 .0746-.0746c0 0 .0746 0 .0746-.0746h-.0746c-.0746 0-.1492.0746-.1492.0746s0 0-.0746 0c0 0 0 0-.0747 0l-.0746.0746s0 0-.0746 0l-.0746.0746-.0746.0746-.0746.0746v.0747h-.0746l.0746-.0747s0 0 .0746-.0746c0 0 .0746 0 .0746-.0746l.0746-.0746s0 0 .0746-.0746l.0746-.0746.0747-.0746c.0746 0 .0746-.0746.0746-.0746s.0746 0 .0746-.0746c0 0 0 0 0-.0747l.0746-.0746s0 0 0-.0746c0 0 0 0 .0746-.0746h-.0746s0 0-.0746 0l-.0746.0746s0 0-.0746.0746c-.0747.0746-.1493.0746-.2239.1493l-.0746.0746c-.0746 0-.0746.0746-.1492.0746 0 0 0 0-.0746.0746 0 0 0 0-.0746 0 0 0 0 0-.0746 0l-.0746.0746s0 0-.0747 0h-.0746s0 0 .0746-.0746c0 0 0 0 0-.0746h.0747s0 0 .0746-.0746c0 0 0 0 .0746-.0746 0 0 0 0 0-.0747l.0746-.0746s0 0 .0746-.0746l-.0746.0746s0 0-.0746 0c0 0 0 0-.0746 0 0 0 0 0-.0746 0h-.0747l-.0746.0746-.0746.0747-.0746.0746s0 .0746-.0746 0v-.0746s0 0 0-.0747h.0746c0-.0746.0746-.0746.0746-.0746.0746 0 .0746-.0746.1492-.1492 0 0 0 0 .0747-.0746 0 0 0 0-.0747 0l-.0746.0746s0 0-.0746.0746c0 0-.0746 0-.0746.0746l-.0746.0746s0 0-.0746.0747c0 0-.0746 0-.0746.0746-.0746.0746-.0746.0746-.1492.1492 0 0 0 0-.0746.0746 0 0 0 0-.0747 0 0 0 .0747 0 .0747-.0746 0 0 .0746 0 .0746-.0746 0 0 0-.0746.0746-.0746 0 0 0 0 .0746-.0746 0 0 0 0 .0746-.0747 0 0-.0746 0-.0746.0747 0 0-.0746 0-.0746.0746l-.0746.0746-.0746.0746c-.0747.0746-.0747.0746-.1493.1492v.0746l-.0746.0746s0 0-.0746 0c0 0 0 0-.0746 0 0 0 0 0-.0746 0 0 0 0 0-.0746 0l.0746-.0746s0 0 .0746-.0746l.0746-.0746s0 0 0-.0746c0 0 0 0 .0746-.0746 0 0 0 0 .0746-.0746 0 0 0 0 0-.0746 0 0 0 0 .0746-.0747 0 0 0 0 .0747-.0746l.0746-.0746h.0746s0 0 .0746-.0746c-.0746 0-.0746.0746-.1492.0746 0 0-.0746 0-.0746.0746 0 0 0 0-.0747 0 0 0 0 0-.0746 0 0 0 0 0-.0746.0746 0 0 0 0-.0746.0747 0 0 0 0-.0746 0l-.0746.0746c-.0746.0746-.1492.1492-.1492.1492l-.0746.0746s0 0-.0746 0h-.0747s0 0 0-.0746h.0747s-.0001 0 .0746-.0746l.0746-.0746.0746-.0746c.0746-.0747.0746-.0747.1492-.1493 0 0 0-.0746.0746-.0746h.0746s0 0 .0746-.0746l.0746-.0746.0747-.0746h-.0747s0 0-.0746 0l-.0746.0746s-.0746 0-.0746.0746c0 0 0 0-.0746 0 0 0-.0746 0-.0746.0746 0 0 0 0-.0746.0746 0 0-.0746 0-.0746.0746l-.0746.0747s0 0-.0746 0c-.0747.0746-.1493.0746-.1493.1492 0 0-.0746 0-.0746.0746 0 0 0 0-.0746 0 0 0-.0746 0-.0746.0746l-.0746.0746-.0746.0746s0 0-.0746 0l-.0746.0746s0 0-.0747 0c0 0 0 0 0-.0746v-.0746s0 0 0-.0746l.0747-.0746.0746-.0746h.0746s0 0 .0746-.0746c0 0 .0746 0 .0746-.0746-.0746 0-.1492.0746-.1492.0746s0 0-.0746.0746c0 0 0 0-.0746 0 0 0 0 0-.0747 0 0 0 0 0-.0746 0l-.0746.0746-.0746.0746c-.0746.0746-.0746.0746-.1492.1492 0 0-.0746 0-.0746.0746v.0746s-.0746 0-.0746.0747c0 0 0 0-.0746 0s-.0746 0-.1493 0c-.0746 0-.0746 0-.1492 0 0 0 0 0-.0746 0s-.0746 0-.1492 0c0 0 0 0-.0746 0 0 0 0 0-.0746 0h-.0746-.0746-.0747c-.0746 0-.2238 0-.2984 0h-.0746c-.0746 0-.0746 0-.1492 0h-.07464-.07461s0 0-.07461 0c0 0 0 0-.07461 0-.14922 0-.22383 0-.37305 0v.2238h.07461.07461.29844.07461.07461.22384.2238.0746.0746.4477.1492.1492.5223.1492.1493.0746.1492.0746.2984.0747.5968s0 .0746.0746.0746l.0747.0746v.0746.0746l.0746.0746.0746.0746h.0746.1492.0746.0746.0746.0746.0747.0746.0746v.0747.0746s.0746 0 .0746.0746c.0746.0746.1492.0746.2238.0746h.2238.0747.0746v.0746.0746l.0746.0746h.0746.0746.0746.0746.0746.0746.0746c.0747 0 .1493-.0746.2239-.0746v.0746l.0746.0746s0 0 .0746.0746c.0746 0 .0746.0746.1492.0746h.0746.1493.0746.0746.0746.0746.0746.0746s.0746 0 .0746-.0746h.0746c.0746 0 .0746.0746.1493.0746 0 0 .0746 0 .0746.0747h.0746.0746.0746.0746.0746.0746.0746s0 0 0-.0747c0-.0746 0-.0746 0-.0746v-.0746h.0746.0747.0746.0746.1492.0746.0746.0746s.0746 0 .0746-.0746l.0746-.0746s0 0 0-.0746h.0747.0746.0746.0746.0746.0746.0746.0746.0746.0747c.0746 0 .0746-.0746.1492-.0746 0 0 0 0 0-.0746 0 0 0-.0746.0746-.0746 0 0 0-.0746.0746-.1493 0 0 0 0 0-.0746h.0746.0746l.0746-.0746.0746-.0746s0 0 .0746-.0746v-.0746c.0747 0 .0747 0 .1493-.0746h.0746.0746.0746.0746.0746.0746.4477.2984.5223.2238.0746.2239.0746c.2984 0 .5969.0746.9699.0746h.1492.0746.0747.0746.0746.0746.1492.3731c.4476 0 .9699.0746 1.4176.0746v-1.9399zm-12.2361-4.4766c.0746 0 .0746-.0746 0 0h.0746.0746.0746.0747.0746.0746.0746v.0746.0746h-.0746-.0746-.0746c-.1493-.0746-.2239-.0746-.2985-.1492.0746.0746.0746.0746 0 0 0 0 0 .0746 0 0zm2.0145 4.8497c.0746 0 .0746.0746 0 0 .0746.0746.0746.0746.1492.0746v.0746h-.0746-.0746s-.0746 0-.0746.0746h.0746.0746.0746v.0746s-.0746 0-.0746.0746h-.0746-.0746s0 0-.0746 0v-.0746h.0746.0746-.0746v-.0746c0-.2238.0746-.2238.0746-.2238zm-.2985.6715h.0747-.0747c-.0746.0746-.0746.0746 0 0-.0746 0-.0746.0746 0 0-.0746 0-.0746 0 0 0zm-.2238-1.9399c.0746 0 .0746 0 0 0 .0746-.0746.0746-.0746.0746-.0746h.0746s0 .0746-.0746.0746c0 0-.0746 0-.0746.0746 0 0-.0746.0746-.1492.0746 0 0 0 0-.0746 0 0 0 0 0-.0746 0h-.0746s0 0 0-.0746c.2238.0746.2984 0 .373-.0746zm-.7461.3731c0-.0746.0746-.0746 0 0 .0746-.0746.0746-.0746 0 0 .0746-.0746.0746-.0746.0746-.0746s.0746-.0747.1492-.0747c.0747 0 .0747-.0746.1493-.0746 0 0 0 0 .0746-.0746h.0746.0746s.0746 0 0 .0746l-.0746.0746s0 0-.0746 0c0 0 0 0-.0746 0l-.0746.0747s-.0747 0-.0747.0746c0 0 0 0-.0746 0 0 0 0 0-.0746 0 0 0-.0746 0-.0746.0746.0746-.0746.0746-.0746 0-.0746.0746.0746.0746 0 0 0zm.0746.1492c.0746-.0746.0746-.0746.0746-.0746h.0746v.0746c-.0746.0746-.0746.0746-.1492 0 0 .0746 0 .0746 0 0 0 0 0 .0746 0 0zm-1.1191.1492.0746-.0746h.0746.0746.1492.0746.0746.0747.0746v.0746s0 .0746.0746.0746v.0746.0746s0 .0746-.0746.0746v.0747s0 .0746-.0746 0v-.0747s0 0 0-.0746c0 0 0 0 0-.0746 0 0 0 0-.0747-.0746-.0746-.0746-.0746-.0746-.1492-.1492 0 0 0 0-.0746-.0746 0 0 0 0-.0746 0s-.1492 0-.1492 0 0 0-.0746 0c.0746.1492 0 .2238 0 .1492zm.9699.7461c0-.0746 0-.0746 0 0 .0746-.0746.0746-.0746.0746-.0746h.0746.0746.0746v.0746s0 0-.0746.0746c0 0 0 0-.0746 0-.0746-.0746-.1492-.0746-.1492-.0746zm-.9699-.5223c.0746-.0746.0746-.0746.0746-.0746s.0746 0 .0746-.0746h.0746.0746.0746s.0746 0 .0746.0746h.0746s0 0 .0747.0746v.0746.0747.0746s0 0-.0747 0c0 0 0 0-.0746 0 0 0 0 0-.0746 0 0 0 0 0-.0746 0 0 0-.0746 0-.0746-.0746 0 0 0 0-.0746-.0747 0 0 0 0 0-.0746v-.0746c-.2238.0746-.2238.0746-.1492.0746zm-.8207.4477h-.0747-.0746s0 0-.0746 0c0 0 0 0 0-.0746v-.0746h.0746.0746.0747.0746c-.1493.0746-.1492.0746-.0746.1492 0-.0746-.0746-.0746 0 0zm.373-.4477s0 .0746 0 0c-.0746 0-.0746.0746-.0746.0746s0 0-.0746 0c0 0 0 .0747.0746.0747 0 0 0 0-.0746 0h-.0746s0 0-.0746 0c0 0 0 0-.0746 0 0 0 0 0-.0747 0 0 0 0 0 0-.0747 0 0 .0747 0 .0747-.0746h.0746s.0746 0 .0746-.0746h-.0746-.0746-.0747s0 0-.0746 0h-.0746s0 0-.0746 0h-.0746s0 0 0-.0746h.0746s.0746 0 .0746-.0746h-.0746-.0746s0 0-.0746 0h-.0746v-.0746s.0746-.0746.1492-.0746h.0746.0746.0746.0746.0747.0746s.0746 0 .0746.0746v.0746.0746.0746.0746c.2984-.0746.2238 0 .2238 0zm.9699.8207c-.0746.0747-.0746.0747-.0746.0747h-.0746s0 0-.0746 0h-.0746c-.0746 0-.0746 0-.1492 0s-.0746 0-.0746 0 0 0-.0746 0c0 0 0 0-.0746 0 0 0 0 0 0-.0747 0 0 0 0-.0747-.0746v-.0746s0 0 0-.0746c0 0 0 0 0-.0746h.0747.0746.0746v.0746s-.0746 0-.0746.0746h.0746.0746.0746.0746v.0746s0 0-.0746 0c0 0 0 0-.0746.0746h.0746.0746.0746.0746.0746.0746s0-.0746.0747 0c0 0 .0746 0 .1492-.0746h.0746s0 0-.0746.0746c0 0 0 0-.0746.0747 0 0-.0746 0-.0746.0746h.0746.0746.0746c.0746 0 .0746-.0746.1492-.0746h.0746s0 .0746-.0746.0746c-.373-.2239-.373-.2239-.4477-.1493 0-.0746.0747-.0746 0 0zm1.1938.2239c-.0746 0-.0746 0 0 0-.0746.0746-.0746.0746-.0746.0746l-.0746.0746c-.0746 0-.0746.0746-.0746.0746l-.0746.0746h-.0746s0 0-.0747 0h-.0746-.0746-.0746s0 0-.0746 0c0 0 0 0 0-.0746s0-.0746 0-.0746v-.0746.0746s0 0 .0746.0746h.0746.0746.0746.0747.0746.1492.0746.0746l.0746-.0746h-.0746s-.0746 0-.1492.0746c0 0-.0746 0-.1492 0s-.0746 0-.1493 0h.0747.0746.0746.0746.0746.0746.0746.0746c-.0746 0-.1492.0746-.1492.0746h-.0746-.0746c-.0746 0-.1492 0-.2238.0746-.0747 0-.1493.0746-.2239.0746 0 0 0 0-.0746 0 0 0 0 0-.0746 0 0 0 0 0-.0746 0 0 0 0 0 0-.0746h.0746.0746.0746.0746.0746.0747.0746.0746c.0746 0 .0746-.0746.1492-.0746h.0746-.0746c-.0746 0-.0746 0-.1492 0s-.0746 0-.1492 0h-.0747-.0746-.0746-.0746-.0746-.0746.0746.0746.0746.0746.0746.0747.0746.0746.0746.0746.0746.0746s0 0 0-.0746c0 0 0 0 0-.0746 0 0 0 0 0-.0746 0 0 0 0 0-.0746s-.0746-.0746-.1492-.1492c0 0 0 0-.0746 0h-.0746s0 0-.0746 0h-.0746s0 0-.0747 0c0 0 0 0-.0746 0v.0746s-.0746.0746-.0746.1492c0 0 0 .0746-.0746.0746v.0746.0746h-.0746s0 0-.0746 0h-.0746s0 0 0-.0746v-.0746s0 0 0-.0746l.0746-.0746s0 0 .0746-.0746c0 0 0 0 .0746-.0746h.0746.0746.0746.2239.0746s0 0 .0746.0746v.0746.0746c0 .0746 0 .0746-.0746.1492v.0746.0746.0746s0 .0747-.0746.0747v.0746s0 0-.0746.0746l-.0746.0746c.373-.8207.373-.8207.373-.7461zm.2984-.97s0 .0747 0 0c0 .0747-.0746.0747 0 0-.0746.0747-.0746.0747-.0746.0747-.0746 0-.0746 0-.1492.0746h.1492s0 0-.0746.0746c0 0 0 .0746-.0746.0746 0 0 0 0-.0746 0h-.0746s0 0-.0746 0c0 0 0 0-.0746 0l-.0746-.0746v-.0746s0 0 0-.0746v-.0747-.0746-.0746-.0746c0-.0746.0746-.0746.0746-.0746h.1492.0746.0746s0 0 .0746.0746c.1492.1492.1492.1492.1492.2238zm.5969 1.2684c0 .0746 0 .0746-.0746.0746v.0746.0747s0 0-.0746 0c0 0 0 0-.0746 0 0 0 0 0-.0746 0 0 0 0 0-.0746 0 0 0 0 0-.0746 0h.1492.0746.1492.0746v.0746h-.0746s0 0-.0746 0-.1492 0-.1492 0 0 0-.0746 0h-.0746s0 0-.0746 0c0 0 0 0-.0747 0 0 0 0 0-.0746 0h.0746.0747.0746c.0746 0 .0746 0 .1492-.0746 0 0 .0746 0 .0746-.0747h.0746s0 0-.0746 0c0 0 0 0-.0746 0 0 0 0 0-.0746 0h-.0746-.0746-.0747-.0746-.0746c-.0746 0-.1492 0-.1492 0h.0746c.0746 0 .0746 0 .0746-.0746h.0746.0746.0747.0746c-.0746 0-.1493 0-.2239.0746h-.0746-.0746s0 0-.0746 0h-.0746s0 0 0-.0746h.0746.0746c.0746 0 .0746-.0746.1492-.0746h.0746c.0747 0 .1493 0 .1493-.0746l.0746-.0746c.0746-.0746.0746-.0746.1492-.1492 0 0 0 0 0-.0746 0 0 0 0 0-.0746 0 0 0 0 0-.0747 0 0 0-.0746.0746-.0746v-.0746s0 0 0-.0746-.0746-.0746-.1492-.1492c0 0-.0746 0-.0746-.0746 0 0 0 0 0-.0746 0 0 0 0 0-.0746 0 0 0-.0746.0746-.0746h.0746.0746l.0746.0746s0 0 .0746.0746v.0746.0746.0746.0746.0746.0746.0746.0747s0 .0746-.0746.0746v.0746c.1492.2238.0746.2238.0746.2984 0-.0746 0-.0746 0 0zm1.2684.3731c-.0746 0-.0746.0746 0 0 0 .0746-.0746.0746-.0746.0746s0 0-.0746.0746c0 0 0 0-.0746 0h-.0746c-.0746 0-.0746 0-.1493 0l-.0746-.0746s0-.0746.0746-.0746c0 0 0 0 0-.0746 0 0 0 0 0-.0746 0 0 0 0 0-.0747 0 0 0 0 0-.0746 0 0 0 0 0-.0746v-.0746h.0747c.0746 0 .1492 0 .2984-.0746 0 0 .0746 0 .0746.0746 0 0-.0746 0-.0746.0746 0 0 0 0-.0746 0 0 0-.0746 0-.0746.0746 0 0 0 0-.0746 0 0 0 0 0-.0746 0h.0746.0746s.0746 0 .0746-.0746l.0746-.0746h.0746.0746.0746v.0746s0 0-.0746.0746c0 0 0 0-.0746 0 0 0-.0746 0-.0746.0746 0 0 0 0-.0746 0 0 0 0 0-.0746 0h.0746.0746s.0746 0 .0746-.0746c0 0 .0746 0 .0746-.0746h.0746l.0746-.0746s0-.0746.0746-.0746v.0746.0746s0 0-.0746.0746l-.0746.0746s0 0-.0746.0747h.0746.0746.0746.0747s.0746 0 .0746-.0747c0 0 0 0 .0746-.0746 0 0 .0746-.0746.0746 0 0 0 0 .0746-.0746.0746v.0747s-.0746-.0001-.0746.0746c0 0 0 .0746-.0746.0746h.0746.0746.0746.0746.0746s.0746-.0746.0746 0c-.8207-.0746-.8207-.0746-.8207 0zm.8953-.6715c0 .0746 0 .0746 0 0 0 .0746 0 .0746-.0746.0746 0 0 0 0-.0746.0746 0 0 0 0-.0746 0 0 0-.0746 0-.0746.0746h-.0746c-.0746 0-.0746 0-.1492 0h-.0747c-.0746-.0746-.0746-.0746-.1492-.1492l-.0746-.0746-.0746-.0746-.0746-.0746s0 0 0-.0747h.0746.0746.0746v.0747h-.0746.0746.0746.0746.0747s.0746 0 .0746-.0747h.0746.0746.0746v.0747.0746.0746s0 0-.0746.0746c0 0 0 0-.0746 0 0 0-.0746 0-.0746.0746 0 0 0 0-.0746 0 0 0 0 0-.0747 0h.0747.0746.0746.0746.0746s.0746 0 .0746-.0746h.0746l.0746-.0746s0 0 .0746-.0746h.0746v.0746s-.0746 0-.0746.0746l-.0746.0746s0 0-.0746.0746h.0746.0746.0746.0747.0746s0 0 .0746-.0746c0 0 .0746-.0746.0746 0 0 0 0 .0746-.0746.0746 0 0-.0746 0-.0746.0746 0 0 0 .0746-.0746.0746h.0746.0746.0746.0746.0746c-.5969-.4476-.5969-.373-.5969-.373zm1.5668-1.1192s0 .0746 0 0c0 .0746 0 .0746 0 0-.0746.0746-.0746.0746-.0746.0746s0 0-.0746 0h-.0746-.0746s.0746 0 .0746-.0746h.0746l.0746-.0746c0 .1492 0 .0746.0746.0746z" fill-rule="evenodd"/><path clip-rule="evenodd" d="m29.1726 21.1895c-.0746.0746-.0746.0746-.0746.0746s0 0-.0746 0c0 0-.0746 0-.0746.0746 0 0 0 0-.0746 0 0 0 0 0-.0746 0v.0746h.0746.0746.0746.0746l.0746-.0746z" fill-rule="evenodd"/><path clip-rule="evenodd" d="m29.1726 20.8159-.0746.0746c-.0747.0746-.1493.0746-.2239.1492-.0746.0747-.1492.0747-.2238.1493 0 0 0 0-.0746 0l-.0746.0746s0 0-.0746.0746c0 0 0 0-.0746.0746 0 0 0 0-.0747.0746 0 0 0 0-.0746.0746h.0746c.0747 0 .1493-.0746.1493-.0746l.0746-.0746s0 0 .0746-.0746h.0746.0746c.0746-.0746.0746-.0746.1492-.1492l.0746-.0746c.2239-.2239.2239-.2239.2239-.2985z" fill-rule="evenodd"/></g><path d="m104.006 26.263h-5.1479l-1.5669-3.8052h-8.5801l-1.4176 3.8052h-5.0735l7.7594-19.17487h5.5212zm-11.1914-14.6236-2.8352 7.461h5.8943z" fill="#ba0c2f"/><path d="m110.871 7.08813h-4.776v19.17487h4.776z" fill="#ba0c2f"/><path d="m123.405 7.08813c7.014 0 10.595 4.32737 10.595 9.62477 0 5.5211-3.507 9.5501-11.117 9.5501h-7.909v-19.17487zm-3.656 15.66817h3.134c4.775 0 6.267-3.2829 6.267-6.0434 0-3.2829-1.79-6.0435-6.267-6.0435h-3.059v12.0869z" fill="#ba0c2f"/><path d="m10.8931 28.8745s.0746 1.2684 1.4922 2.1637v-2.1637z" fill="#ba0c2f"/><path d="m13.2805 28.8745h2.0891v3.4321s-1.343-.2985-2.0891-.7461z" fill="#ba0c2f"/><path d="m16.116 28.8745v3.5813s.7461.1492.8953.1492.8953.1492 1.2684.2985v-3.9544h-2.1637z" fill="#ba0c2f"/><path d="m29.2468 28.8745s-.0746 1.2684-1.4922 2.1637v-2.1637z" fill="#ba0c2f"/><path d="m26.9341 28.8745h-2.0891v3.4321s1.343-.2985 2.0891-.7461z" fill="#ba0c2f"/><path d="m24.0243 28.8745v3.5813s-.7461.1492-.8953.1492c-.1493 0-.8954.1492-1.2684.2985v-3.9544h2.1637z" fill="#ba0c2f"/><path d="m20.0702 34.2461c-.3731-.6715-1.0446-.97-1.0446-.97v-4.3274h2.0145v4.3274c.0746-.0746-.5969.2985-.9699.97z" fill="#ba0c2f"/><path d="m12.7581 26.7858h.7461l-.5969.4476.2238.6715-.5969-.373-.5222.373.2238-.6715-.5969-.4476h.6715l.2238-.6715z" fill="#fff"/><path d="m15.2949 26.7858h.7461l-.5968.4476.2238.6715-.5969-.373-.5223.373h-.0746l.2239-.6715-.5223-.4476h.6715l.2238-.6715z" fill="#fff"/><path d="m17.8318 26.7858h.6715l-.5223.4476.2239.6715-.5969-.373-.5969.373.2238-.6715-.5223-.4476h.6715l.2239-.6715z" fill="#fff"/><path d="m20.3683 26.7858h.6715l-.5969.4476.2239.6715-.5223-.373-.5969.373.2238-.6715-.5968-.4476h.7461l.2238-.6715z" fill="#fff"/><path d="m22.8306 26.7858h.7461l-.5969.4476.2238.6715-.5222-.373-.5969.373.2238-.6715-.5969-.4476h.7461l.2239-.6715z" fill="#fff"/><path d="m25.3672 26.7858h.7461l-.5969.4476.2239.6715-.5969-.373-.5223.373.2238-.6715-.5969-.4476h.7461l.1493-.6715z" fill="#fff"/><path d="m27.9041 26.7858h.7461l-.5969.4476.2238.6715-.5969-.373-.5222.373.2238-.6715-.5969-.4476h.6715l.2238-.6715z" fill="#fff"/><path d="m15.8919 10.147v1.716c0 .9699-.6715 1.343-1.4922 1.343-.8953 0-1.4922-.3731-1.4922-1.343v-1.716h.7461v1.716c0 .4477.2984.6715.7461.6715.373 0 .7461-.2238.7461-.7461v-1.6414z" fill="#fff"/><path d="m18.5779 10.8937c-.4477-.2239-.6715-.2985-.9699-.2985-.2985 0-.4477.0746-.4477.2239 0 .4476 1.5668.2984 1.5668 1.3429 0 .5969-.5222.8954-1.1937.8954-.5223 0-.8207-.1493-1.1192-.2985v-.6715c.4477.2985.6715.3731 1.0446.3731.2984 0 .4476-.0746.4476-.2985 0-.5222-1.5668-.2984-1.5668-1.4176 0-.5222.4477-.89528 1.1192-.89528.373 0 .6714.07461 1.0445.22388v.8207z" fill="#fff"/><path d="m22.3083 13.1314h-.8207l-.2239-.5969h-1.3429l-.2239.5969h-.8207l1.1938-2.9844h.8953zm-1.716-2.2383-.4477 1.1191h.8953z" fill="#fff"/><path d="m23.4275 10.147h-.7461v2.9844h.7461z" fill="#fff"/><path d="m25.5163 10.147c1.1192 0 1.6414.6715 1.6414 1.4922 0 .8953-.5222 1.4922-1.716 1.4922h-1.2684v-2.9844zm-.5969 2.4621h.4477c.7461 0 .9699-.5223.9699-.9699 0-.5223-.2984-.97-.9699-.97h-.4477z" fill="#fff"/></svg>