<svg width="183" height="34" viewBox="0 0 183 34" fill="none" xmlns="http://www.w3.org/2000/svg">
<path d="M44.852 11.21C43.8907 11.21 43.0273 10.9907 42.262 10.552C41.506 10.1133 40.9133 9.50667 40.484 8.732C40.0547 7.95733 39.84 7.07533 39.84 6.086C39.84 5.106 40.0547 4.22867 40.484 3.454C40.9133 2.67933 41.506 2.07733 42.262 1.648C43.0273 1.20933 43.8907 0.99 44.852 0.99C45.7013 0.99 46.4667 1.16267 47.148 1.508C47.8387 1.844 48.3987 2.32 48.828 2.936C49.2573 3.552 49.5187 4.25667 49.612 5.05H48.338C48.1793 4.17267 47.7873 3.47267 47.162 2.95C46.5367 2.42733 45.7713 2.166 44.866 2.166C44.138 2.166 43.4893 2.334 42.92 2.67C42.36 2.99667 41.9213 3.45867 41.604 4.056C41.2867 4.65333 41.128 5.33467 41.128 6.1C41.128 6.86533 41.2867 7.54667 41.604 8.144C41.9213 8.732 42.36 9.194 42.92 9.53C43.4893 9.866 44.138 10.034 44.866 10.034C45.79 10.034 46.56 9.77267 47.176 9.25C47.8013 8.72733 48.1887 8.02267 48.338 7.136H49.612C49.5093 7.93867 49.2433 8.648 48.814 9.264C48.3847 9.88 47.8247 10.3607 47.134 10.706C46.4527 11.042 45.692 11.21 44.852 11.21ZM53.624 5.05H50.74V4H57.628V5.05H54.73V11H53.624V5.05ZM62.6799 4C63.4452 4 64.0472 4.16333 64.4859 4.49C64.9246 4.80733 65.1439 5.25067 65.1439 5.82C65.1439 6.184 65.0412 6.50133 64.8359 6.772C64.6399 7.04267 64.3599 7.248 63.9959 7.388V7.444C64.4532 7.57467 64.7986 7.78467 65.0319 8.074C65.2746 8.354 65.3959 8.704 65.3959 9.124C65.3959 9.712 65.1672 10.174 64.7099 10.51C64.2619 10.8367 63.6319 11 62.8199 11H59.3479V4H62.6799ZM62.4839 7.052C62.9599 7.052 63.3332 6.95867 63.6039 6.772C63.8746 6.576 64.0099 6.31 64.0099 5.974C64.0099 5.62867 63.8792 5.36267 63.6179 5.176C63.3659 4.98 63.0112 4.882 62.5539 4.882H60.4399V7.052H62.4839ZM62.7359 10.118C63.2212 10.118 63.5946 10.0247 63.8559 9.838C64.1266 9.642 64.2619 9.36667 64.2619 9.012C64.2619 8.66667 64.1219 8.40067 63.8419 8.214C63.5712 8.018 63.1886 7.92 62.6939 7.92H60.4399V10.118H62.7359ZM70.3296 11.14C69.6296 11.14 68.9949 10.9813 68.4256 10.664C67.8563 10.3467 67.4083 9.91267 67.0816 9.362C66.7549 8.802 66.5916 8.18133 66.5916 7.5C66.5916 6.81867 66.7549 6.20267 67.0816 5.652C67.4083 5.092 67.8563 4.65333 68.4256 4.336C68.9949 4.01867 69.6296 3.86 70.3296 3.86C71.0296 3.86 71.6643 4.01867 72.2336 4.336C72.8029 4.65333 73.2509 5.092 73.5776 5.652C73.9043 6.20267 74.0676 6.81867 74.0676 7.5C74.0676 8.172 73.8996 8.788 73.5636 9.348C73.2369 9.89867 72.7889 10.3373 72.2196 10.664C71.6503 10.9813 71.0203 11.14 70.3296 11.14ZM70.3296 10.118C70.8243 10.118 71.2676 10.006 71.6596 9.782C72.0609 9.558 72.3736 9.24533 72.5976 8.844C72.8216 8.44267 72.9336 7.99467 72.9336 7.5C72.9336 7.00533 72.8216 6.55733 72.5976 6.156C72.3736 5.75467 72.0609 5.442 71.6596 5.218C71.2676 4.994 70.8243 4.882 70.3296 4.882C69.8349 4.882 69.3869 4.994 68.9856 5.218C68.5936 5.442 68.2856 5.75467 68.0616 6.156C67.8376 6.548 67.7256 6.996 67.7256 7.5C67.7256 7.99467 67.8376 8.44267 68.0616 8.844C68.2856 9.24533 68.5936 9.558 68.9856 9.782C69.3869 10.006 69.8349 10.118 70.3296 10.118ZM77.0909 4V5.344C77.3803 4.87733 77.7583 4.51333 78.2249 4.252C78.6916 3.99067 79.2189 3.86 79.8069 3.86C80.4603 3.86 81.0529 4.01867 81.5849 4.336C82.1169 4.65333 82.5369 5.092 82.8449 5.652C83.1529 6.20267 83.3069 6.81867 83.3069 7.5C83.3069 8.18133 83.1529 8.802 82.8449 9.362C82.5369 9.91267 82.1169 10.3467 81.5849 10.664C81.0529 10.9813 80.4603 11.14 79.8069 11.14C79.2469 11.14 78.7383 11.0187 78.2809 10.776C77.8236 10.524 77.4549 10.1787 77.1749 9.74V13.8H76.0549V4H77.0909ZM79.6529 10.118C80.1196 10.118 80.5443 10.006 80.9269 9.782C81.3096 9.54867 81.6129 9.23133 81.8369 8.83C82.0609 8.42867 82.1729 7.98533 82.1729 7.5C82.1729 7.01467 82.0609 6.57133 81.8369 6.17C81.6129 5.76867 81.3096 5.456 80.9269 5.232C80.5443 4.99867 80.1196 4.882 79.6529 4.882C79.1863 4.882 78.7616 4.99867 78.3789 5.232C77.9963 5.456 77.6929 5.76867 77.4689 6.17C77.2543 6.57133 77.1469 7.01467 77.1469 7.5C77.1469 7.98533 77.2543 8.42867 77.4689 8.83C77.6929 9.23133 77.9963 9.54867 78.3789 9.782C78.7616 10.006 79.1863 10.118 79.6529 10.118ZM88.3761 11.14C87.6575 11.14 87.0135 10.986 86.4441 10.678C85.8841 10.3607 85.4455 9.92667 85.1281 9.376C84.8108 8.816 84.6521 8.19533 84.6521 7.514C84.6521 6.83267 84.8155 6.212 85.1421 5.652C85.4781 5.092 85.9261 4.65333 86.4861 4.336C87.0555 4.01867 87.6855 3.86 88.3761 3.86C89.0481 3.86 89.6595 4.01867 90.2101 4.336C90.7701 4.644 91.2088 5.07333 91.5261 5.624C91.8435 6.17467 92.0021 6.786 92.0021 7.458C92.0021 7.55133 91.9928 7.69133 91.9741 7.878H85.7441C85.7908 8.30733 85.9308 8.69933 86.1641 9.054C86.4068 9.39933 86.7241 9.67467 87.1161 9.88C87.5081 10.0853 87.9468 10.188 88.4321 10.188C88.9268 10.188 89.3748 10.076 89.7761 9.852C90.1868 9.61867 90.4715 9.31533 90.6301 8.942H91.7361C91.6241 9.35267 91.4095 9.726 91.0921 10.062C90.7841 10.398 90.3921 10.664 89.9161 10.86C89.4495 11.0467 88.9361 11.14 88.3761 11.14ZM90.8821 6.954C90.7795 6.32867 90.4948 5.82 90.0281 5.428C89.5708 5.036 89.0155 4.84 88.3621 4.84C87.6995 4.84 87.1255 5.036 86.6401 5.428C86.1641 5.82 85.8795 6.32867 85.7861 6.954H90.8821ZM93.9241 4H95.0441V6.982H99.1881V4H100.294V11H99.1881V8.018H95.0441V11H93.9241V4ZM106.041 11.14C105.341 11.14 104.706 10.9813 104.137 10.664C103.567 10.3467 103.119 9.91267 102.793 9.362C102.466 8.802 102.303 8.18133 102.303 7.5C102.303 6.81867 102.466 6.20267 102.793 5.652C103.119 5.092 103.567 4.65333 104.137 4.336C104.706 4.01867 105.341 3.86 106.041 3.86C106.741 3.86 107.375 4.01867 107.945 4.336C108.514 4.65333 108.962 5.092 109.289 5.652C109.615 6.20267 109.779 6.81867 109.779 7.5C109.779 8.172 109.611 8.788 109.275 9.348C108.948 9.89867 108.5 10.3373 107.931 10.664C107.361 10.9813 106.731 11.14 106.041 11.14ZM106.041 10.118C106.535 10.118 106.979 10.006 107.371 9.782C107.772 9.558 108.085 9.24533 108.309 8.844C108.533 8.44267 108.645 7.99467 108.645 7.5C108.645 7.00533 108.533 6.55733 108.309 6.156C108.085 5.75467 107.772 5.442 107.371 5.218C106.979 4.994 106.535 4.882 106.041 4.882C105.546 4.882 105.098 4.994 104.697 5.218C104.305 5.442 103.997 5.75467 103.773 6.156C103.549 6.548 103.437 6.996 103.437 7.5C103.437 7.99467 103.549 8.44267 103.773 8.844C103.997 9.24533 104.305 9.558 104.697 9.782C105.098 10.006 105.546 10.118 106.041 10.118ZM118.262 11.14C117.562 11.14 116.932 10.9813 116.372 10.664C115.812 10.3467 115.373 9.91267 115.056 9.362C114.739 8.81133 114.58 8.19067 114.58 7.5C114.58 6.81867 114.739 6.20267 115.056 5.652C115.383 5.092 115.826 4.65333 116.386 4.336C116.946 4.01867 117.571 3.86 118.262 3.86C119.195 3.86 119.975 4.11667 120.6 4.63C121.225 5.14333 121.603 5.82467 121.734 6.674H120.628C120.497 6.12333 120.222 5.68933 119.802 5.372C119.382 5.04533 118.869 4.882 118.262 4.882C117.777 4.882 117.338 4.99867 116.946 5.232C116.554 5.456 116.246 5.76867 116.022 6.17C115.798 6.57133 115.686 7.01467 115.686 7.5C115.686 7.98533 115.798 8.42867 116.022 8.83C116.246 9.23133 116.554 9.54867 116.946 9.782C117.338 10.006 117.777 10.118 118.262 10.118C118.869 10.118 119.382 9.95467 119.802 9.628C120.222 9.30133 120.497 8.86267 120.628 8.312H121.734C121.603 9.16133 121.221 9.84733 120.586 10.37C119.951 10.8833 119.177 11.14 118.262 11.14ZM124.757 13.94C124.103 13.94 123.557 13.73 123.119 13.31C122.68 12.89 122.461 12.2973 122.461 11.532V11.154H123.497V11.616C123.497 12.036 123.613 12.3673 123.847 12.61C124.089 12.862 124.397 12.988 124.771 12.988C125.144 12.988 125.443 12.8713 125.667 12.638C125.891 12.4047 126.003 12.092 126.003 11.7V11.532C126.003 11.2987 125.989 11.112 125.961 10.972C125.942 10.8227 125.891 10.6733 125.807 10.524L122.307 4H123.581L126.311 9.222C126.404 9.43667 126.455 9.6 126.465 9.712C126.483 9.61867 126.53 9.46933 126.605 9.264L128.775 4H129.937L127.305 10.244C127.23 10.4213 127.174 10.5893 127.137 10.748C127.109 10.8973 127.095 11.0793 127.095 11.294V11.672C127.095 12.3627 126.875 12.9133 126.437 13.324C125.998 13.7347 125.438 13.94 124.757 13.94ZM131.399 4H133.191L135.683 9.726L138.161 4H139.925V11H138.833V5.022L136.243 11H135.109L132.491 5.022V11H131.399V4ZM142.61 4H143.73V11H142.61V4ZM142.344 0.569999H143.996L143.24 3.006H143.1L142.344 0.569999ZM149.42 11.14C148.72 11.14 148.09 10.9813 147.53 10.664C146.97 10.3467 146.531 9.91267 146.214 9.362C145.897 8.81133 145.738 8.19067 145.738 7.5C145.738 6.81867 145.897 6.20267 146.214 5.652C146.541 5.092 146.984 4.65333 147.544 4.336C148.104 4.01867 148.729 3.86 149.42 3.86C150.353 3.86 151.133 4.11667 151.758 4.63C152.383 5.14333 152.761 5.82467 152.892 6.674H151.786C151.655 6.12333 151.38 5.68933 150.96 5.372C150.54 5.04533 150.027 4.882 149.42 4.882C148.935 4.882 148.496 4.99867 148.104 5.232C147.712 5.456 147.404 5.76867 147.18 6.17C146.956 6.57133 146.844 7.01467 146.844 7.5C146.844 7.98533 146.956 8.42867 147.18 8.83C147.404 9.23133 147.712 9.54867 148.104 9.782C148.496 10.006 148.935 10.118 149.42 10.118C150.027 10.118 150.54 9.95467 150.96 9.628C151.38 9.30133 151.655 8.86267 151.786 8.312H152.892C152.761 9.16133 152.379 9.84733 151.744 10.37C151.109 10.8833 150.335 11.14 149.42 11.14ZM154.832 4H155.952V6.982H160.096V4H161.202V11H160.096V8.018H155.952V11H154.832V4ZM166.949 11.14C166.249 11.14 165.614 10.9813 165.045 10.664C164.475 10.3467 164.027 9.91267 163.701 9.362C163.374 8.802 163.211 8.18133 163.211 7.5C163.211 6.81867 163.374 6.20267 163.701 5.652C164.027 5.092 164.475 4.65333 165.045 4.336C165.614 4.01867 166.249 3.86 166.949 3.86C167.649 3.86 168.283 4.01867 168.853 4.336C169.422 4.65333 169.87 5.092 170.197 5.652C170.523 6.20267 170.687 6.81867 170.687 7.5C170.687 8.172 170.519 8.788 170.183 9.348C169.856 9.89867 169.408 10.3373 168.839 10.664C168.269 10.9813 167.639 11.14 166.949 11.14ZM166.949 10.118C167.443 10.118 167.887 10.006 168.279 9.782C168.68 9.558 168.993 9.24533 169.217 8.844C169.441 8.44267 169.553 7.99467 169.553 7.5C169.553 7.00533 169.441 6.55733 169.217 6.156C168.993 5.75467 168.68 5.442 168.279 5.218C167.887 4.994 167.443 4.882 166.949 4.882C166.454 4.882 166.006 4.994 165.605 5.218C165.213 5.442 164.905 5.75467 164.681 6.156C164.457 6.548 164.345 6.996 164.345 7.5C164.345 7.99467 164.457 8.44267 164.681 8.844C164.905 9.24533 165.213 9.558 165.605 9.782C166.006 10.006 166.454 10.118 166.949 10.118ZM178.708 11.168C177.775 11.168 176.981 10.93 176.328 10.454C175.675 9.96867 175.301 9.30133 175.208 8.452H176.286C176.37 9.00267 176.622 9.44133 177.042 9.768C177.471 10.0853 178.027 10.244 178.708 10.244C179.343 10.244 179.837 10.132 180.192 9.908C180.556 9.684 180.738 9.38067 180.738 8.998C180.738 8.69 180.593 8.438 180.304 8.242C180.024 8.046 179.627 7.948 179.114 7.948H178.218V7.038H179.072C179.492 7.038 179.847 6.94 180.136 6.744C180.425 6.548 180.57 6.296 180.57 5.988C180.57 5.61467 180.397 5.316 180.052 5.092C179.707 4.85867 179.245 4.742 178.666 4.742C178.031 4.742 177.513 4.90067 177.112 5.218C176.72 5.526 176.487 5.96 176.412 6.52H175.348C175.423 5.71733 175.763 5.06867 176.37 4.574C176.977 4.07933 177.765 3.832 178.736 3.832C179.343 3.832 179.865 3.92533 180.304 4.112C180.752 4.28933 181.088 4.53667 181.312 4.854C181.545 5.162 181.662 5.512 181.662 5.904C181.662 6.24933 181.559 6.55733 181.354 6.828C181.158 7.08933 180.878 7.29467 180.514 7.444C180.934 7.56533 181.261 7.77067 181.494 8.06C181.737 8.34 181.858 8.66667 181.858 9.04C181.858 9.69333 181.564 10.2113 180.976 10.594C180.397 10.9767 179.641 11.168 178.708 11.168ZM40.666 21.2H47.134V22.376H41.926V31H40.666V21.2ZM52.5372 31.21C51.5759 31.21 50.7079 30.9907 49.9332 30.552C49.1679 30.104 48.5612 29.4927 48.1132 28.718C47.6746 27.934 47.4552 27.0613 47.4552 26.1C47.4552 25.1387 47.6746 24.2707 48.1132 23.496C48.5612 22.712 49.1679 22.1007 49.9332 21.662C50.7079 21.214 51.5759 20.99 52.5372 20.99C53.4986 20.99 54.3666 21.214 55.1412 21.662C55.9159 22.1007 56.5226 22.712 56.9612 23.496C57.4092 24.2707 57.6332 25.1387 57.6332 26.1C57.6332 27.0613 57.4092 27.934 56.9612 28.718C56.5226 29.4927 55.9159 30.104 55.1412 30.552C54.3666 30.9907 53.4986 31.21 52.5372 31.21ZM52.5372 30.034C53.2559 30.034 53.9046 29.866 54.4832 29.53C55.0712 29.1847 55.5286 28.7133 55.8552 28.116C56.1912 27.5093 56.3592 26.8373 56.3592 26.1C56.3592 25.3627 56.1912 24.6953 55.8552 24.098C55.5286 23.4913 55.0712 23.02 54.4832 22.684C53.9046 22.3387 53.2559 22.166 52.5372 22.166C51.8186 22.166 51.1699 22.3387 50.5912 22.684C50.0126 23.02 49.5552 23.4913 49.2192 24.098C48.8926 24.6953 48.7292 25.3627 48.7292 26.1C48.7292 26.8373 48.8926 27.5093 49.2192 28.116C49.5552 28.7133 50.0126 29.1847 50.5912 29.53C51.1699 29.866 51.8186 30.034 52.5372 30.034ZM64.0551 20.78C63.7097 21.3213 63.5091 21.8113 63.4531 22.25H63.4811C63.7051 22.2967 63.8731 22.3947 63.9851 22.544C64.1064 22.684 64.1671 22.852 64.1671 23.048C64.1671 23.272 64.0877 23.4727 63.9291 23.65C63.7797 23.818 63.5791 23.902 63.3271 23.902C63.0844 23.902 62.8791 23.8227 62.7111 23.664C62.5524 23.496 62.4731 23.2673 62.4731 22.978C62.4731 22.642 62.5664 22.25 62.7531 21.802C62.9397 21.354 63.1497 21.0133 63.3831 20.78H64.0551ZM66.5611 20.78C66.2157 21.312 66.0104 21.802 65.9451 22.25H65.9871C66.2017 22.2967 66.3651 22.3947 66.4771 22.544C66.5984 22.6933 66.6591 22.8613 66.6591 23.048C66.6591 23.272 66.5797 23.4727 66.4211 23.65C66.2717 23.818 66.0711 23.902 65.8191 23.902C65.5764 23.902 65.3711 23.8227 65.2031 23.664C65.0444 23.496 64.9651 23.2673 64.9651 22.978C64.9651 22.642 65.0584 22.25 65.2451 21.802C65.4317 21.354 65.6417 21.0133 65.8751 20.78H66.5611ZM68.5348 29.824C68.7588 28.9093 68.9174 27.9807 69.0108 27.038C69.1134 26.0953 69.1648 24.952 69.1648 23.608V23.062V21.2H76.3328V29.824H77.5928V33.212H76.3888V31H68.7168V33.212H67.4988V29.824H68.5348ZM75.0868 22.348H70.3968V23.608C70.3968 24.9333 70.3454 26.072 70.2428 27.024C70.1494 27.976 69.9861 28.9093 69.7528 29.824H75.0868V22.348ZM84.0919 31.21C83.1306 31.21 82.2626 30.9907 81.4879 30.552C80.7226 30.104 80.1159 29.4927 79.6679 28.718C79.2293 27.934 79.0099 27.0613 79.0099 26.1C79.0099 25.1387 79.2293 24.2707 79.6679 23.496C80.1159 22.712 80.7226 22.1007 81.4879 21.662C82.2626 21.214 83.1306 20.99 84.0919 20.99C85.0533 20.99 85.9213 21.214 86.6959 21.662C87.4706 22.1007 88.0773 22.712 88.5159 23.496C88.9639 24.2707 89.1879 25.1387 89.1879 26.1C89.1879 27.0613 88.9639 27.934 88.5159 28.718C88.0773 29.4927 87.4706 30.104 86.6959 30.552C85.9213 30.9907 85.0533 31.21 84.0919 31.21ZM84.0919 30.034C84.8106 30.034 85.4593 29.866 86.0379 29.53C86.6259 29.1847 87.0833 28.7133 87.4099 28.116C87.7459 27.5093 87.9139 26.8373 87.9139 26.1C87.9139 25.3627 87.7459 24.6953 87.4099 24.098C87.0833 23.4913 86.6259 23.02 86.0379 22.684C85.4593 22.3387 84.8106 22.166 84.0919 22.166C83.3733 22.166 82.7246 22.3387 82.1459 22.684C81.5673 23.02 81.1099 23.4913 80.7739 24.098C80.4473 24.6953 80.2839 25.3627 80.2839 26.1C80.2839 26.8373 80.4473 27.5093 80.7739 28.116C81.1099 28.7133 81.5673 29.1847 82.1459 29.53C82.7246 29.866 83.3733 30.034 84.0919 30.034ZM98.3678 21.2V22.32H92.8938V25.316H95.4838C96.5664 25.316 97.4158 25.5727 98.0318 26.086C98.6571 26.59 98.9698 27.2807 98.9698 28.158C98.9698 29.0353 98.6571 29.7307 98.0318 30.244C97.4064 30.748 96.5571 31 95.4838 31H91.6758V21.2H98.3678ZM95.3998 29.908C96.1184 29.908 96.6831 29.7493 97.0938 29.432C97.5044 29.1147 97.7098 28.69 97.7098 28.158C97.7098 27.6167 97.5044 27.192 97.0938 26.884C96.6831 26.5667 96.1184 26.408 95.3998 26.408H92.8938V29.908H95.3998ZM104.698 21.2C105.855 21.2 106.761 21.466 107.414 21.998C108.077 22.53 108.408 23.2627 108.408 24.196C108.408 25.12 108.077 25.8527 107.414 26.394C106.751 26.926 105.846 27.192 104.698 27.192H102.766V31H101.506V21.2H104.698ZM104.712 26.142C105.468 26.142 106.061 25.9693 106.49 25.624C106.929 25.2787 107.148 24.8073 107.148 24.21C107.148 23.6127 106.929 23.1413 106.49 22.796C106.061 22.4507 105.468 22.278 104.712 22.278H102.766V26.142H104.712ZM115.031 31.21C114.07 31.21 113.202 30.9907 112.427 30.552C111.662 30.104 111.055 29.4927 110.607 28.718C110.169 27.934 109.949 27.0613 109.949 26.1C109.949 25.1387 110.169 24.2707 110.607 23.496C111.055 22.712 111.662 22.1007 112.427 21.662C113.202 21.214 114.07 20.99 115.031 20.99C115.993 20.99 116.861 21.214 117.635 21.662C118.41 22.1007 119.017 22.712 119.455 23.496C119.903 24.2707 120.127 25.1387 120.127 26.1C120.127 27.0613 119.903 27.934 119.455 28.718C119.017 29.4927 118.41 30.104 117.635 30.552C116.861 30.9907 115.993 31.21 115.031 31.21ZM115.031 30.034C115.75 30.034 116.399 29.866 116.977 29.53C117.565 29.1847 118.023 28.7133 118.349 28.116C118.685 27.5093 118.853 26.8373 118.853 26.1C118.853 25.3627 118.685 24.6953 118.349 24.098C118.023 23.4913 117.565 23.02 116.977 22.684C116.399 22.3387 115.75 22.166 115.031 22.166C114.313 22.166 113.664 22.3387 113.085 22.684C112.507 23.02 112.049 23.4913 111.713 24.098C111.387 24.6953 111.223 25.3627 111.223 26.1C111.223 26.8373 111.387 27.5093 111.713 28.116C112.049 28.7133 112.507 29.1847 113.085 29.53C113.664 29.866 114.313 30.034 115.031 30.034ZM128.579 22.404H124.785V21.2H133.619V22.404H129.839V31H128.579V22.404ZM137.663 31.21C137.178 31.21 136.735 31.1027 136.333 30.888C135.941 30.664 135.629 30.3513 135.395 29.95C135.171 29.5393 135.059 29.068 135.059 28.536V28.13H136.277V28.564C136.277 29.0307 136.403 29.4133 136.655 29.712C136.917 30.0107 137.248 30.16 137.649 30.16C137.995 30.16 138.27 30.0713 138.475 29.894C138.681 29.7073 138.783 29.46 138.783 29.152C138.783 28.816 138.671 28.4567 138.447 28.074L134.093 21.2H135.563L139.105 27.066C139.32 27.402 139.455 27.7333 139.511 28.06L141.793 21.2H143.067L140.435 28.774C140.155 29.586 139.791 30.1973 139.343 30.608C138.905 31.0093 138.345 31.21 137.663 31.21ZM147.392 22.404H143.598V21.2H152.432V22.404H148.652V31H147.392V22.404ZM153.38 24.112C153.725 23.5707 153.926 23.0807 153.982 22.642H153.954C153.73 22.5953 153.557 22.502 153.436 22.362C153.324 22.2127 153.268 22.04 153.268 21.844C153.268 21.62 153.342 21.424 153.492 21.256C153.65 21.0787 153.856 20.99 154.108 20.99C154.35 20.99 154.551 21.0693 154.71 21.228C154.878 21.3867 154.962 21.6107 154.962 21.9C154.962 22.2453 154.868 22.642 154.682 23.09C154.495 23.538 154.285 23.8787 154.052 24.112H153.38ZM155.872 24.112C156.217 23.5707 156.418 23.0807 156.474 22.642H156.446C156.222 22.5953 156.049 22.502 155.928 22.362C155.816 22.2127 155.76 22.04 155.76 21.844C155.76 21.62 155.834 21.424 155.984 21.256C156.142 21.0787 156.348 20.99 156.6 20.99C156.842 20.99 157.043 21.0693 157.202 21.228C157.37 21.3867 157.454 21.6107 157.454 21.9C157.454 22.2453 157.36 22.642 157.174 23.09C156.987 23.538 156.777 23.8787 156.544 24.112H155.872Z" fill="white"/>
<g clip-path="url(#clip0_132_3584)">
<path d="M15.6533 2.5491C17.512 2.54793 19.3518 2.92101 21.0632 3.64612C22.7746 4.37122 24.3225 5.43349 25.6145 6.76961C28.2717 9.5123 29.7575 13.1812 29.7575 17C29.7575 20.8188 28.2717 24.4877 25.6145 27.2304C24.3218 28.5656 22.7738 29.6272 21.0625 30.3523C19.3513 31.0773 17.5118 31.4509 15.6533 31.4509C13.7948 31.4509 11.9553 31.0773 10.2441 30.3523C8.53285 29.6272 6.98484 28.5656 5.69206 27.2304C3.03489 24.4877 1.5491 20.8188 1.5491 17C1.5491 13.1812 3.03489 9.5123 5.69206 6.76961C6.98412 5.43349 8.53199 4.37122 10.2434 3.64612C11.9548 2.92101 13.7946 2.54792 15.6533 2.5491ZM15.6533 1C7.00822 1 0 8.16344 0 17C0 25.8366 7.00822 33 15.6533 33C24.2984 33 31.3066 25.8366 31.3066 17C31.3066 8.16344 24.2984 1 15.6533 1Z" fill="white"/>
<path d="M27.5865 9.27839C27.6088 9.2665 28.7957 10.7418 29.4197 12.9561C29.7959 14.3032 29.9111 15.7097 29.7591 17.1C29.7599 17.0674 29.7605 17.017 29.7591 16.9553C29.7591 16.9553 29.7576 16.8891 29.754 16.8326C29.749 16.7547 29.6257 16.1103 29.0536 15.9035C28.791 15.8161 28.5055 15.8271 28.2504 15.9344C28.2445 15.9369 28.2397 15.9391 28.2361 15.9407C28.0801 16.0108 27.9031 16.1376 27.5858 16.6653C27.4284 16.927 27.3245 17.1409 27.0098 17.8731C26.8225 18.3087 26.6055 18.7318 26.4338 19.1737C26.3504 19.3893 26.241 19.5939 26.1081 19.7831C25.863 20.1324 25.6965 20.1991 25.6446 20.2177C25.494 20.2706 25.3304 20.2738 25.1779 20.2269C25.0254 20.1799 24.8919 20.0853 24.7971 19.9569C24.6955 19.8192 24.6329 19.6565 24.616 19.4861C24.5892 19.2953 24.599 19.1011 24.645 18.9139C24.6738 18.7852 24.7121 18.674 24.913 18.262C25.1837 17.7069 25.2314 17.6683 25.3259 17.4073C25.3961 17.2143 25.4494 17.0156 25.4852 16.8134C25.5374 16.5537 25.5521 16.2878 25.5287 16.0239C25.5107 15.7683 25.4469 15.518 25.3403 15.2851C25.2353 15.0685 25.0959 14.8703 24.9275 14.6984C24.7857 14.5444 24.6279 14.406 24.4567 14.2855C24.2264 14.1289 23.9784 14 23.7179 13.9016C23.2107 13.6896 22.8033 13.5602 22.6676 13.5177C22.5065 13.4673 22.0044 13.3127 21.2334 13.1338C20.6169 12.9908 20.5939 13.0098 19.8934 12.8441C19.3354 12.7121 19.0394 12.6266 18.8939 12.5833C18.4431 12.4495 18.1099 12.3277 18.0175 12.2936C17.6116 12.1439 17.3448 12.0231 16.8223 11.7866C16.4939 11.6497 16.1767 11.4874 15.8735 11.3013C15.7084 11.1968 15.5511 11.0807 15.4027 10.9536C15.2239 10.799 15.0613 10.6267 14.9174 10.4394C14.6784 10.1445 14.6837 10.0804 14.7001 10.0482C14.7256 9.99798 14.8047 9.97357 15.0405 9.98303C15.2959 9.99087 15.5492 10.0323 15.7938 10.1062C16.1253 10.2197 16.4635 10.3138 16.7934 10.4321C17.0059 10.5084 17.5885 10.7164 18.242 10.9029C18.4964 10.9755 18.7859 11.0455 19.3647 11.1854C20.0394 11.3485 20.3768 11.43 20.8061 11.5186C21.3403 11.6444 21.8823 11.7339 22.4286 11.7866C22.778 11.8149 23.043 11.8151 23.573 11.8156C24.0177 11.829 24.4628 11.8145 24.9057 11.7721C24.993 11.7613 25.413 11.6635 26.253 11.4679C26.714 11.3605 26.9497 11.3031 27.2018 11.1202C27.3869 10.9943 27.5386 10.8253 27.6437 10.6277C27.7143 10.4913 27.7632 10.3446 27.7885 10.1931C27.8586 9.69095 27.5743 9.28485 27.5865 9.27839Z" fill="white"/>
<path d="M16.5642 31.4247C16.5663 31.4394 15.9371 31.5377 15.8034 31.5572C14.2725 31.78 12.2227 31.2099 12.2227 31.2099C10.8544 30.8254 9.56084 30.2125 8.39662 29.3972C8.88445 29.7092 9.46869 29.7072 9.83841 29.409C10.0568 29.2211 10.1939 28.9559 10.2208 28.6691C10.2389 28.4963 10.218 28.2765 9.91891 27.7319C9.77059 27.4619 9.63677 27.2629 9.15806 26.6181C8.87325 26.2344 8.61441 25.8309 8.31619 25.4577C8.17038 25.2758 8.04742 25.0767 7.95005 24.8648C7.76984 24.4734 7.79617 24.2931 7.80631 24.2379C7.84179 24.0619 7.93602 23.9032 8.07355 23.7878C8.18564 23.6972 8.32069 23.6394 8.46366 23.621C8.63495 23.6003 8.80864 23.6267 8.96607 23.6973C9.14611 23.7693 9.31055 23.8754 9.45031 24.0098C9.54794 24.0998 9.62545 24.1893 9.88276 24.5732C10.2295 25.0904 10.2389 25.1517 10.4185 25.366C10.5511 25.5247 10.6973 25.6714 10.8556 25.8044C11.0555 25.9807 11.28 26.127 11.522 26.2387C11.7541 26.3511 12.0048 26.4203 12.2617 26.443C12.5043 26.4589 12.7478 26.4353 12.9828 26.3729C13.1892 26.325 13.39 26.2551 13.5817 26.1646C13.8353 26.0398 14.0735 25.8856 14.2913 25.7053C14.7335 25.3641 15.053 25.0696 15.1589 24.9712C15.2846 24.8543 15.6741 24.4888 16.2213 23.8984C16.6588 23.4261 16.6539 23.3963 17.1538 22.8614C17.552 22.4353 17.7768 22.217 17.8883 22.1103C18.2338 21.7797 18.509 21.5468 18.5856 21.4823C18.9221 21.1993 19.1628 21.0245 19.6341 20.6821C19.9199 20.4612 20.2223 20.2627 20.5387 20.0883C20.7134 19.9951 20.8946 19.9146 21.0808 19.8473C21.306 19.7672 21.5387 19.7101 21.7754 19.677C22.1537 19.6141 22.207 19.6509 22.2267 19.6814C22.2576 19.7292 22.2387 19.8112 22.1108 20.0145C21.9745 20.2358 21.8099 20.4385 21.6213 20.6173C21.354 20.8529 21.1004 21.1041 20.8299 21.3358C20.6555 21.4851 20.1786 21.8948 19.6843 22.3778C19.4919 22.5659 19.2841 22.7861 18.8684 23.2267C18.3838 23.7402 18.1415 23.997 17.8465 24.3313C17.4657 24.7396 17.1126 25.1729 16.7896 25.6284C16.5877 25.9225 16.453 26.1562 16.1837 26.6235C15.9464 27.0091 15.7332 27.4091 15.5454 27.8212C15.5105 27.9035 15.3827 28.3231 15.1271 29.1623C14.9868 29.6229 14.9173 29.8597 14.9488 30.1738C14.9645 30.3996 15.035 30.6182 15.1541 30.8106C15.242 30.9374 15.3445 31.0535 15.4596 31.1564C15.5278 31.2324 15.6041 31.3009 15.6872 31.3604C15.8357 31.4426 15.9851 31.4418 16.2763 31.4369C16.4535 31.4339 16.5634 31.4186 16.5642 31.4247Z" fill="white"/>
<path d="M3.03549 10.4046C3.0164 10.3927 3.81811 8.40314 5.32203 6.83409C7.00246 5.08088 9.34678 4.05734 9.34884 4.0635L9.34678 4.06439C8.48087 4.40913 7.98531 5.11236 8.08336 5.69257C8.13994 5.97395 8.29785 6.22477 8.52713 6.39742C8.66689 6.50061 8.86684 6.59411 9.48791 6.61251C9.79587 6.62164 10.0352 6.6072 10.8337 6.52167C11.3088 6.47078 11.7879 6.45239 12.2608 6.38464C12.4915 6.35123 12.7255 6.34624 12.9574 6.36977C13.3862 6.413 13.5282 6.52713 13.5706 6.56384C13.7043 6.68368 13.7933 6.84538 13.823 7.02244C13.8443 7.16501 13.8256 7.3107 13.7689 7.44327C13.6999 7.60138 13.5891 7.73769 13.4484 7.83755C13.295 7.95621 13.1202 8.04411 12.9334 8.0964C12.8064 8.13493 12.6899 8.1563 12.2286 8.18339C11.607 8.2199 11.5493 8.19689 11.2736 8.24305C11.0696 8.27683 10.869 8.32846 10.6741 8.39736C10.4207 8.48025 10.1808 8.59952 9.96184 8.75144C9.74723 8.89453 9.56043 9.07545 9.41055 9.28537C9.27381 9.48635 9.17069 9.70823 9.10523 9.94234C9.04185 10.1446 9.00022 10.3531 8.98106 10.5641C8.95999 10.8461 8.97206 11.1295 9.01704 11.4087C9.08677 11.9628 9.17857 12.3875 9.20969 12.5287C9.24664 12.6964 9.36406 13.2174 9.59547 13.9885C9.78052 14.605 9.80873 14.616 10.0162 15.3181C10.1815 15.8774 10.2556 16.1818 10.291 16.3321C10.4007 16.7974 10.4619 17.1528 10.4786 17.2515C10.5518 17.685 10.5804 17.9812 10.6364 18.561C10.6819 18.9193 10.6997 19.2807 10.6894 19.6418C10.6811 19.8396 10.6587 20.0366 10.6223 20.2312C10.5771 20.4659 10.5082 20.6954 10.4167 20.9162C10.2791 21.2742 10.2204 21.3014 10.184 21.3029C10.1272 21.3053 10.0661 21.2475 9.95575 21.0341C9.83416 20.8044 9.74297 20.5597 9.68448 20.3064C9.61697 19.9567 9.52911 19.6107 9.46666 19.26C9.42641 19.034 9.31525 18.4152 9.1496 17.7443C9.0851 17.4831 9.00068 17.1922 8.83183 16.6105C8.63501 15.9325 8.5366 15.5934 8.39808 15.1696C8.23931 14.6343 8.04493 14.1102 7.81624 13.6009C7.66515 13.2776 7.53205 13.0431 7.26586 12.574C7.05389 12.1738 6.81729 11.7872 6.55742 11.4164C6.50412 11.3446 6.20731 11.0216 5.61369 10.3757C5.28787 10.0212 5.11911 9.8412 4.83235 9.70905C4.6298 9.60805 4.40569 9.55792 4.17941 9.56301C4.02395 9.56021 3.86964 9.59016 3.72652 9.65091C3.54547 9.7341 3.39181 9.86707 3.28348 10.0343C3.26355 10.0688 3.22477 10.1428 3.15453 10.2459C3.11876 10.3016 3.07897 10.3547 3.03549 10.4046Z" fill="white"/>
<path d="M16.816 12.3763C16.803 12.2935 16.6357 12.3268 16.1739 12.1062C16.03 12.0428 15.8933 11.9643 15.7658 11.8722C15.6565 11.7911 15.6606 11.7762 15.6068 11.7552C15.5043 11.7151 15.4196 11.7417 15.0277 11.8842C14.7725 11.977 14.7333 11.9931 14.7217 12.0372C14.6986 12.1251 14.8115 12.222 15.0367 12.4153C15.2046 12.5665 15.4003 12.6837 15.6128 12.7603C16.0293 12.9055 16.8451 12.5621 16.816 12.3763Z" fill="white"/>
<path d="M18.2256 12.918C18.4325 12.9866 18.6074 13.0415 18.738 13.0816C19.0108 13.1655 19.1472 13.2074 19.2965 13.244C19.4412 13.2796 19.5249 13.2947 19.7956 13.3589C20.1435 13.4414 20.165 13.4542 20.168 13.4738C20.1832 13.5747 19.687 13.7314 19.0232 13.9412C18.9386 13.9679 18.7036 14.0415 18.3934 14.1274C18.1049 14.2073 17.9607 14.2472 17.8587 14.266C17.5301 14.3266 17.1567 14.3954 16.7813 14.2343C16.6314 14.1636 16.4927 14.0716 16.3693 13.961C16.122 13.7632 15.9336 13.6125 15.9376 13.5015C15.9437 13.3309 16.4087 13.1221 18.2256 12.918Z" fill="white"/>
<path d="M21.1875 14.1656C21.5925 14.0996 22.0061 14.1087 22.4078 14.1925C22.5639 14.2251 23.2084 14.3597 23.2124 14.5545C23.2152 14.6949 22.8829 14.75 21.6166 15.1848C21.1661 15.3394 20.7134 15.4876 20.2623 15.6407C20.0004 15.7373 19.7314 15.8135 19.4577 15.8686C19.0803 15.9402 18.8102 15.9883 18.4788 15.8955C18.2414 15.8302 18.0245 15.7056 17.8486 15.5334C17.6981 15.381 17.5913 15.2729 17.5938 15.1579C17.602 14.7777 18.8 14.5732 21.1875 14.1656Z" fill="white"/>
<path d="M18.9243 20.5003C19.0025 20.5304 19.0573 20.369 19.4795 20.0795C19.6064 19.9868 19.7428 19.9077 19.8863 19.8434C20.0112 19.7894 20.0221 19.8003 20.0672 19.7643C20.1532 19.6957 20.1726 19.609 20.2453 19.1984C20.2927 18.931 20.2985 18.8891 20.266 18.8569C20.2015 18.7929 20.0612 18.8422 19.7811 18.9404C19.5661 19.01 19.3668 19.1208 19.194 19.2664C18.8599 19.5543 18.7488 20.4325 18.9243 20.5003Z" fill="white"/>
<path d="M17.75 21.452C17.5871 21.5968 17.452 21.7207 17.3519 21.8137C17.1428 22.0078 17.0382 22.1049 16.9317 22.2159C16.8286 22.3233 16.7736 22.3882 16.5825 22.5905C16.337 22.8504 16.3151 22.8625 16.2967 22.8553C16.2017 22.818 16.3143 22.31 16.465 21.6303C16.4842 21.5437 16.5381 21.3035 16.6191 20.9919C16.6943 20.7022 16.7319 20.5573 16.7667 20.4596C16.8787 20.1448 17.006 19.7871 17.3334 19.5427C17.4695 19.4484 17.6187 19.3743 17.7762 19.3229C18.0712 19.2077 18.2959 19.1201 18.3901 19.1791C18.5347 19.2698 18.4827 19.7769 17.75 21.452Z" fill="white"/>
<path d="M15.186 23.392C15.0405 23.7756 14.8256 24.1291 14.552 24.435C14.4457 24.5538 14.0065 25.0444 13.8359 24.9503C13.7129 24.8824 13.8316 24.5672 14.089 23.2534C14.1806 22.7859 14.2789 22.3198 14.3721 21.8527C14.4196 21.5776 14.4882 21.3065 14.5775 21.042C14.7044 20.6795 14.798 20.4216 15.0442 20.1812C15.2196 20.0083 15.436 19.8829 15.6731 19.8168C15.8803 19.7627 16.0274 19.7244 16.1257 19.7841C16.4507 19.9815 16.0282 21.121 15.186 23.392Z" fill="white"/>
<path d="M11.1959 18.2371C11.1305 18.2895 11.2425 18.4181 11.2805 18.9285C11.2968 19.0849 11.2967 19.2426 11.2801 19.3989C11.264 19.5341 11.2491 19.5379 11.2576 19.5951C11.2737 19.7039 11.3388 19.7642 11.6572 20.0335C11.8646 20.2089 11.8979 20.235 11.942 20.2231C12.0298 20.1995 12.0578 20.0534 12.1136 19.7619C12.1615 19.5411 12.166 19.313 12.1269 19.0905C12.0459 18.657 11.3427 18.1195 11.1959 18.2371Z" fill="white"/>
<path d="M10.9648 16.7436C10.9215 16.53 10.8823 16.3509 10.8523 16.2176C10.7895 15.9392 10.7581 15.8 10.7157 15.6522C10.6747 15.509 10.6463 15.4288 10.5675 15.162C10.4662 14.8191 10.4667 14.7941 10.4822 14.7818C10.5622 14.7185 10.9447 15.0711 11.4566 15.5431C11.5218 15.6032 11.7023 15.7706 11.931 15.9971C12.1437 16.2078 12.25 16.3132 12.317 16.3924C12.5328 16.6474 12.7781 16.9372 12.8247 17.3431C12.8379 17.5083 12.8269 17.6744 12.7922 17.8364C12.7434 18.1494 12.7063 18.3877 12.6079 18.4394C12.4568 18.5189 12.0446 18.219 10.9648 16.7436Z" fill="white"/>
<path d="M10.577 13.5527C10.3185 13.234 10.1209 12.8705 9.99401 12.4803C9.94475 12.3286 9.74139 11.7024 9.90851 11.6022C10.029 11.53 10.2419 11.7911 11.2482 12.674C11.6063 12.9881 11.9598 13.3074 12.3168 13.6229C12.5308 13.8022 12.7305 13.9977 12.9143 14.2079C13.1639 14.4998 13.3398 14.7104 13.4239 15.0441C13.4852 15.2826 13.4848 15.5327 13.4228 15.7709C13.3653 15.9772 13.3245 16.1236 13.2235 16.1786C12.8895 16.3603 12.1168 15.4223 10.577 13.5527Z" fill="white"/>
</g>
<defs>
<clipPath id="clip0_132_3584">
<rect width="31.3066" height="32" fill="white" transform="translate(0 1)"/>
</clipPath>
</defs>
</svg>
