<svg width="212" height="59" viewBox="0 0 212 59" fill="none" xmlns="http://www.w3.org/2000/svg">
<path d="M52.424 21.42C50.52 21.42 48.8027 20.9813 47.272 20.104C45.7413 19.208 44.5373 17.9853 43.66 16.436C42.8013 14.8867 42.372 13.1413 42.372 11.2C42.372 9.25867 42.8013 7.51333 43.66 5.964C44.5373 4.396 45.7413 3.17333 47.272 2.296C48.8027 1.41867 50.52 0.979999 52.424 0.979999C54.16 0.979999 55.728 1.33467 57.128 2.044C58.5467 2.75333 59.6947 3.74267 60.572 5.012C61.4493 6.28133 61.9627 7.71867 62.112 9.324H57.632C57.3707 8.01733 56.764 6.98133 55.812 6.216C54.86 5.432 53.7027 5.04 52.34 5.04C50.9773 5.04 49.8013 5.44133 48.812 6.244C47.8227 7.04667 47.1973 8.10133 46.936 9.408H53.656V12.992H46.936C47.1973 14.2987 47.8227 15.3533 48.812 16.156C49.8013 16.9587 50.9773 17.36 52.34 17.36C53.7027 17.36 54.86 16.9773 55.812 16.212C56.764 15.428 57.3707 14.3827 57.632 13.076H62.084C61.9347 14.6813 61.4213 16.1187 60.544 17.388C59.6853 18.6573 58.5467 19.6467 57.128 20.356C55.728 21.0653 54.16 21.42 52.424 21.42ZM64.7145 17.528C64.9011 16.5013 65.0318 15.428 65.1065 14.308C65.1998 13.188 65.2465 11.8067 65.2465 10.164V8.736V7H77.7345V17.528H79.8345V24.052H76.0825V21H66.7585V24.052H63.0345V17.528H64.7145ZM73.8705 10.388H68.9705V10.808C68.9705 13.3467 68.7745 15.6147 68.3825 17.612H73.8705V10.388ZM82.2307 7H86.0667V15.736L92.3947 7H96.3987V21H92.5347V12.264L86.2347 21H82.2307V7ZM100.344 7H104.236V12.208H110.172V7H114.064V21H110.172V15.792H104.236V21H100.344V7ZM121.465 21.308C119.971 21.308 118.795 20.9533 117.937 20.244C117.078 19.5347 116.649 18.5733 116.649 17.36C116.649 14.5973 119.001 13.076 123.705 12.796C124.675 12.7213 125.366 12.5907 125.777 12.404C126.187 12.2173 126.393 11.9373 126.393 11.564C126.393 11.06 126.15 10.6493 125.665 10.332C125.179 9.996 124.563 9.828 123.817 9.828C123.051 9.828 122.407 10.0053 121.885 10.36C121.381 10.7147 121.054 11.2187 120.905 11.872H117.265C117.489 10.304 118.207 9.05333 119.421 8.12C120.634 7.18667 122.155 6.72 123.985 6.72C125.851 6.72 127.335 7.24267 128.437 8.288C129.557 9.31467 130.117 10.696 130.117 12.432V17.584H131.741V21L126.869 21.028V19.264C126.271 19.8987 125.487 20.4027 124.517 20.776C123.565 21.1307 122.547 21.308 121.465 21.308ZM122.389 18.312C123.117 18.312 123.798 18.144 124.433 17.808C125.086 17.472 125.599 17.024 125.973 16.464C126.365 15.904 126.561 15.3067 126.561 14.672V14.504C126.393 14.6347 126.057 14.7653 125.553 14.896C125.067 15.0267 124.517 15.12 123.901 15.176C122.725 15.2693 121.875 15.4653 121.353 15.764C120.849 16.044 120.597 16.4453 120.597 16.968C120.597 17.3973 120.746 17.7333 121.045 17.976C121.362 18.2 121.81 18.312 122.389 18.312ZM43.744 33.4H61.216V53H56.736V37.656H48.224V53H43.744V33.4ZM65.6488 53.252C64.8834 53.252 64.2208 53.1587 63.6608 52.972V49.472C64.0714 49.528 64.4821 49.556 64.8928 49.556C65.5274 49.556 65.9568 49.2853 66.1808 48.744C66.5541 47.792 66.7408 45.3093 66.7408 41.296V39H79.0328V53H75.1408V42.612H70.3248V43.2C70.3061 45.3093 70.2221 47.0267 70.0728 48.352C69.9234 49.6773 69.6154 50.732 69.1488 51.516C68.4208 52.6733 67.2541 53.252 65.6488 53.252ZM86.4129 53.308C84.9196 53.308 83.7436 52.9533 82.8849 52.244C82.0263 51.5347 81.5969 50.5733 81.5969 49.36C81.5969 46.5973 83.9489 45.076 88.6529 44.796C89.6236 44.7213 90.3143 44.5907 90.7249 44.404C91.1356 44.2173 91.3409 43.9373 91.3409 43.564C91.3409 43.06 91.0983 42.6493 90.6129 42.332C90.1276 41.996 89.5116 41.828 88.7649 41.828C87.9996 41.828 87.3556 42.0053 86.8329 42.36C86.3289 42.7147 86.0023 43.2187 85.8529 43.872H82.2129C82.4369 42.304 83.1556 41.0533 84.3689 40.12C85.5823 39.1867 87.1036 38.72 88.9329 38.72C90.7996 38.72 92.2836 39.2427 93.3849 40.288C94.5049 41.3147 95.0649 42.696 95.0649 44.432V49.584H96.6889V53L91.8169 53.028V51.264C91.2196 51.8987 90.4356 52.4027 89.4649 52.776C88.5129 53.1307 87.4956 53.308 86.4129 53.308ZM87.3369 50.312C88.0649 50.312 88.7463 50.144 89.3809 49.808C90.0343 49.472 90.5476 49.024 90.9209 48.464C91.3129 47.904 91.5089 47.3067 91.5089 46.672V46.504C91.3409 46.6347 91.0049 46.7653 90.5009 46.896C90.0156 47.0267 89.4649 47.12 88.8489 47.176C87.6729 47.2693 86.8236 47.4653 86.3009 47.764C85.7969 48.044 85.5449 48.4453 85.5449 48.968C85.5449 49.3973 85.6943 49.7333 85.9929 49.976C86.3103 50.2 86.7583 50.312 87.3369 50.312ZM102.182 42.668H96.8904V39H111.394V42.668H106.074V53H102.182V42.668ZM122.303 51.74C121.314 52.7667 120.082 53.28 118.607 53.28C117.375 53.28 116.274 52.972 115.303 52.356C114.332 51.7213 113.567 50.8533 113.007 49.752C112.466 48.632 112.195 47.3813 112.195 46C112.195 44.6187 112.466 43.3773 113.007 42.276C113.567 41.156 114.332 40.288 115.303 39.672C116.274 39.0373 117.375 38.72 118.607 38.72C120.082 38.72 121.314 39.2333 122.303 40.26V33.12H126.195V40.288C127.203 39.2427 128.454 38.72 129.947 38.72C131.16 38.72 132.252 39.0373 133.223 39.672C134.212 40.288 134.978 41.156 135.519 42.276C136.079 43.3773 136.359 44.6187 136.359 46C136.359 47.3813 136.079 48.632 135.519 49.752C134.978 50.8533 134.212 51.7213 133.223 52.356C132.252 52.972 131.16 53.28 129.947 53.28C128.454 53.28 127.203 52.7573 126.195 51.712V58.6H122.303V51.74ZM119.335 49.668C120.231 49.668 120.978 49.3227 121.575 48.632C122.191 47.9227 122.499 47.0453 122.499 46C122.499 44.936 122.191 44.0587 121.575 43.368C120.978 42.6587 120.231 42.304 119.335 42.304C118.439 42.304 117.683 42.6587 117.067 43.368C116.47 44.0587 116.171 44.936 116.171 46C116.171 47.0453 116.47 47.9227 117.067 48.632C117.683 49.3227 118.439 49.668 119.335 49.668ZM129.219 49.668C130.115 49.668 130.862 49.3227 131.459 48.632C132.056 47.9227 132.355 47.0453 132.355 46C132.355 44.936 132.056 44.0587 131.459 43.368C130.862 42.6587 130.115 42.304 129.219 42.304C128.304 42.304 127.539 42.6587 126.923 43.368C126.326 44.0587 126.027 44.936 126.027 46C126.027 47.0453 126.326 47.9227 126.923 48.632C127.539 49.3227 128.304 49.668 129.219 49.668ZM145.692 53.28C144.254 53.28 142.948 52.9627 141.772 52.328C140.596 51.6933 139.672 50.8253 139 49.724C138.346 48.604 138.02 47.3627 138.02 46C138.02 44.6373 138.346 43.4053 139 42.304C139.672 41.184 140.596 40.3067 141.772 39.672C142.948 39.0373 144.254 38.72 145.692 38.72C147.129 38.72 148.436 39.0373 149.612 39.672C150.788 40.3067 151.702 41.184 152.356 42.304C153.028 43.4053 153.364 44.6373 153.364 46C153.364 47.3627 153.028 48.604 152.356 49.724C151.684 50.8253 150.76 51.6933 149.584 52.328C148.426 52.9627 147.129 53.28 145.692 53.28ZM145.692 49.696C146.756 49.696 147.633 49.3507 148.324 48.66C149.033 47.9693 149.388 47.0827 149.388 46C149.388 44.9173 149.033 44.0307 148.324 43.34C147.633 42.6493 146.756 42.304 145.692 42.304C144.609 42.304 143.722 42.6493 143.032 43.34C142.341 44.0307 141.996 44.9173 141.996 46C141.996 47.0827 142.341 47.9693 143.032 48.66C143.741 49.3507 144.628 49.696 145.692 49.696ZM159.609 39V40.596C160.188 39.9987 160.85 39.5413 161.597 39.224C162.344 38.888 163.156 38.72 164.033 38.72C165.358 38.72 166.553 39.0373 167.617 39.672C168.681 40.3067 169.512 41.1747 170.109 42.276C170.725 43.3773 171.033 44.6187 171.033 46C171.033 47.3813 170.725 48.6227 170.109 49.724C169.512 50.8253 168.681 51.6933 167.617 52.328C166.553 52.9627 165.358 53.28 164.033 53.28C163.249 53.28 162.502 53.14 161.793 52.86C161.102 52.58 160.486 52.188 159.945 51.684V58.6H156.053V39H159.609ZM163.445 49.696C164.472 49.696 165.33 49.3413 166.021 48.632C166.712 47.9227 167.057 47.0453 167.057 46C167.057 44.9547 166.712 44.0773 166.021 43.368C165.33 42.6587 164.472 42.304 163.445 42.304C162.418 42.304 161.56 42.6587 160.869 43.368C160.197 44.0773 159.861 44.9547 159.861 46C159.861 47.0453 160.197 47.9227 160.869 48.632C161.56 49.3413 162.418 49.696 163.445 49.696ZM173.729 39H179.917L183.193 48.492L186.441 39H192.545V53H188.737V42.668L185.097 53H181.205L177.537 42.64V53H173.729V39ZM199.936 53.308C198.442 53.308 197.266 52.9533 196.408 52.244C195.549 51.5347 195.12 50.5733 195.12 49.36C195.12 46.5973 197.472 45.076 202.176 44.796C203.146 44.7213 203.837 44.5907 204.248 44.404C204.658 44.2173 204.864 43.9373 204.864 43.564C204.864 43.06 204.621 42.6493 204.136 42.332C203.65 41.996 203.034 41.828 202.288 41.828C201.522 41.828 200.878 42.0053 200.356 42.36C199.852 42.7147 199.525 43.2187 199.376 43.872H195.736C195.96 42.304 196.678 41.0533 197.892 40.12C199.105 39.1867 200.626 38.72 202.456 38.72C204.322 38.72 205.806 39.2427 206.908 40.288C208.028 41.3147 208.588 42.696 208.588 44.432V49.584H210.212V53L205.34 53.028V51.264C204.742 51.8987 203.958 52.4027 202.988 52.776C202.036 53.1307 201.018 53.308 199.936 53.308ZM200.86 50.312C201.588 50.312 202.269 50.144 202.904 49.808C203.557 49.472 204.07 49.024 204.444 48.464C204.836 47.904 205.032 47.3067 205.032 46.672V46.504C204.864 46.6347 204.528 46.7653 204.024 46.896C203.538 47.0267 202.988 47.12 202.372 47.176C201.196 47.2693 200.346 47.4653 199.824 47.764C199.32 48.044 199.068 48.4453 199.068 48.968C199.068 49.3973 199.217 49.7333 199.516 49.976C199.833 50.2 200.281 50.312 200.86 50.312Z" fill="white"/>
<rect y="32" width="22" height="22" rx="1" fill="#FEC214"/>
<rect y="1" width="22" height="22" rx="1" fill="#205DDA"/>
</svg>
