<svg width="158" height="44" viewBox="0 0 158 44" fill="none" xmlns="http://www.w3.org/2000/svg">
<path d="M37.9019 15.5576C36.4527 15.5576 35.1456 15.2238 33.9805 14.556C32.8155 13.874 31.8991 12.9434 31.2313 11.7641C30.5778 10.5849 30.251 9.25644 30.251 7.77882C30.251 6.3012 30.5778 4.97276 31.2313 3.79351C31.8991 2.60004 32.8155 1.66943 33.9805 1.00166C35.1456 0.333885 36.4527 0 37.9019 0C39.2233 0 40.4167 0.26995 41.4823 0.80985C42.5621 1.34975 43.4359 2.10277 44.1037 3.06891C44.7714 4.03504 45.1622 5.12905 45.2758 6.35093H41.8659C41.667 5.35638 41.2053 4.56784 40.4807 3.98532C39.7561 3.38858 38.8752 3.09022 37.838 3.09022C36.8008 3.09022 35.9057 3.39569 35.1527 4.00663C34.3997 4.61757 33.9237 5.42031 33.7248 6.41486H38.8397V9.14278H33.7248C33.9237 10.1373 34.3997 10.9401 35.1527 11.551C35.9057 12.162 36.8008 12.4674 37.838 12.4674C38.8752 12.4674 39.7561 12.1762 40.4807 11.5936C41.2053 10.9969 41.667 10.2013 41.8659 9.20672H45.2545C45.1409 10.4286 44.7501 11.5226 44.0824 12.4887C43.4288 13.4549 42.5621 14.2079 41.4823 14.7478C40.4167 15.2877 39.2233 15.5576 37.9019 15.5576Z" fill="#303030"/>
<path d="M47.2567 12.5953C47.3987 11.8139 47.4982 10.9969 47.555 10.1444C47.6261 9.29196 47.6616 8.24058 47.6616 6.99028V4.58205H57.1667V12.5953H58.7651V17.561H55.9093V15.238H48.8124V17.561H45.978V12.5953H47.2567ZM54.2256 7.16078H50.4961V7.48046C50.4961 9.41273 50.3469 11.139 50.0485 12.6592H54.2256V7.16078Z" fill="#303030"/>
<path d="M60.5889 4.58205H63.5086V11.2313L68.3251 4.58205H71.3727V15.238H68.4316V8.58867L63.6365 15.238H60.5889V4.58205Z" fill="#303030"/>
<path d="M74.376 4.58205H77.3383V8.54605H81.8564V4.58205H84.8188V15.238H81.8564V11.274H77.3383V15.238H74.376V4.58205Z" fill="#303030"/>
<path d="M90.4515 15.4724C89.3148 15.4724 88.4197 15.2024 87.7662 14.6625C87.1126 14.1226 86.7858 13.3909 86.7858 12.4674C86.7858 10.3647 88.576 9.20672 92.1564 8.9936C92.8952 8.93677 93.4209 8.83731 93.7335 8.69523C94.046 8.55315 94.2023 8.34004 94.2023 8.05588C94.2023 7.67226 94.0176 7.35969 93.6482 7.11816C93.2788 6.86241 92.81 6.73454 92.2416 6.73454C91.6591 6.73454 91.1689 6.86952 90.7711 7.13947C90.3875 7.40942 90.1389 7.79303 90.0252 8.29031H87.2547C87.4252 7.09684 87.9722 6.14492 88.8957 5.43452C89.8192 4.72413 90.9771 4.36893 92.3695 4.36893C93.7903 4.36893 94.9198 4.76675 95.7581 5.56239C96.6106 6.34383 97.0368 7.39521 97.0368 8.71654V12.6379H98.2729V15.238L94.5646 15.2593V13.9166C94.11 14.3997 93.5132 14.7833 92.7744 15.0675C92.0498 15.3374 91.2755 15.4724 90.4515 15.4724ZM91.1547 13.192C91.7088 13.192 92.2274 13.0642 92.7105 12.8084C93.2078 12.5527 93.5985 12.2117 93.8827 11.7854C94.181 11.3592 94.3302 10.9046 94.3302 10.4215V10.2936C94.2023 10.3931 93.9466 10.4925 93.563 10.592C93.1936 10.6914 92.7744 10.7625 92.3056 10.8051C91.4105 10.8761 90.764 11.0253 90.3662 11.2527C89.9826 11.4658 89.7908 11.7712 89.7908 12.1691C89.7908 12.4958 89.9044 12.7516 90.1318 12.9363C90.3733 13.1068 90.7143 13.192 91.1547 13.192Z" fill="#303030"/>
<path d="M31.2953 24.6761H44.5938V39.5944H41.184V27.9155H34.7052V39.5944H31.2953V24.6761Z" fill="#303030"/>
<path d="M47.9678 39.7862C47.3853 39.7862 46.8809 39.7151 46.4546 39.573V36.9091C46.7672 36.9517 47.0798 36.973 47.3924 36.973C47.8754 36.973 48.2022 36.767 48.3727 36.355C48.6569 35.6304 48.7989 33.7407 48.7989 30.686V28.9384H58.1548V39.5944H55.1925V31.6877H51.5269V32.1352C51.5127 33.7407 51.4487 35.0478 51.3351 36.0566C51.2214 37.0654 50.987 37.8681 50.6318 38.4648C50.0777 39.3457 49.1897 39.7862 47.9678 39.7862Z" fill="#303030"/>
<path d="M63.7722 39.8288C62.6355 39.8288 61.7404 39.5588 61.0869 39.0189C60.4333 38.479 60.1065 37.7473 60.1065 36.8238C60.1065 34.7211 61.8967 33.5631 65.4771 33.35C66.2159 33.2932 66.7416 33.1937 67.0542 33.0516C67.3668 32.9095 67.5231 32.6964 67.5231 32.4123C67.5231 32.0287 67.3384 31.7161 66.969 31.4745C66.5996 31.2188 66.1307 31.0909 65.5624 31.0909C64.9799 31.0909 64.4897 31.2259 64.0919 31.4959C63.7082 31.7658 63.4596 32.1494 63.3459 32.6467H60.5754C60.7459 31.4532 61.2929 30.5013 62.2164 29.7909C63.1399 29.0805 64.2979 28.7253 65.6902 28.7253C67.111 28.7253 68.2406 29.1231 69.0788 29.9188C69.9313 30.7002 70.3575 31.7516 70.3575 33.0729V36.9943H71.5936V39.5944L67.8854 39.6157V38.273C67.4307 38.7561 66.834 39.1397 66.0952 39.4239C65.3706 39.6938 64.5962 39.8288 63.7722 39.8288ZM64.4755 37.5484C65.0296 37.5484 65.5482 37.4206 66.0312 37.1648C66.5285 36.9091 66.9192 36.5681 67.2034 36.1418C67.5018 35.7156 67.6509 35.261 67.6509 34.7779V34.65C67.5231 34.7495 67.2673 34.8489 66.8837 34.9484C66.5143 35.0478 66.0952 35.1189 65.6263 35.1615C64.7312 35.2325 64.0848 35.3817 63.6869 35.609C63.3033 35.8222 63.1115 36.1276 63.1115 36.5255C63.1115 36.8522 63.2252 37.108 63.4525 37.2927C63.694 37.4632 64.035 37.5484 64.4755 37.5484Z" fill="#303030"/>
<path d="M75.7749 31.7303H71.747V28.9384H82.7865V31.7303H78.7373V39.5944H75.7749V31.7303Z" fill="#303030"/>
<path d="M91.0895 38.6353C90.3365 39.4168 89.3987 39.8075 88.2763 39.8075C87.3386 39.8075 86.5003 39.573 85.7615 39.1042C85.0227 38.6211 84.4402 37.9605 84.0139 37.1222C83.6019 36.2697 83.3959 35.3178 83.3959 34.2664C83.3959 33.215 83.6019 32.2702 84.0139 31.4319C84.4402 30.5795 85.0227 29.9188 85.7615 29.4499C86.5003 28.9669 87.3386 28.7253 88.2763 28.7253C89.3987 28.7253 90.3365 29.116 91.0895 29.8975V24.4629H94.0518V29.9188C94.819 29.1231 95.771 28.7253 96.9076 28.7253C97.8311 28.7253 98.6623 28.9669 99.4011 29.4499C100.154 29.9188 100.737 30.5795 101.149 31.4319C101.575 32.2702 101.788 33.215 101.788 34.2664C101.788 35.3178 101.575 36.2697 101.149 37.1222C100.737 37.9605 100.154 38.6211 99.4011 39.1042C98.6623 39.573 97.8311 39.8075 96.9076 39.8075C95.771 39.8075 94.819 39.4097 94.0518 38.614V43.8567H91.0895V38.6353ZM88.8304 37.0583C89.5124 37.0583 90.0807 36.7954 90.5354 36.2697C91.0042 35.7298 91.2387 35.062 91.2387 34.2664C91.2387 33.4566 91.0042 32.7888 90.5354 32.2631C90.0807 31.7232 89.5124 31.4532 88.8304 31.4532C88.1484 31.4532 87.573 31.7232 87.1042 32.2631C86.6495 32.7888 86.4222 33.4566 86.4222 34.2664C86.4222 35.062 86.6495 35.7298 87.1042 36.2697C87.573 36.7954 88.1484 37.0583 88.8304 37.0583ZM96.3535 37.0583C97.0355 37.0583 97.6038 36.7954 98.0584 36.2697C98.5131 35.7298 98.7404 35.062 98.7404 34.2664C98.7404 33.4566 98.5131 32.7888 98.0584 32.2631C97.6038 31.7232 97.0355 31.4532 96.3535 31.4532C95.6573 31.4532 95.0748 31.7232 94.6059 32.2631C94.1513 32.7888 93.9239 33.4566 93.9239 34.2664C93.9239 35.062 94.1513 35.7298 94.6059 36.2697C95.0748 36.7954 95.6573 37.0583 96.3535 37.0583Z" fill="#303030"/>
<path d="M108.892 39.8075C107.798 39.8075 106.803 39.5659 105.908 39.0829C105.013 38.5998 104.309 37.9391 103.798 37.1009C103.301 36.2484 103.052 35.3036 103.052 34.2664C103.052 33.2292 103.301 32.2915 103.798 31.4532C104.309 30.6008 105.013 29.933 105.908 29.4499C106.803 28.9669 107.798 28.7253 108.892 28.7253C109.986 28.7253 110.98 28.9669 111.875 29.4499C112.77 29.933 113.466 30.6008 113.964 31.4532C114.475 32.2915 114.731 33.2292 114.731 34.2664C114.731 35.3036 114.475 36.2484 113.964 37.1009C113.452 37.9391 112.749 38.5998 111.854 39.0829C110.973 39.5659 109.986 39.8075 108.892 39.8075ZM108.892 37.0796C109.701 37.0796 110.369 36.8167 110.895 36.291C111.435 35.7653 111.705 35.0905 111.705 34.2664C111.705 33.4423 111.435 32.7675 110.895 32.2418C110.369 31.7161 109.701 31.4532 108.892 31.4532C108.067 31.4532 107.393 31.7161 106.867 32.2418C106.341 32.7675 106.078 33.4423 106.078 34.2664C106.078 35.0905 106.341 35.7653 106.867 36.291C107.407 36.8167 108.082 37.0796 108.892 37.0796Z" fill="#303030"/>
<path d="M119.485 28.9384V30.1532C119.925 29.6986 120.429 29.3505 120.998 29.1089C121.566 28.8532 122.184 28.7253 122.852 28.7253C123.861 28.7253 124.77 28.9669 125.58 29.4499C126.39 29.933 127.022 30.5937 127.476 31.4319C127.945 32.2702 128.18 33.215 128.18 34.2664C128.18 35.3178 127.945 36.2626 127.476 37.1009C127.022 37.9391 126.39 38.5998 125.58 39.0829C124.77 39.5659 123.861 39.8075 122.852 39.8075C122.255 39.8075 121.687 39.7009 121.147 39.4878C120.621 39.2747 120.152 38.9763 119.74 38.5927V43.8567H116.778V28.9384H119.485ZM122.404 37.0796C123.186 37.0796 123.839 36.8096 124.365 36.2697C124.891 35.7298 125.153 35.062 125.153 34.2664C125.153 33.4708 124.891 32.803 124.365 32.2631C123.839 31.7232 123.186 31.4532 122.404 31.4532C121.623 31.4532 120.969 31.7232 120.444 32.2631C119.932 32.803 119.676 33.4708 119.676 34.2664C119.676 35.062 119.932 35.7298 120.444 36.2697C120.969 36.8096 121.623 37.0796 122.404 37.0796Z" fill="#303030"/>
<path d="M130.232 28.9384H134.942L137.435 36.1632L139.908 28.9384H144.554V39.5944H141.655V31.7303L138.885 39.5944H135.922L133.13 31.709V39.5944H130.232V28.9384Z" fill="#303030"/>
<path d="M150.179 39.8288C149.042 39.8288 148.147 39.5588 147.493 39.0189C146.84 38.479 146.513 37.7473 146.513 36.8238C146.513 34.7211 148.303 33.5631 151.884 33.35C152.622 33.2932 153.148 33.1937 153.461 33.0516C153.773 32.9095 153.929 32.6964 153.929 32.4123C153.929 32.0287 153.745 31.7161 153.375 31.4745C153.006 31.2188 152.537 31.0909 151.969 31.0909C151.386 31.0909 150.896 31.2259 150.498 31.4959C150.115 31.7658 149.866 32.1494 149.752 32.6467H146.982C147.152 31.4532 147.699 30.5013 148.623 29.7909C149.546 29.0805 150.704 28.7253 152.097 28.7253C153.517 28.7253 154.647 29.1231 155.485 29.9188C156.338 30.7002 156.764 31.7516 156.764 33.0729V36.9943H158V39.5944L154.292 39.6157V38.273C153.837 38.7561 153.24 39.1397 152.502 39.4239C151.777 39.6938 151.003 39.8288 150.179 39.8288ZM150.882 37.5484C151.436 37.5484 151.955 37.4206 152.438 37.1648C152.935 36.9091 153.326 36.5681 153.61 36.1418C153.908 35.7156 154.057 35.261 154.057 34.7779V34.65C153.929 34.7495 153.674 34.8489 153.29 34.9484C152.921 35.0478 152.502 35.1189 152.033 35.1615C151.138 35.2325 150.491 35.3817 150.093 35.609C149.71 35.8222 149.518 36.1276 149.518 36.5255C149.518 36.8522 149.632 37.108 149.859 37.2927C150.1 37.4632 150.441 37.5484 150.882 37.5484Z" fill="#303030"/>
<rect y="23.4795" width="18" height="18" rx="1" fill="#FDE354"/>
<rect y="0.479492" width="18" height="18" rx="1" fill="#205DDA"/>
</svg>
