<?xml version="1.0" encoding="utf-8"?>
<!-- Generator: Adobe Illustrator 26.1.0, SVG Export Plug-In . SVG Version: 6.00 Build 0)  -->
<svg version="1.1" id="Layer_1" xmlns="http://www.w3.org/2000/svg" xmlns:xlink="http://www.w3.org/1999/xlink" x="0px" y="0px"
	 width="128px" height="128px" viewBox="0 0 128 128" style="enable-background:new 0 0 128 128;" xml:space="preserve">
<style type="text/css">
	.st0{fill:#606061;}
</style>
<g>
	<g>
		<g>
			<path class="st0" d="M95.9,67l12.3,12.3c1.6,1.6,4.2,1.6,5.8,0l12.2-12.2c1.6-1.6,1.6-4.2,0-5.8l-12.3-12.3
				c-1.6-1.6-4.2-1.6-5.8,0L95.8,61.3C94.2,62.9,94.3,65.4,95.9,67z"/>
		</g>
		<g>
			<path class="st0" d="M74,45.2l12.6,12.6c1.5,1.5,3.9,1.5,5.4,0l12.6-12.6c1.5-1.5,1.5-3.9,0-5.4L91.9,27.2
				c-1.5-1.5-3.9-1.5-5.4,0L74,39.7C72.5,41.2,72.5,43.7,74,45.2z"/>
		</g>
		<g>
			<path class="st0" d="M52.3,23.4l12.7,12.7c1.5,1.5,3.9,1.5,5.4,0l12.6-12.6c1.5-1.5,1.5-3.9,0-5.4L70.2,5.5
				c-1.5-1.5-3.9-1.5-5.4,0L52.2,18C50.7,19.5,50.8,21.9,52.3,23.4z"/>
		</g>
		<g>
			<path class="st0" d="M74.1,88.4l12.6,12.6c1.5,1.5,3.9,1.5,5.4,0l12.6-12.6c1.5-1.5,1.5-3.9,0-5.4L92.1,70.5
				c-1.5-1.5-3.9-1.5-5.4,0L74.1,83C72.6,84.5,72.6,86.9,74.1,88.4z"/>
		</g>
		<g>
			<path class="st0" d="M52.4,66.7L65,79.4c1.5,1.5,3.9,1.5,5.4,0L83,66.8c1.5-1.5,1.5-3.9,0-5.4L70.4,48.8c-1.5-1.5-3.9-1.5-5.4,0
				L52.4,61.3C50.9,62.8,50.9,65.2,52.4,66.7z"/>
		</g>
		<g>
			<path class="st0" d="M26.1,45L37,55.8c1.5,1.5,3.9,1.5,5.4,0l10.8-10.8c1.5-1.5,1.5-3.9,0-5.4L42.3,28.8c-1.5-1.5-3.9-1.5-5.4,0
				L26.1,39.6C24.6,41.1,24.6,43.5,26.1,45z"/>
		</g>
		<g>
			<path class="st0" d="M52.8,110.2L65,122.4c1.6,1.6,4.2,1.6,5.9,0L83,110.3c1.6-1.6,1.6-4.2,0-5.9L70.7,92.2
				c-1.6-1.6-4.2-1.6-5.9,0l-12.1,12.1C51.1,106,51.1,108.6,52.8,110.2z"/>
		</g>
		<g>
			<path class="st0" d="M26.3,88.3l10.7,10.7c1.5,1.5,4,1.5,5.5,0l10.7-10.7c1.5-1.5,1.5-4,0-5.5L42.5,72.2c-1.5-1.5-4-1.5-5.5,0
				L26.3,82.8C24.8,84.3,24.8,86.8,26.3,88.3z"/>
		</g>
		<g>
			<path class="st0" d="M1.8,66.6L9,73.8c1.5,1.5,3.9,1.5,5.4,0l7.2-7.2c1.5-1.5,1.5-3.9,0-5.4L14.4,54c-1.5-1.5-3.9-1.5-5.4,0
				l-7.2,7.2C0.3,62.6,0.3,65.1,1.8,66.6z"/>
		</g>
	</g>
</g>
</svg>
