<?xml version="1.0" encoding="utf-8"?>
<!-- Generator: Adobe Illustrator 26.1.0, SVG Export Plug-In . SVG Version: 6.00 Build 0)  -->
<svg version="1.1" id="Layer_1" xmlns="http://www.w3.org/2000/svg" xmlns:xlink="http://www.w3.org/1999/xlink" x="0px" y="0px"
	 width="48px" height="48px" viewBox="0 0 48 48" style="enable-background:new 0 0 48 48;" xml:space="preserve">
<style type="text/css">
	.st0{fill:#FFFFFF;}
	.st1{fill-rule:evenodd;clip-rule:evenodd;fill:#FFFFFF;}
</style>
<path class="st0" d="M24,0c6.6,0,12.6,2.7,17,7c4.3,4.3,7,10.3,7,17c0,6.6-2.7,12.6-7,17c-4.3,4.3-10.3,7-17,7c-6.6,0-12.6-2.7-17-7
	c-4.4-4.3-7-10.3-7-17c0-6.6,2.7-12.6,7-17C11.4,2.7,17.4,0,24,0L24,0z M40.4,7.6c-4.2-4.2-10-6.8-16.4-6.8
	c-6.4,0-12.2,2.6-16.4,6.8c-4.2,4.2-6.8,10-6.8,16.4c0,6.4,2.6,12.2,6.8,16.4c4.2,4.2,10,6.8,16.4,6.8c6.4,0,12.2-2.6,16.4-6.8
	c4.2-4.2,6.8-10,6.8-16.4C47.2,17.6,44.6,11.8,40.4,7.6L40.4,7.6z"/>
<path id="XMLID_44_" class="st1" d="M21.2,37.6h5.3V25.4h3.9l0.8-4.9h-4.7v-3.7c0-1.4,1.3-2.2,2.6-2.2h2.3v-4.1l-4.1-0.2
	c-3.9-0.2-6,2.8-6,6.5v3.6h-4.4v4.9h4.4V37.6z"/>
</svg>
