<?xml version="1.0" encoding="utf-8"?>
<!-- Generator: Adobe Illustrator 26.1.0, SVG Export Plug-In . SVG Version: 6.00 Build 0)  -->
<svg version="1.1" id="Layer_1" xmlns="http://www.w3.org/2000/svg" xmlns:xlink="http://www.w3.org/1999/xlink" x="0px" y="0px"
	 width="48px" height="48px" viewBox="0 0 48 48" style="enable-background:new 0 0 48 48;" xml:space="preserve">
<style type="text/css">
	.st0{fill:#FFFFFF;}
	.st1{fill-rule:evenodd;clip-rule:evenodd;fill:#FFFFFF;}
</style>
<path class="st0" d="M24,0c6.6,0,12.6,2.7,17,7c4.3,4.3,7,10.3,7,17c0,6.6-2.7,12.6-7,17s-10.3,7-17,7c-6.6,0-12.6-2.7-17-7
	c-4.4-4.3-7-10.3-7-17c0-6.6,2.7-12.6,7-17C11.4,2.7,17.4,0,24,0L24,0z M40.4,7.6c-4.2-4.2-10-6.8-16.4-6.8
	c-6.4,0-12.2,2.6-16.4,6.8c-4.2,4.2-6.8,10-6.8,16.4c0,6.4,2.6,12.2,6.8,16.4c4.2,4.2,10,6.8,16.4,6.8c6.4,0,12.2-2.6,16.4-6.8
	c4.2-4.2,6.8-10,6.8-16.4C47.2,17.6,44.6,11.8,40.4,7.6L40.4,7.6z"/>
<path id="XMLID_28_" class="st1" d="M13.7,22.8c5.3-2.2,11.7-5.4,17.3-7.5c5.1-1.9,5-1.4,4.3,3.8c-0.6,4.1-1.3,8.2-2,12.3
	c-0.2,2-1.3,3-3.4,1.8l-6.7-4.7c-0.9-0.8-0.7-1.4,0.1-2.1l6.2-5.8c1.6-1.6,0.9-2.2-1-0.9L20,25.3c-1.2,0.9-2.5,0.9-3.8,0.4l-2.9-1
	C11.3,24,12.8,23.3,13.7,22.8L13.7,22.8z"/>
</svg>
