<?xml version="1.0" encoding="utf-8"?>
<!-- Generator: Adobe Illustrator 26.1.0, SVG Export Plug-In . SVG Version: 6.00 Build 0)  -->
<svg version="1.1" id="Layer_1" xmlns="http://www.w3.org/2000/svg" xmlns:xlink="http://www.w3.org/1999/xlink" x="0px" y="0px"
	 width="48px" height="48px" viewBox="0 0 48 48" style="enable-background:new 0 0 48 48;" xml:space="preserve">
<style type="text/css">
	.st0{fill:#FFFFFF;}
	.st1{fill-rule:evenodd;clip-rule:evenodd;fill:#FFFFFF;}
</style>
<path class="st0" d="M24,0c6.6,0,12.6,2.7,17,7c4.3,4.3,7,10.3,7,17c0,6.6-2.7,12.6-7,17c-4.3,4.3-10.3,7-17,7c-6.6,0-12.6-2.7-17-7
	c-4.3-4.3-7-10.3-7-17c0-6.6,2.7-12.6,7-17C11.4,2.7,17.4,0,24,0L24,0z M40.4,7.6c-4.2-4.2-10-6.8-16.4-6.8
	c-6.4,0-12.2,2.6-16.4,6.8c-4.2,4.2-6.8,10-6.8,16.4c0,6.4,2.6,12.2,6.8,16.4c4.2,4.2,10,6.8,16.4,6.8c6.4,0,12.2-2.6,16.4-6.8
	c4.2-4.2,6.8-10,6.8-16.4C47.2,17.6,44.6,11.8,40.4,7.6L40.4,7.6z"/>
<path id="XMLID_35_" class="st1" d="M31.8,16.8c-1.4-0.9-2.5-2.5-2.7-4.1c-0.1-0.4-0.1-0.7-0.1-1.1h-4.3v10v7c0,2-1.6,3.6-3.6,3.6
	c-0.7,0-1.2-0.2-1.7-0.4c-1.1-0.6-1.9-1.8-1.9-3.2c0-2,1.6-3.6,3.7-3.6c0.4,0,0.7,0.1,1.1,0.2v-3.3v-1c-0.4-0.1-0.7-0.1-1.1-0.1
	c-4.4,0-7.9,3.5-7.9,7.9c0,2.6,1.3,5,3.4,6.4c1.3,0.9,2.9,1.4,4.5,1.4c4.4,0,7.9-3.5,7.9-7.8v-8.9c1.6,1.5,3.8,2.2,5.9,2v-3.2v-1.1
	C33.8,17.7,32.7,17.4,31.8,16.8L31.8,16.8z"/>
</svg>
