<?xml version="1.0" encoding="utf-8"?>
<!-- Generator: Adobe Illustrator 26.1.0, SVG Export Plug-In . SVG Version: 6.00 Build 0)  -->
<svg version="1.1"
	 id="Layer_1" inkscape:version="1.0.2 (e86c870879, 2021-01-15)" sodipodi:docname="Visa_2021.svg" xmlns:cc="http://creativecommons.org/ns#" xmlns:dc="http://purl.org/dc/elements/1.1/" xmlns:inkscape="http://www.inkscape.org/namespaces/inkscape" xmlns:rdf="http://www.w3.org/1999/02/22-rdf-syntax-ns#" xmlns:sodipodi="http://sodipodi.sourceforge.net/DTD/sodipodi-0.dtd" xmlns:svg="http://www.w3.org/2000/svg"
	 xmlns="http://www.w3.org/2000/svg" xmlns:xlink="http://www.w3.org/1999/xlink" x="0px" y="0px" width="1000px" height="324.7px"
	 viewBox="0 0 1000 324.7" style="enable-background:new 0 0 1000 324.7;" xml:space="preserve">
<style type="text/css">
	.st0{fill:#FFFFFF;}
</style>
<sodipodi:namedview  bordercolor="#666666" borderopacity="1" fit-margin-bottom="0.5" fit-margin-left="0.5" fit-margin-right="0.5" fit-margin-top="0.5" gridtolerance="10" guidetolerance="10" id="namedview3735" inkscape:current-layer="Layer_1" inkscape:cx="473.80866" inkscape:cy="-26.853447" inkscape:document-rotation="0" inkscape:pageopacity="0" inkscape:pageshadow="2" inkscape:window-height="705" inkscape:window-maximized="1" inkscape:window-width="1366" inkscape:window-x="-8" inkscape:window-y="-8" inkscape:zoom="0.49497088" objecttolerance="10" pagecolor="#ffffff" showgrid="false">
	<inkscape:grid  empspacing="5" enabled="true" id="grid3787" snapvisiblegridlinesonly="true" type="xygrid" visible="true">
		</inkscape:grid>
</sodipodi:namedview>
<path id="path3789" inkscape:connector-curvature="0" class="st0" d="M651.2,0.5c-70.9,0-134.3,36.8-134.3,104.7
	c0,77.9,112.4,83.3,112.4,122.4c0,16.5-18.9,31.2-51.1,31.2c-45.8,0-80-20.6-80-20.6l-14.6,68.5c0,0,39.4,17.4,91.7,17.4
	c77.6,0,138.6-38.6,138.6-107.7c0-82.3-112.9-87.5-112.9-123.9c0-12.9,15.5-27.1,47.7-27.1c36.3,0,65.9,15,65.9,15l14.3-66.2
	C728.8,14.4,696.6,0.5,651.2,0.5L651.2,0.5z M2.2,5.5l-1.7,10c0,0,29.8,5.5,56.7,16.4c34.6,12.5,37.1,19.8,42.9,42.4L163.6,319h85.1
	L379.9,5.5H295l-84.3,213.2L176.3,38c-3.2-20.7-19.1-32.5-38.7-32.5C137.6,5.5,2.2,5.5,2.2,5.5z M414.1,5.5L347.4,319h81L494.8,5.5
	L414.1,5.5L414.1,5.5z M865.8,5.5c-19.5,0-29.9,10.5-37.5,28.7L709.7,319h84.9l16.4-47.5h103.5l10,47.5h74.9L934.1,5.5L865.8,5.5
	L865.8,5.5z M876.9,90.2l25.2,117.7h-67.5L876.9,90.2L876.9,90.2z"/>
</svg>
