<?xml version="1.0" encoding="utf-8"?>
<!-- Generator: Adobe Illustrator 26.1.0, SVG Export Plug-In . SVG Version: 6.00 Build 0)  -->
<svg version="1.1" id="Layer_1" xmlns="http://www.w3.org/2000/svg" xmlns:xlink="http://www.w3.org/1999/xlink" x="0px" y="0px"
	 width="48px" height="48px" viewBox="0 0 48 48" style="enable-background:new 0 0 48 48;" xml:space="preserve">
<style type="text/css">
	.st0{fill:#FFFFFF;}
	.st1{fill-rule:evenodd;clip-rule:evenodd;fill:#FFFFFF;}
</style>
<path class="st0" d="M24,0c6.6,0,12.6,2.7,17,7c4.3,4.3,7,10.3,7,17c0,6.6-2.7,12.6-7,17c-4.3,4.3-10.3,7-17,7c-6.6,0-12.6-2.7-17-7
	c-4.4-4.3-7-10.3-7-17c0-6.6,2.7-12.6,7-17C11.4,2.7,17.4,0,24,0L24,0z M40.4,7.6c-4.2-4.2-10-6.8-16.4-6.8
	c-6.4,0-12.2,2.6-16.4,6.8c-4.2,4.2-6.8,10-6.8,16.4c0,6.4,2.6,12.2,6.8,16.4c4.2,4.2,10,6.8,16.4,6.8c6.4,0,12.2-2.6,16.4-6.8
	c4.2-4.2,6.8-10,6.8-16.4C47.2,17.6,44.6,11.8,40.4,7.6L40.4,7.6z"/>
<path class="st1" d="M18.4,13.8h11.2c2.5,0,4.6,2.1,4.6,4.6v11.2c0,2.5-2.1,4.6-4.6,4.6H18.4c-2.5,0-4.6-2.1-4.6-4.6V18.4
	C13.8,15.9,15.8,13.8,18.4,13.8L18.4,13.8z M24,19.6L24,19.6c2.5,0,4.5,2,4.5,4.4l0,0c0,2.5-2,4.5-4.4,4.5H24c-2.4,0-4.4-2-4.4-4.5
	l0,0C19.6,21.6,21.5,19.6,24,19.6L24,19.6z M24,17.3L24,17.3c3.7,0,6.8,3.1,6.8,6.7l0,0c0,3.7-3.1,6.7-6.7,6.7H24
	c-3.6,0-6.7-3-6.7-6.7l0,0C17.3,20.4,20.3,17.3,24,17.3L24,17.3z M30.6,16L30.6,16c0.8,0,1.4,0.6,1.4,1.4l0,0c0,0.8-0.6,1.4-1.4,1.4
	l0,0c-0.8,0-1.4-0.6-1.4-1.4l0,0C29.2,16.6,29.8,16,30.6,16L30.6,16z M18.3,11.7h11.4c3.6,0,6.7,3,6.7,6.7v11.3c0,3.6-3,6.6-6.7,6.6
	H18.3c-3.6,0-6.7-3-6.7-6.6V18.4C11.7,14.7,14.7,11.7,18.3,11.7L18.3,11.7z"/>
</svg>
