<svg width="20" height="20" viewBox="0 0 20 20" fill="none" xmlns="http://www.w3.org/2000/svg">
<path d="M8.09523 0L7.64137 2.5C7.20014 2.63869 6.77287 2.81764 6.36904 3.02829L4.27083 1.58483L1.57738 4.27829L3.02828 6.36904C2.81674 6.77404 2.63912 7.19874 2.5 7.64138L0 8.09523V11.9048L2.5 12.3586C2.63947 12.8024 2.82347 13.2251 3.03571 13.631L1.57738 15.7217L4.27083 18.4152L6.36161 16.9717C6.76721 17.1837 7.19802 17.3606 7.64137 17.5L8.09523 20H11.9048L12.3586 17.5C12.8012 17.3609 13.2259 17.1833 13.6309 16.9717L15.7217 18.4152L18.4152 15.7217L16.9643 13.631C17.1749 13.2278 17.3536 12.8066 17.4926 12.3661L20 11.9048V8.09523L17.4926 7.64138C17.3543 7.20169 17.1814 6.77907 16.9717 6.3765L18.4152 4.27829L15.7217 1.58483L13.6309 3.02829C13.2259 2.81676 12.8013 2.63914 12.3586 2.5L11.9048 0H8.09523ZM9.99999 5.71428C12.3669 5.71428 14.2857 7.63305 14.2857 9.99999C14.2857 12.3669 12.3669 14.2857 9.99999 14.2857C7.63306 14.2857 5.71428 12.3669 5.71428 9.99999C5.71428 7.63305 7.63306 5.71428 9.99999 5.71428Z" fill="white"/>
</svg>
