<?xml version="1.0" encoding="utf-8"?>
<!-- Generator: Adobe Illustrator 26.1.0, SVG Export Plug-In . SVG Version: 6.00 Build 0)  -->
<svg version="1.1" id="Layer_1" xmlns="http://www.w3.org/2000/svg" xmlns:xlink="http://www.w3.org/1999/xlink" x="0px" y="0px"
	 width="128px" height="23px" viewBox="0 0 128 23" style="enable-background:new 0 0 128 23;" xml:space="preserve">
<style type="text/css">
	.st0{fill:#333138;}
</style>
<g>
	<g>
		<path class="st0" d="M0,5.4h12.9V9H8.4v12.8H4.5V9H0V5.4z"/>
		<path class="st0" d="M17.7,11.9h2.6c0.5,0,0.8-0.1,1.2-0.2c0.3-0.1,0.6-0.3,0.7-0.6c0.2-0.3,0.3-0.6,0.3-0.9c0-0.6-0.2-1-0.6-1.3
			S21,8.5,20.3,8.5h-1.6v10.2h2c0.5,0,1-0.1,1.4-0.2c0.4-0.1,0.7-0.4,1-0.7c0.2-0.3,0.4-0.7,0.4-1.3c0-0.3-0.1-0.6-0.2-0.9
			c-0.1-0.2-0.3-0.5-0.6-0.6c-0.2-0.2-0.5-0.3-0.9-0.3c-0.3-0.1-0.7-0.1-1.1-0.1h-3v-2.1h3.5c0.8,0,1.6,0.1,2.3,0.3
			c0.7,0.2,1.4,0.4,2,0.8c0.6,0.4,1.1,0.9,1.5,1.4c0.4,0.6,0.5,1.3,0.5,2.1c0,1.1-0.3,2-0.8,2.6c-0.5,0.7-1.3,1.2-2.2,1.5
			c-1,0.3-2.1,0.5-3.4,0.5h-6.4V5.4h6c1.1,0,2.1,0.2,3,0.5c0.9,0.3,1.5,0.8,2.1,1.4c0.5,0.6,0.8,1.4,0.8,2.3c0,0.9-0.3,1.6-0.8,2.2
			c-0.5,0.6-1.2,1.1-2.1,1.4c-0.9,0.3-1.9,0.5-3,0.5h-3.1V11.9z"/>
		<path class="st0" d="M34.3,5.4v16.4h-4V5.4H34.3z"/>
		<path class="st0" d="M37.7,22.6l0.1-4.9l15-13.1l-0.1,4.9L37.7,22.6z M41.5,18.7l-3.8,3.9V5.4h3.8V18.7z M44.3,0.4
			c0,0.3,0.1,0.5,0.2,0.7c0.1,0.2,0.3,0.4,0.5,0.5c0.2,0.1,0.5,0.2,0.8,0.2c0.3,0,0.6-0.1,0.8-0.2c0.2-0.1,0.4-0.3,0.5-0.5
			c0.1-0.2,0.2-0.4,0.2-0.7h2.3c0,0.6-0.1,1.2-0.4,1.7c-0.3,0.5-0.7,0.9-1.3,1.2c-0.6,0.3-1.3,0.5-2.1,0.5c-0.8,0-1.5-0.2-2.1-0.5
			c-0.6-0.3-1-0.7-1.3-1.2C42.2,1.6,42,1,42,0.4H44.3z M52.8,21.8H49V8.6l3.8-4V21.8z"/>
		<path class="st0" d="M67.4,5.4v16.4h-4.1V5.4H67.4z M77.6,5.4l-6.6,7.7l7,8.7h-4.8l-6.9-8.6l6.7-7.8H77.6z"/>
		<path class="st0" d="M83.6,5.4v16.4h-3.9V5.4H83.6z M82.1,5.4h3.2c1.4,0,2.6,0.2,3.5,0.6c0.9,0.4,1.7,1,2.1,1.8
			c0.5,0.8,0.7,1.8,0.7,2.9c0,1.1-0.2,2-0.7,2.8c-0.5,0.8-1.2,1.4-2.1,1.8c-0.9,0.4-2.1,0.6-3.5,0.6h-3.2v-3.2h3.2
			c0.8,0,1.4-0.2,1.9-0.5c0.5-0.4,0.7-0.9,0.7-1.5c0-0.7-0.2-1.2-0.7-1.6c-0.5-0.4-1.1-0.5-1.9-0.5h-3.2V5.4z"/>
		<path class="st0" d="M93.9,10.2c0.4-1,1.1-1.9,1.9-2.7c0.8-0.8,1.7-1.4,2.8-1.8c1.1-0.4,2.2-0.6,3.5-0.6c1.3,0,2.4,0.2,3.5,0.6
			c1.1,0.4,2,1,2.8,1.8c0.8,0.8,1.4,1.7,1.8,2.7c0.4,1,0.7,2.2,0.7,3.5c0,1.3-0.2,2.4-0.6,3.5c-0.4,1.1-1,2-1.8,2.8
			c-0.8,0.8-1.7,1.4-2.8,1.8c-1.1,0.4-2.3,0.6-3.5,0.6c-1.3,0-2.5-0.2-3.6-0.6c-1.1-0.4-2-1-2.8-1.8c-0.8-0.8-1.4-1.7-1.8-2.8
			c-0.4-1.1-0.6-2.2-0.6-3.5C93.3,12.4,93.5,11.2,93.9,10.2z M98,16.2c0.4,0.7,0.9,1.3,1.6,1.7c0.7,0.4,1.5,0.6,2.4,0.6
			c0.9,0,1.7-0.2,2.4-0.6c0.7-0.4,1.2-1,1.6-1.7c0.4-0.7,0.6-1.6,0.6-2.6c0-1-0.2-1.8-0.6-2.6c-0.4-0.7-0.9-1.3-1.6-1.7
			c-0.7-0.4-1.5-0.6-2.5-0.6c-0.9,0-1.7,0.2-2.4,0.6c-0.7,0.4-1.2,1-1.6,1.7c-0.4,0.7-0.6,1.6-0.6,2.6C97.4,14.6,97.6,15.4,98,16.2z
			"/>
		<path class="st0" d="M117.5,5.4v16.4h-4.1V5.4H117.5z M127.6,5.4l-6.6,7.7l7,8.7h-4.8l-6.9-8.6l6.7-7.8H127.6z"/>
	</g>
</g>
</svg>
