<?xml version="1.0" encoding="utf-8"?>
<!-- Generator: Adobe Illustrator 26.1.0, SVG Export Plug-In . SVG Version: 6.00 Build 0)  -->
<svg version="1.1" id="Layer_1" xmlns="http://www.w3.org/2000/svg" xmlns:xlink="http://www.w3.org/1999/xlink" x="0px" y="0px"
	 width="48px" height="48px" viewBox="0 0 48 48" style="enable-background:new 0 0 48 48;" xml:space="preserve">
<style type="text/css">
	.st0{fill:#FFFFFF;}
	.st1{fill-rule:evenodd;clip-rule:evenodd;fill:#FFFFFF;}
</style>
<path class="st0" d="M24,0c6.6,0,12.6,2.7,17,7c4.3,4.3,7,10.3,7,17c0,6.6-2.7,12.6-7,17s-10.3,7-17,7c-6.6,0-12.6-2.7-17-7
	c-4.4-4.3-7-10.3-7-17c0-6.6,2.7-12.6,7-17C11.4,2.7,17.4,0,24,0L24,0z M40.4,7.6c-4.2-4.2-10-6.8-16.4-6.8
	c-6.4,0-12.2,2.6-16.4,6.8c-4.2,4.2-6.8,10-6.8,16.4c0,6.4,2.6,12.2,6.8,16.4c4.2,4.2,10,6.8,16.4,6.8c6.4,0,12.2-2.6,16.4-6.8
	c4.2-4.2,6.8-10,6.8-16.4C47.2,17.6,44.6,11.8,40.4,7.6L40.4,7.6z"/>
<path class="st1" d="M16.9,14.8c2.3-0.2,5-0.3,7.1-0.3l0,0c2.1,0,4.8,0.1,7.1,0.3c2.7,0.2,4.1,0.7,4.5,3.4c0.2,1.2,0.3,3,0.3,4.7
	l0,0c0,1.8-0.1,3.5-0.3,4.7c-0.4,2.8-1.8,3.2-4.5,3.4c-2.4,0.2-5,0.3-7.1,0.3l0,0c-2.1,0-4.8,0-7.1-0.3c-2.7-0.2-4.2-0.7-4.5-3.4
	c-0.1-1.2-0.2-3-0.2-4.7l0,0c0-1.8,0.1-3.5,0.2-4.7C12.7,15.5,14.2,15,16.9,14.8L16.9,14.8z M20.9,19.4l6.2,3.6l-6.2,3.6V19.4z"/>
</svg>
